<svg width="50" height="50" viewBox="0 0 50 50" fill="none" xmlns="http://www.w3.org/2000/svg">
<g clip-path="url(#clip0_187_41)">
<path d="M14.659 48.892C14.5576 48.695 14.3559 47.9234 14.2109 47.1772C13.9641 45.9076 13.9041 45.8072 13.2763 45.6142C12.6242 45.4136 12.5761 45.4416 11.5595 46.6128C10.8749 47.4016 10.3582 47.8178 10.0636 47.8178C9.81611 47.8178 9.0425 47.4793 8.34448 47.0655C7.64646 46.6517 7.02783 46.1631 6.96976 45.9797C6.91165 45.7964 7.08502 44.9956 7.35497 44.2003L7.84578 42.7542L7.33067 42.238L6.81555 41.7219L5.37251 42.2137C4.57883 42.4842 3.77975 42.6579 3.59676 42.5997C3.41377 42.5415 2.9262 41.9216 2.51327 41.2221C2.10034 40.5226 1.76248 39.7474 1.76248 39.4994C1.76248 39.2042 2.17784 38.6864 2.96498 38.0004C4.13381 36.9816 4.16172 36.9335 3.96157 36.28C3.76889 35.6509 3.66875 35.5907 2.40179 35.3435C1.65715 35.1981 0.887121 34.9961 0.690604 34.8944C0.390778 34.7392 0.333313 34.4157 0.333313 32.8826C0.333313 31.3494 0.390801 31.0259 0.690604 30.8708C0.887121 30.7691 1.65715 30.567 2.40179 30.4217C3.66875 30.1744 3.76889 30.1143 3.96157 29.4851C4.16172 28.8317 4.13381 28.7835 2.96498 27.7648C2.17784 27.0787 1.76248 26.5609 1.76248 26.2657C1.76248 26.0177 2.10034 25.2425 2.51327 24.543C2.9262 23.8435 3.41377 23.2236 3.59676 23.1654C3.77975 23.1072 4.57883 23.2809 5.37251 23.5514L6.81555 24.0433L7.33067 23.5271L7.84578 23.0109L7.35497 21.5648C7.08502 20.7695 6.91167 19.9688 6.96976 19.7854C7.02786 19.602 7.64646 19.1134 8.34448 18.6996C9.0425 18.2858 9.81611 17.9473 10.0636 17.9473C10.3582 17.9473 10.8749 18.3635 11.5595 19.1523C12.5761 20.3236 12.6242 20.3515 13.2763 20.151C13.9041 19.9579 13.9641 19.8575 14.2109 18.5879C14.3559 17.8417 14.5576 17.0701 14.659 16.8732C14.8138 16.5727 15.1367 16.5151 16.6667 16.5151C18.1966 16.5151 18.5195 16.5727 18.6743 16.8732C18.7757 17.0701 18.9774 17.8417 19.1224 18.5879C19.3692 19.8575 19.4292 19.9579 20.057 20.151C20.7091 20.3515 20.7572 20.3236 21.7738 19.1523C22.4584 18.3635 22.9751 17.9473 23.2697 17.9473C23.5172 17.9473 24.2908 18.2858 24.9888 18.6996C25.6868 19.1134 26.3055 19.602 26.3635 19.7854C26.4216 19.9688 26.2483 20.7695 25.9783 21.5648L25.4875 23.0109L26.0026 23.5271L26.5177 24.0433L27.9608 23.5514C28.7545 23.2809 29.5536 23.1072 29.7365 23.1654C29.9195 23.2236 30.4071 23.8435 30.82 24.543C31.233 25.2425 31.5708 26.0177 31.5708 26.2657C31.5708 26.5609 31.1555 27.0787 30.3683 27.7648C29.1995 28.7835 29.1716 28.8317 29.3717 29.4851C29.5644 30.1143 29.6646 30.1744 30.9315 30.4217C31.6762 30.567 32.4462 30.7691 32.6427 30.8708C32.9425 31.0259 33 31.3494 33 32.8826C33 34.4157 32.9425 34.7392 32.6427 34.8944C32.4462 34.9961 31.6762 35.1981 30.9315 35.3435C29.6646 35.5907 29.5644 35.6509 29.3717 36.28C29.1716 36.9335 29.1995 36.9816 30.3683 38.0004C31.1555 38.6864 31.5708 39.2042 31.5708 39.4994C31.5708 39.7474 31.233 40.5226 30.82 41.2221C30.4071 41.9216 29.9195 42.5415 29.7365 42.5997C29.5536 42.6579 28.7545 42.4842 27.9608 42.2137L26.5177 41.7219L26.0026 42.238L25.4875 42.7542L25.9783 44.2003C26.2483 44.9956 26.4216 45.7964 26.3635 45.9797C26.3054 46.1631 25.6868 46.6517 24.9888 47.0655C24.2908 47.4793 23.5172 47.8178 23.2697 47.8178C22.9751 47.8178 22.4584 47.4016 21.7738 46.6128C20.7572 45.4416 20.7091 45.4136 20.057 45.6142C19.4292 45.8072 19.3692 45.9076 19.1224 47.1772C18.9774 47.9234 18.7757 48.695 18.6743 48.892C18.5195 49.1924 18.1966 49.25 16.6667 49.25C15.1367 49.25 14.8138 49.1924 14.659 48.892ZM17.5002 45.9257C17.7474 44.7019 17.8881 44.4008 18.3051 44.2028C18.583 44.0709 19.398 43.8424 20.1161 43.6951L21.4219 43.4272L22.4641 44.5717C23.3609 45.5566 23.5665 45.6889 23.9383 45.5204L24.3703 45.3246L23.9893 44.0979C23.7798 43.4232 23.6083 42.6623 23.6083 42.4071C23.6083 42.122 24.0089 41.5417 24.6474 40.9019C25.2189 40.3292 25.7931 39.8245 25.9234 39.7802C26.0538 39.736 26.8181 39.9026 27.6219 40.1505L29.0834 40.6011L29.2784 40.1688C29.4462 39.797 29.3135 39.5902 28.3314 38.6921L27.1894 37.6477L27.4567 36.3393C27.6037 35.6196 27.8317 34.8029 27.9633 34.5244C28.1608 34.1065 28.4614 33.9656 29.6826 33.7179C31.0661 33.4372 31.1625 33.3828 31.1625 32.8826C31.1625 32.3823 31.0661 32.3279 29.6826 32.0473C28.4614 31.7996 28.1608 31.6586 27.9633 31.2407C27.8317 30.9622 27.6037 30.1455 27.4567 29.4259L27.1894 28.1174L28.3314 27.0731C29.3236 26.1658 29.4474 25.9708 29.2744 25.5872L29.0752 25.1458L27.9241 25.5472C27.2909 25.768 26.5432 25.9558 26.2625 25.9646C25.9059 25.9758 25.429 25.6553 24.6802 24.9013C24.0188 24.2353 23.6083 23.6443 23.6083 23.358C23.6083 23.1028 23.7798 22.3419 23.9893 21.6672L24.3703 20.4405L23.9383 20.2447C23.5665 20.0763 23.3609 20.2085 22.4641 21.1934L21.4219 22.3379L20.1161 22.07C19.398 21.9227 18.583 21.6942 18.3051 21.5623C17.8881 21.3644 17.7474 21.0632 17.5002 19.8395C17.2202 18.453 17.1659 18.3565 16.6667 18.3565C16.1674 18.3565 16.1131 18.453 15.8331 19.8395C15.5859 21.0632 15.4452 21.3644 15.0282 21.5623C14.7503 21.6942 13.9353 21.9227 13.2172 22.07L11.9114 22.3379L10.8692 21.1934C9.97237 20.2085 9.76683 20.0763 9.39502 20.2447L8.96296 20.4405L9.34397 21.6672C9.55353 22.3419 9.72498 23.1028 9.72498 23.358C9.72498 23.6438 9.3216 24.2262 8.67498 24.8742C8.02837 25.5222 7.44709 25.9264 7.16192 25.9264C6.90724 25.9264 6.14798 25.7546 5.47468 25.5446L4.25049 25.1628L4.05515 25.5958C3.88704 25.9683 4.01904 26.1743 5.00188 27.0731L6.14395 28.1174L5.87665 29.4259C5.72963 30.1455 5.50163 30.9622 5.36998 31.2407C5.17245 31.6586 4.87192 31.7996 3.65071 32.0473C2.26719 32.3279 2.17081 32.3823 2.17081 32.8826C2.17081 33.3828 2.26719 33.4372 3.65071 33.7179C4.87192 33.9656 5.17245 34.1065 5.36998 34.5244C5.50163 34.8029 5.72963 35.6196 5.87665 36.3393L6.14395 37.6477L5.00188 38.6921C4.0097 39.5994 3.88594 39.7944 4.05894 40.1779L4.25807 40.6193L5.40924 40.2179C6.04238 39.9972 6.79521 39.808 7.0822 39.7976C7.4529 39.7842 7.91105 40.0864 8.66448 40.8414C9.34405 41.5224 9.72498 42.0778 9.72498 42.3876C9.72498 42.6536 9.55353 43.4232 9.34397 44.0979L8.96296 45.3246L9.39502 45.5204C9.76683 45.6889 9.97237 45.5566 10.8692 44.5717L11.9114 43.4272L13.2172 43.6951C13.9353 43.8424 14.7503 44.0709 15.0282 44.2028C15.4452 44.4008 15.5859 44.7019 15.8331 45.9257C16.1131 47.3121 16.1674 47.4087 16.6667 47.4087C17.1659 47.4087 17.2202 47.3121 17.5002 45.9257ZM13.8083 41.5011C13.1907 41.3022 12.3179 40.9039 11.8687 40.6159C11.4196 40.3279 10.6965 39.7361 10.262 39.3006C9.82744 38.8652 9.23694 38.1406 8.94975 37.6905C8.66256 37.2404 8.26014 36.3345 8.05546 35.6775C7.82172 34.9272 7.68331 33.8548 7.68331 32.7941C7.68331 31.6688 7.81253 30.7289 8.07055 29.9774C8.28353 29.3571 8.68559 28.4911 8.96403 28.0529C9.24248 27.6148 9.81176 26.9068 10.2291 26.4796C10.6465 26.0524 11.3601 25.4675 11.815 25.1798C12.2699 24.892 13.1485 24.4819 13.7676 24.2685C14.5352 24.0039 15.457 23.8805 16.6667 23.8805C17.8763 23.8805 18.7981 24.0039 19.5657 24.2685C20.1848 24.4819 21.049 24.8848 21.4862 25.1639C21.9235 25.4429 22.63 26.0134 23.0563 26.4316C23.4825 26.8498 24.0663 27.5649 24.3534 28.0208C24.6406 28.4766 25.0498 29.3571 25.2627 29.9774C25.5208 30.7289 25.65 31.6688 25.65 32.7941C25.65 33.8548 25.5116 34.9272 25.2778 35.6775C25.0732 36.3345 24.664 37.2549 24.3685 37.7226C24.073 38.1904 23.4825 38.9153 23.0563 39.3335C22.63 39.7518 21.9137 40.329 21.4646 40.6164C21.0154 40.9037 20.1114 41.3066 19.4558 41.5117C18.6913 41.7509 17.6658 41.8807 16.5974 41.8736C15.5931 41.867 14.4851 41.719 13.8083 41.5011ZM19.8406 39.3825C20.4071 39.0903 21.2649 38.4562 21.7468 37.9733C22.2287 37.4905 22.8676 36.6309 23.1666 36.0631C23.6556 35.1348 23.7104 34.8143 23.7104 32.8826C23.7104 30.9508 23.6556 30.6303 23.1666 29.702C22.8676 29.1343 22.2287 28.2747 21.7468 27.7918C21.2649 27.309 20.4382 26.6943 19.9095 26.4258C19.3809 26.1574 18.4349 25.857 17.8075 25.7584C17.1543 25.6558 16.179 25.6558 15.5258 25.7584C14.8983 25.857 13.9524 26.1574 13.4238 26.4258C12.8951 26.6943 12.0683 27.309 11.5865 27.7918C11.1046 28.2747 10.4657 29.1343 10.1667 29.702C9.67769 30.6303 9.62289 30.9508 9.62289 32.8826C9.62289 34.8114 9.67807 35.1353 10.1631 36.0538C10.4602 36.6164 11.1033 37.4759 11.5922 37.9638C12.0812 38.4517 12.8487 39.041 13.2979 39.2734C13.7471 39.5057 14.3442 39.7713 14.625 39.8634C14.9057 39.9556 15.9623 40.0046 16.9729 39.9723C18.4769 39.9243 18.9974 39.8172 19.8406 39.3825ZM39.5849 36.7187C39.4735 36.578 39.2714 36.1177 39.1358 35.6957C38.961 35.152 38.7718 34.9285 38.4865 34.9285C38.2651 34.9285 37.8029 35.0741 37.4595 35.252C37.1161 35.43 36.6272 35.5233 36.3729 35.4593C36.1187 35.3954 35.5773 34.9733 35.1699 34.5214C34.7625 34.0695 34.4324 33.5389 34.4364 33.3423C34.4402 33.1457 34.5749 32.7547 34.7354 32.4734C34.8959 32.1921 35.0304 31.7619 35.0344 31.5174C35.0398 31.1815 34.8547 31.0126 34.276 30.8258C33.8549 30.6899 33.3956 30.4874 33.2552 30.3757C33.0962 30.2493 33 29.6517 33 28.7907C33 27.9297 33.0962 27.3321 33.2552 27.2057C33.3956 27.094 33.8549 26.8915 34.276 26.7556C34.8186 26.5805 35.0416 26.3909 35.0416 26.105C35.0416 25.8831 34.8964 25.4199 34.7188 25.0758C34.5412 24.7317 34.4481 24.2417 34.5119 23.987C34.5758 23.7322 34.9969 23.1897 35.4479 22.7814C35.8989 22.3732 36.4283 22.0424 36.6245 22.0464C36.8207 22.0503 37.2109 22.1852 37.4917 22.346C37.7724 22.5068 38.2017 22.6417 38.4456 22.6457C38.7808 22.6512 38.9494 22.4655 39.1358 21.8857C39.2714 21.4637 39.4735 21.0034 39.5849 20.8627C39.7111 20.7034 40.3075 20.607 41.1666 20.607C42.0258 20.607 42.6222 20.7034 42.7484 20.8627C42.8598 21.0034 43.0619 21.4637 43.1975 21.8857C43.3839 22.4655 43.5525 22.6511 43.8877 22.6457C44.1316 22.6416 44.5609 22.5068 44.8417 22.346C45.1224 22.1852 45.5126 22.0504 45.7088 22.0464C45.905 22.0425 46.4344 22.3732 46.8854 22.7814C47.3364 23.1897 47.7576 23.7322 47.8214 23.987C47.8852 24.2417 47.7921 24.7317 47.6145 25.0758C47.4369 25.4199 47.2917 25.8831 47.2917 26.105C47.2917 26.3909 47.5147 26.5805 48.0573 26.7556C48.4784 26.8915 48.9377 27.094 49.0781 27.2057C49.2371 27.3321 49.3333 27.9297 49.3333 28.7907C49.3333 29.6517 49.2371 30.2493 49.0781 30.3757C48.9377 30.4874 48.4784 30.6899 48.0573 30.8258C47.4786 31.0126 47.2934 31.1815 47.2989 31.5174C47.3027 31.7619 47.4374 32.1921 47.5979 32.4734C47.7584 32.7547 47.8929 33.1457 47.8969 33.3423C47.9008 33.5389 47.5708 34.0695 47.1634 34.5214C46.756 34.9733 46.2146 35.3954 45.9604 35.4593C45.7061 35.5233 45.2172 35.43 44.8738 35.252C44.5304 35.0741 44.0682 34.9285 43.8468 34.9285C43.5615 34.9285 43.3723 35.152 43.1975 35.6957C43.0619 36.1177 42.8598 36.578 42.7484 36.7187C42.6222 36.878 42.0258 36.9744 41.1666 36.9744C40.3075 36.9744 39.7111 36.878 39.5849 36.7187ZM41.6811 34.3659C41.924 33.7587 42.1856 33.5171 42.9348 33.2078C43.8207 32.842 43.9376 32.8377 44.7522 33.1402C45.2311 33.3181 45.6695 33.417 45.7264 33.3599C45.7832 33.3029 45.6846 32.8637 45.5071 32.3838C45.2052 31.5674 45.2095 31.4503 45.5745 30.5625C45.8832 29.8117 46.1243 29.5496 46.7302 29.3062C47.1513 29.137 47.4958 28.9051 47.4958 28.7907C47.4958 28.6764 47.1385 28.4395 46.7019 28.2645C46.055 28.0051 45.8414 27.7714 45.5483 27.0024C45.2162 26.1309 45.2132 25.9924 45.5092 25.1919C45.6855 24.7152 45.7832 24.2785 45.7263 24.2215C45.6695 24.1644 45.2311 24.2633 44.7522 24.4412C43.9375 24.7438 43.8206 24.7394 42.9347 24.3737C42.1855 24.0643 41.924 23.8227 41.681 23.2155C41.5122 22.7936 41.2807 22.4483 41.1666 22.4483C41.0525 22.4483 40.821 22.7936 40.6522 23.2155C40.4093 23.8227 40.1477 24.0643 39.3985 24.3737C38.5126 24.7394 38.3957 24.7437 37.581 24.4412C37.1021 24.2633 36.6638 24.1644 36.6069 24.2215C36.55 24.2785 36.6486 24.7177 36.8261 25.1976C37.1281 26.014 37.1237 26.1312 36.7588 27.0189C36.4501 27.7697 36.209 28.0318 35.6031 28.2752C35.182 28.4444 34.8374 28.6764 34.8374 28.7907C34.8374 28.9051 35.1947 29.1419 35.6314 29.3169C36.2783 29.5763 36.4919 29.81 36.7849 30.579C37.1171 31.4505 37.1201 31.589 36.824 32.3895C36.6477 32.8662 36.55 33.3029 36.6069 33.3599C36.6637 33.417 37.1021 33.3181 37.581 33.1402C38.3957 32.8377 38.5126 32.842 39.3984 33.2078C40.1477 33.5171 40.4092 33.7587 40.6522 34.3659C40.821 34.7878 41.0525 35.1331 41.1666 35.1331C41.2807 35.1331 41.5122 34.7878 41.681 34.3659H41.6811ZM39.3783 31.6561C39.0123 31.4325 38.5304 30.9495 38.3072 30.5828C38.0322 30.1308 37.9015 29.5534 37.9015 28.7907C37.9015 28.028 38.0322 27.4506 38.3072 26.9987C38.5304 26.6319 39.0123 26.1489 39.3783 25.9253C39.8293 25.6497 40.4055 25.5188 41.1666 25.5188C41.9278 25.5188 42.5039 25.6497 42.955 25.9253C43.321 26.1489 43.803 26.6319 44.0261 26.9987C44.3011 27.4506 44.4318 28.028 44.4318 28.7907C44.4318 29.5534 44.3011 30.1308 44.0261 30.5828C43.803 30.9495 43.321 31.4325 42.955 31.6561C42.5039 31.9317 41.9278 32.0627 41.1666 32.0627C40.4055 32.0627 39.8293 31.9317 39.3783 31.6561ZM42.2225 29.8843C42.4493 29.6785 42.5958 29.2634 42.5958 28.8263C42.5958 28.4306 42.4438 27.9385 42.2579 27.7327C42.0526 27.5054 41.6383 27.3586 41.2021 27.3586C40.8073 27.3586 40.3162 27.5109 40.1109 27.6972C39.884 27.9029 39.7375 28.318 39.7375 28.7552C39.7375 29.1508 39.8895 29.6429 40.0754 29.8487C40.2807 30.076 40.695 30.2229 41.1312 30.2229C41.526 30.2229 42.0171 30.0705 42.2225 29.8843ZM0.894774 19.8943C0.585974 19.6219 0.333313 19.313 0.333313 19.2079C0.333313 19.1028 1.14498 18.2467 2.13701 17.3056C3.12905 16.3645 4.69167 15.1441 5.6095 14.5936C6.52732 14.0431 8.08144 13.2912 9.06309 12.9228C10.0447 12.5543 11.5561 12.1071 12.4216 11.9289C13.2871 11.7507 14.842 11.6049 15.877 11.6049H17.7587L17.2736 11.0875L16.7885 10.57L17.4411 9.91599L18.0938 9.26194L19.4219 10.581C20.3673 11.5199 20.75 12.0507 20.75 12.4233C20.75 12.7958 20.3673 13.3266 19.4219 14.2656L18.0938 15.5846L17.4433 14.9328C16.806 14.2941 16.8005 14.2724 17.1697 13.8636C17.5365 13.4574 17.5362 13.4458 17.1577 13.4301C16.9438 13.4212 16.1716 13.4278 15.4417 13.4449C14.7118 13.4619 13.5174 13.6027 12.7875 13.7577C12.0576 13.9128 10.9547 14.2156 10.3366 14.4307C9.71847 14.6458 8.61597 15.1216 7.88657 15.488C7.15718 15.8544 6.00915 16.5496 5.33541 17.033C4.66165 17.5163 3.56204 18.4722 2.8918 19.1571C2.22156 19.842 1.62438 20.3995 1.56472 20.3959C1.50507 20.392 1.20359 20.1666 0.894786 19.8942L0.894774 19.8943ZM31.8629 19.0701C31.6942 18.6656 31.5005 18.0555 31.4324 17.7142C31.3643 17.373 31.1756 17.0426 31.0132 16.9801C30.8507 16.9177 30.1881 17.1202 29.5408 17.4302C28.7982 17.7859 28.2092 17.9447 27.9445 17.8605C27.7139 17.7871 27.1492 17.3184 26.6896 16.8188C26.2301 16.3192 25.8541 15.7673 25.8541 15.5922C25.8541 15.4172 26.0891 14.8093 26.3764 14.2413C26.6636 13.6733 26.8703 13.0707 26.8357 12.9022C26.8003 12.7296 26.193 12.4016 25.4458 12.1515L24.1187 11.7072V9.96816V8.22912L25.4458 7.78486C26.193 7.53474 26.8004 7.2067 26.8357 7.03416C26.8703 6.86562 26.6564 6.24883 26.3604 5.66351C26.0301 5.01025 25.8665 4.42262 25.9369 4.14177C25.9999 3.89012 26.4644 3.30281 26.9691 2.83664C27.4738 2.37046 28.0296 1.98904 28.2043 1.98904C28.379 1.98904 28.9856 2.22453 29.5524 2.51234C30.1192 2.80016 30.7206 3.00731 30.8888 2.97267C31.0609 2.93718 31.3883 2.32861 31.6379 1.57986L32.0812 0.25H33.8167H35.5521L35.9954 1.57986C36.245 2.32861 36.5724 2.93722 36.7445 2.97267C36.9127 3.00732 37.5141 2.80016 38.0809 2.51234C38.6477 2.22453 39.2543 1.98904 39.429 1.98904C39.6037 1.98904 40.1595 2.37046 40.6642 2.83664C41.1689 3.30281 41.6334 3.89012 41.6964 4.14177C41.7668 4.42262 41.6032 5.01025 41.2729 5.66351C40.9769 6.24883 40.763 6.86562 40.7976 7.03416C40.833 7.2067 41.4403 7.53474 42.1875 7.78486L43.5146 8.22912V9.96816V11.7072L42.1875 12.1515C41.4403 12.4016 40.8329 12.7296 40.7976 12.9022C40.763 13.0707 40.9769 13.6875 41.2729 14.2728C41.6032 14.9261 41.7668 15.5137 41.6964 15.7946C41.6334 16.0462 41.1689 16.6335 40.6642 17.0997C40.1595 17.5659 39.6037 17.9473 39.429 17.9473C39.2543 17.9473 38.6477 17.7118 38.0809 17.424C37.5141 17.1362 36.9127 16.929 36.7445 16.9636C36.5724 16.9991 36.245 17.6077 35.9954 18.3565L35.5521 19.6863L33.8608 19.7459L32.1695 19.8054L31.8629 19.0701ZM34.568 16.7718C34.8773 15.7932 35.0592 15.5379 35.6542 15.2472C36.0472 15.0552 36.5785 14.8936 36.8349 14.8882C37.0913 14.8828 37.7442 15.1034 38.2857 15.3784C38.9952 15.7387 39.3325 15.8162 39.4925 15.6558C39.6525 15.4955 39.5751 15.1575 39.2156 14.4466C38.9412 13.9039 38.7211 13.2496 38.7265 12.9927C38.7319 12.7358 38.8926 12.21 39.0838 11.8244C39.3672 11.2524 39.6477 11.0512 40.6052 10.7332C41.466 10.4473 41.7792 10.2432 41.7792 9.96816C41.7792 9.69314 41.466 9.48905 40.6052 9.20312C39.6477 8.88508 39.3672 8.68388 39.0838 8.11196C38.8926 7.7263 38.7319 7.20054 38.7265 6.94361C38.7211 6.68669 38.9412 6.03246 39.2156 5.48976C39.5751 4.77884 39.6525 4.44083 39.4925 4.28048C39.3325 4.12012 38.9952 4.19767 38.2857 4.55792C37.7442 4.83292 37.0913 5.05351 36.8349 5.0481C36.5785 5.04269 36.0472 4.88116 35.6542 4.68912C35.0592 4.39842 34.8773 4.14312 34.568 3.1645C34.291 2.28843 34.0997 1.98904 33.8167 1.98904C33.5336 1.98904 33.3423 2.28843 33.0653 3.1645C32.756 4.14312 32.5741 4.39842 31.9791 4.68912C31.5861 4.88116 31.0548 5.0427 30.7984 5.0481C30.542 5.05351 29.8891 4.83292 29.3476 4.55792C28.6381 4.19767 28.3008 4.12012 28.1408 4.28048C27.9808 4.44083 28.0582 4.77884 28.4177 5.48976C28.6921 6.03246 28.9122 6.68669 28.9068 6.94361C28.9014 7.20054 28.7402 7.73299 28.5486 8.12682C28.2585 8.72299 28.0037 8.90525 27.0272 9.21527C26.1529 9.4928 25.8541 9.68456 25.8541 9.96816C25.8541 10.2518 26.1529 10.4435 27.0272 10.721C28.0037 11.0311 28.2585 11.2133 28.5486 11.8095C28.7402 12.2033 28.9014 12.7358 28.9068 12.9927C28.9122 13.2496 28.6921 13.9039 28.4177 14.4466C28.0582 15.1575 27.9808 15.4955 28.1408 15.6558C28.3008 15.8162 28.6381 15.7387 29.3476 15.3784C29.8891 15.1034 30.542 14.8828 30.7984 14.8882C31.0548 14.8936 31.5861 15.0552 31.9791 15.2472C32.5741 15.5379 32.756 15.7932 33.0653 16.7718C33.3423 17.6479 33.5336 17.9473 33.8167 17.9473C34.0997 17.9473 34.291 17.6479 34.568 16.7718ZM31.8093 13.6322C31.3078 13.3771 30.6927 12.8306 30.3883 12.3698C29.99 11.7666 29.8305 11.2233 29.7694 10.2614C29.7034 9.2231 29.7777 8.7779 30.1432 8.02122C30.4242 7.43965 30.9128 6.86904 31.4152 6.53591C32.0222 6.13337 32.5618 5.97385 33.524 5.91244C34.5602 5.84633 35.0044 5.92079 35.7595 6.28709C36.3399 6.56863 36.9093 7.05828 37.2417 7.56168C37.6435 8.16996 37.8027 8.71068 37.8639 9.67493C37.9299 10.7132 37.8556 11.1584 37.4901 11.9151C37.2082 12.4986 36.7204 13.0673 36.2134 13.4035C35.5776 13.8251 35.0893 13.9627 34.0434 14.0148C32.9662 14.0685 32.5152 13.9912 31.8093 13.6322ZM35.012 11.9271C35.3215 11.7668 35.6844 11.3942 35.8186 11.0991C35.9527 10.8041 36.0625 10.2951 36.0625 9.96816C36.0625 9.64117 35.9527 9.13223 35.8186 8.83718C35.6844 8.54214 35.3215 8.16954 35.012 8.00919C34.7026 7.84884 34.0844 7.71764 33.6383 7.71764C33.0048 7.71764 32.6897 7.85548 32.199 8.34716C31.6746 8.87265 31.5716 9.13466 31.5754 9.93275C31.5784 10.5292 31.7126 11.052 31.9327 11.3225C32.1267 11.561 32.4692 11.8575 32.6937 11.9812C32.9183 12.105 33.4052 12.209 33.7757 12.2125C34.1463 12.2156 34.7026 12.0875 35.012 11.9271ZM43.8772 18.2225L43.219 17.6985L43.8407 16.7931C44.1826 16.2952 44.6538 15.4539 44.8878 14.9238C45.1218 14.3936 45.4358 13.499 45.5855 12.9358C45.7352 12.3726 45.8541 10.9911 45.8498 9.86587C45.8436 8.2995 45.732 7.48424 45.3728 6.38778L44.9037 4.95563L44.7442 5.94936L44.5846 6.94309L43.751 6.80952C43.2925 6.73606 42.8744 6.63282 42.8218 6.58013C42.7692 6.52739 42.8924 5.58796 43.0956 4.49242C43.2988 3.39687 43.5483 2.3394 43.6501 2.14248C43.7681 1.91426 44.0732 1.78438 44.4915 1.78428C44.8525 1.7842 45.9288 1.93622 46.8833 2.12211C47.8378 2.30801 48.6508 2.48601 48.69 2.51767C48.7292 2.5493 48.6962 2.96026 48.6171 3.43085L48.4729 4.28645L47.4979 4.15685L46.5229 4.02724L47.0404 5.41211C47.4623 6.54106 47.5753 7.27188 47.6519 9.36696C47.7317 11.5497 47.6805 12.1758 47.3119 13.5221C47.0732 14.3939 46.6386 15.5806 46.3461 16.159C46.0535 16.7375 45.5832 17.5607 45.3008 17.9882C45.0184 18.4158 44.7307 18.7613 44.6614 18.7561C44.5921 18.7506 44.2392 18.5107 43.8772 18.2225H43.8772Z" fill="#1B1018"/>
</g>
<defs>
<clipPath id="clip0_187_41">
<rect width="49" height="49" fill="white" transform="translate(0.333313 0.25)"/>
</clipPath>
</defs>
</svg>
