<svg width="1372" height="599" viewBox="0 0 1372 599" fill="none" xmlns="http://www.w3.org/2000/svg">
<g clip-path="url(#clip0_187_20)">
<rect width="1372" height="599" fill="#311629"/>
<rect y="-297" width="1379" height="1125" fill="#311629"/>
<rect y="-297" width="1379" height="1125" fill="url(#paint0_radial_187_20)" fill-opacity="0.2"/>
<rect y="-297" width="1379" height="1125" fill="url(#paint1_radial_187_20)" fill-opacity="0.2"/>
<g filter="url(#filter0_d_187_20)">
<path d="M0 0H1369" stroke="#C9C9C9"/>
</g>
<g filter="url(#filter1_d_187_20)">
<path fill-rule="evenodd" clip-rule="evenodd" d="M90.7661 -22.4384L90.72 -24.764L90.6368 -27.0956L90.5162 -29.4324L90.3577 -31.7736L90.1611 -34.1186L89.9261 -36.4665L89.6524 -38.8166L89.34 -41.1681L88.9885 -43.5203L88.598 -45.8724L88.1682 -48.2238L87.6992 -50.5737L87.1909 -52.9214L86.6433 -55.2662L86.0566 -57.6074L85.4307 -59.9444L84.7657 -62.2765L84.0618 -64.603L83.3192 -66.9235L82.538 -69.2372L81.7183 -71.5435L80.8605 -73.842L79.9647 -76.1319L79.0311 -78.4129L78.0602 -80.6843L77.0521 -82.9457L76.0071 -85.1966L74.9256 -87.4364L73.8078 -89.6648L72.6541 -91.8813L71.4648 -94.0854L70.2403 -96.2769L68.9809 -98.4551L67.6869 -100.62L66.3587 -102.771L64.9967 -104.907L63.6012 -107.029L62.1725 -109.136L60.711 -111.227L59.2171 -113.303L57.691 -115.363L56.1332 -117.406L54.544 -119.433L52.9237 -121.443L51.2726 -123.436L49.591 -125.411L47.8793 -127.368L46.1377 -129.306L44.3667 -131.227L42.5664 -133.128L40.7371 -135.009L38.8792 -136.872L36.9928 -138.714L35.0783 -140.535L33.136 -142.336L31.166 -144.115L29.1687 -145.873L27.1442 -147.609L25.093 -149.322L23.0153 -151.012L20.9113 -152.679L18.7813 -154.322L16.6257 -155.94L14.4448 -157.535L12.2388 -159.104L10.0081 -160.648L7.75301 -162.167L5.47388 -163.659L3.17099 -165.125L0.844724 -166.565L-1.50458 -167.977L-3.87658 -169.361L-6.27093 -170.718L-8.68727 -172.046L-11.1253 -173.346L-13.5844 -174.617L-16.0645 -175.858L-18.5651 -177.07L-21.0858 -178.252L-23.6261 -179.403L-26.1859 -180.524L-28.7645 -181.614L-31.3616 -182.672L-33.9769 -183.699L-36.6098 -184.693L-39.2599 -185.655L-41.927 -186.584L-44.6104 -187.48L-47.3097 -188.343L-50.0245 -189.172L-52.7544 -189.967L-55.4988 -190.727L-58.2573 -191.452L-61.0294 -192.143L-63.8146 -192.798L-66.6124 -193.418L-69.4224 -194.002L-72.244 -194.55L-75.0767 -195.062L-77.92 -195.538L-80.7733 -195.977L-83.6363 -196.379L-86.5082 -196.744L-89.3888 -197.072L-92.2772 -197.362L-95.1731 -197.615L-98.0759 -197.83L-100.985 -198.008L-103.9 -198.147L-106.82 -198.248L-109.745 -198.311L-112.674 -198.335L-115.607 -198.32L-118.543 -198.267L-121.481 -198.174L-124.421 -198.043L-127.362 -197.872L-130.303 -197.661L-133.245 -197.411L-136.186 -197.121L-139.126 -196.791L-142.064 -196.421L-144.999 -196.011L-147.932 -195.561L-150.86 -195.07L-153.784 -194.539L-156.703 -193.967L-159.616 -193.355L-162.523 -192.701L-165.423 -192.007L-168.314 -191.271L-171.197 -190.495L-174.071 -189.678L-176.935 -188.82L-179.788 -187.92L-182.629 -186.98L-185.459 -185.998L-188.275 -184.976L-191.078 -183.913L-193.867 -182.809L-196.64 -181.664L-199.398 -180.479L-202.14 -179.253L-204.864 -177.988L-207.571 -176.682L-210.259 -175.337L-212.928 -173.952L-215.577 -172.528L-218.206 -171.066L-220.813 -169.565L-223.399 -168.026L-225.963 -166.449L-228.504 -164.835L-231.021 -163.185L-233.515 -161.498L-235.984 -159.775L-238.428 -158.017L-240.846 -156.223L-243.238 -154.395L-245.603 -152.533L-247.941 -150.637L-250.251 -148.708L-252.534 -146.747L-254.787 -144.753L-257.011 -142.727L-259.206 -140.671L-261.37 -138.584L-263.504 -136.467L-265.608 -134.32L-267.679 -132.145L-269.719 -129.941L-271.727 -127.709L-273.703 -125.451L-275.645 -123.165L-277.555 -120.854L-279.431 -118.517L-281.273 -116.155L-283.081 -113.769L-284.854 -111.359L-286.593 -108.927L-288.297 -106.472L-289.966 -103.995L-291.599 -101.497L-293.197 -98.9784L-294.758 -96.44L-296.284 -93.8822L-297.773 -91.3057L-299.226 -88.7111L-300.642 -86.0988L-302.021 -83.4696L-303.362 -80.8239L-304.666 -78.1622L-305.932 -75.4853L-307.159 -72.7936L-308.348 -70.0877L-309.499 -67.3681L-310.61 -64.6354L-311.682 -61.8902L-312.715 -59.133L-313.708 -56.3643L-314.66 -53.5849L-315.573 -50.7951L-316.444 -47.9957L-317.275 -45.1872L-318.064 -42.3703L-318.812 -39.5454L-319.518 -36.7132L-320.182 -33.8743L-320.804 -31.0295L-321.384 -28.1792L-321.921 -25.3242L-322.415 -22.465L-322.866 -19.6025L-323.274 -16.7371L-323.638 -13.8696L-323.959 -11.0007L-324.236 -8.13115L-324.47 -5.26152L-324.659 -2.39256L-324.805 0.474983L-324.907 3.34041L-324.965 6.20298L-324.979 9.06199L-324.949 11.9167L-324.875 14.7663L-324.757 17.6102L-324.596 20.4474L-324.391 23.2775L-324.142 26.0995L-323.851 28.9127L-323.516 31.7164L-323.139 34.5099L-322.719 37.2924L-322.257 40.0632L-321.754 42.8216L-321.209 45.5668L-320.623 48.2982L-319.997 51.015L-319.331 53.7167L-318.625 56.4025L-317.881 59.0717L-317.098 61.7239L-316.278 64.3582L-315.42 66.9742L-314.527 69.5713L-313.598 72.149L-312.635 74.7066L-311.637 77.2438L-310.607 79.76L-309.544 82.2549L-308.449 84.7279L-307.324 87.1787L-306.168 89.6069L-304.984 92.0121L-303.771 94.394L-302.53 96.7524L-301.262 99.0869L-299.969 101.397L-298.65 103.683L-297.307 105.945L-295.94 108.182L-294.55 110.393L-293.138 112.58L-291.705 114.742L-290.251 116.878L-288.778 118.989L-287.285 121.075L-285.775 123.135L-284.246 125.17L-282.701 127.179L-281.14 129.163L-279.563 131.121L-277.971 133.054L-276.365 134.962L-274.746 136.845L-273.114 138.702L-271.47 140.535L-269.815 142.343L-268.148 144.126L-266.471 145.884L-264.785 147.619L-263.089 149.329L-261.384 151.015L-259.671 152.677L-257.951 154.316L-256.224 155.931L-254.49 157.524L-252.75 159.094L-251.004 160.641L-249.253 162.166L-247.498 163.669L-245.738 165.151L-243.974 166.611L-242.207 168.05L-240.437 169.468L-238.664 170.866L-236.889 172.244L-235.111 173.602L-233.332 174.941L-231.551 176.261L-229.768 177.562L-227.985 178.844L-226.201 180.109L-224.416 181.355L-222.631 182.584L-220.846 183.796L-219.061 184.991L-217.275 186.17L-215.49 187.332L-213.706 188.479L-211.921 189.61L-210.137 190.725L-208.354 191.826L-206.571 192.912L-204.788 193.983L-203.007 195.04L-201.225 196.083L-199.445 197.112L-197.665 198.128L-195.885 199.13L-194.106 200.119L-192.327 201.095L-190.548 202.058L-188.77 203.008L-186.992 203.946L-185.213 204.871L-183.435 205.784L-181.656 206.685L-179.877 207.573L-178.098 208.449L-176.317 209.314L-174.537 210.166L-172.755 211.006L-170.972 211.834L-169.187 212.65L-167.402 213.454L-165.615 214.246L-163.826 215.025L-162.035 215.792L-160.242 216.547L-158.447 217.289L-156.65 218.018L-154.85 218.734L-153.048 219.438L-151.243 220.128L-149.435 220.805L-147.624 221.468L-145.81 222.118L-143.993 222.753L-142.173 223.374L-140.349 223.98L-138.521 224.572L-136.691 225.148L-134.856 225.709L-133.018 226.255L-131.177 226.784L-129.331 227.297L-127.482 227.793L-125.629 228.272L-123.773 228.733L-121.913 229.177L-120.049 229.603L-118.182 230.01L-116.311 230.399L-114.437 230.768L-112.56 231.118L-110.68 231.447L-108.797 231.757L-106.91 232.045L-105.022 232.313L-103.13 232.559L-101.237 232.784L-99.3411 232.986L-97.4436 233.166L-95.5446 233.324L-93.6442 233.457L-91.7428 233.568L-89.8407 233.654L-87.9381 233.716L-86.0354 233.753L-84.133 233.765L-82.2311 233.752L-80.3302 233.713L-78.4306 233.647L-76.5328 233.555L-74.6372 233.436L-72.7442 233.289L-70.8543 233.115L-68.968 232.913L-67.0857 232.682L-65.208 232.423L-63.3354 232.136L-61.4683 231.819L-59.6075 231.473L-57.7532 231.098L-55.9063 230.694L-54.0671 230.259L-52.2363 229.795L-50.4145 229.301L-48.6022 228.778L-46.8 228.224L-45.0086 227.641L-43.2284 227.028L-41.4601 226.385L-39.7042 225.712L-37.9614 225.01L-36.2322 224.279L-34.5171 223.519L-32.8167 222.73L-31.1316 221.912L-29.4623 221.066L-27.8093 220.192L-26.1731 219.291L-24.5543 218.362L-22.9532 217.407L-21.3705 216.425L-19.8064 215.418L-18.2614 214.385L-16.7359 213.328L-15.2304 212.246L-13.7451 211.14L-12.2805 210.011L-10.8368 208.86L-9.41435 207.687L-8.0134 206.492L-6.63425 205.277L-5.27708 204.041L-3.9421 202.787L-2.62954 201.513L-1.33953 200.222L-0.0722328 198.913L1.17226 197.587L2.39384 196.245L3.59242 194.888L4.76792 193.517L5.92037 192.131L7.04973 190.732L8.15604 189.32L9.23938 187.897L10.2998 186.462L11.3376 185.018L12.3528 183.563L13.3455 182.099L14.3162 180.628L15.2649 179.149L16.192 177.663L17.0979 176.171L17.9828 174.674L18.8472 173.172L19.6915 171.666L20.5161 170.158L21.3214 168.646L22.1081 167.133L22.8765 165.619L23.6272 164.104L24.3609 162.589L25.078 161.075L25.7792 159.562L26.4651 158.051L27.1364 156.542L27.7937 155.035L28.4376 153.532L29.0689 152.032L29.6884 150.537L30.2965 149.045L30.8941 147.558L31.4819 146.076L32.0606 144.6L32.6309 143.128L33.1936 141.663L33.7495 140.203L34.2992 138.749L34.8435 137.301L35.3832 135.86L35.9191 134.425L36.4518 132.996L36.9822 131.574L37.511 130.157L38.0389 128.747L38.5666 127.343L39.0948 125.945L39.6243 124.553L40.1556 123.166L40.6895 121.785L41.2265 120.409L41.7673 119.037L42.3124 117.67L42.8624 116.307L43.4178 114.948L43.9791 113.592L44.5468 112.239L45.1212 110.888L45.7028 109.539L46.2919 108.192L46.8889 106.845L47.4939 105.499L48.1074 104.152L48.7294 102.805L49.3601 101.456L49.9997 100.105L50.6481 98.7511L51.3056 97.394L51.972 96.0329L52.6474 94.6672L53.3316 93.2963L54.0246 91.9194L54.7262 90.5359L55.4361 89.1452L56.1543 87.7466L56.8803 86.3395L57.6139 84.9233L58.3547 83.4972L59.1024 82.0608L59.8566 80.6133L60.6168 79.1542L61.3825 77.683L62.1533 76.1989L62.9286 74.7016L63.7079 73.1904L64.4906 71.6649L65.276 70.1245L66.0636 68.5687L66.8528 66.9972L67.6429 65.4094L68.4331 63.805L69.2229 62.1835L70.0115 60.5446L70.7982 58.8879L71.5823 57.2131L72.3631 55.5199L73.1398 53.8081L73.9115 52.0773L74.6776 50.3274L75.4372 48.5581L76.1893 46.7693L76.9333 44.9609L77.668 43.1326L78.3928 41.2845L79.1066 39.4165L79.8084 37.5286L80.4974 35.6208L81.1726 33.6932L81.8331 31.7457L82.4778 29.7787L83.1057 27.7921L83.716 25.7862L84.3077 23.7612L84.8797 21.7174L85.431 19.655L85.9607 17.5744L86.4679 15.476L86.9516 13.36L87.4107 11.227L87.8445 9.07733L88.2519 6.91157L88.6321 4.7302L88.9841 2.53374L89.3071 0.322803L89.6002 -1.90199L89.8626 -4.14004L90.0936 -6.3907L90.2922 -8.65327L90.4576 -10.927L90.5894 -13.2113L90.6867 -15.5053L90.749 -17.8083L90.7756 -20.1196L90.7661 -22.4384Z" fill="#F28C8F" fill-opacity="0.5" shape-rendering="crispEdges"/>
</g>
<g filter="url(#filter2_d_187_20)">
<path fill-rule="evenodd" clip-rule="evenodd" d="M-133.069 -67.5844L-134.638 -67.0349L-136.289 -66.5738L-138.022 -66.1948L-139.837 -65.8909L-141.734 -65.6554L-143.711 -65.4807L-145.769 -65.3597L-147.904 -65.2847L-150.115 -65.2483L-152.398 -65.2428L-154.752 -65.2607L-157.172 -65.2946L-159.654 -65.3372L-162.195 -65.3813L-164.79 -65.42L-167.435 -65.4465L-170.124 -65.4543L-172.852 -65.4371L-175.614 -65.3887L-178.404 -65.3034L-181.216 -65.1755L-184.043 -64.9993L-186.878 -64.7698L-189.717 -64.4824L-192.551 -64.1334L-195.377 -63.7195L-198.188 -63.2382L-200.979 -62.687L-203.745 -62.064L-206.48 -61.3676L-209.18 -60.5965L-211.84 -59.7498L-214.455 -58.827L-217.021 -57.8278L-219.534 -56.7522L-221.989 -55.6006L-224.383 -54.3736L-226.712 -53.0721L-228.973 -51.6972L-231.162 -50.2502L-233.277 -48.7326L-235.316 -47.1463L-237.274 -45.4931L-239.151 -43.7751L-240.945 -41.9946L-242.653 -40.1537L-244.273 -38.2552L-245.806 -36.3014L-247.248 -34.2951L-248.6 -32.239L-249.861 -30.1358L-251.029 -27.9885L-252.106 -25.7999L-253.09 -23.573L-253.981 -21.3106L-254.781 -19.0157L-255.489 -16.6914L-256.105 -14.3405L-256.632 -11.966L-257.069 -9.57077L-257.418 -7.15776L-257.68 -4.72981L-257.857 -2.28969L-257.951 0.159815L-257.964 2.61611L-257.898 5.07648L-257.755 7.53847L-257.539 9.99964L-257.251 12.4577L-256.894 14.9103L-256.473 17.3554L-255.99 19.7911L-255.448 22.2154L-254.852 24.6267L-254.204 27.0234L-253.51 29.4042L-252.773 31.7677L-251.998 34.1131L-251.187 36.4393L-250.347 38.7456L-249.481 41.0316L-248.593 43.297L-247.688 45.5416L-246.771 47.7655L-245.845 49.9689L-244.914 52.1522L-243.984 54.3161L-243.057 56.4612L-242.137 58.5885L-241.228 60.6991L-240.333 62.7942L-239.456 64.875L-238.597 66.943L-237.761 68.9996L-236.949 71.0464L-236.163 73.085L-235.403 75.117L-234.671 77.1439L-233.967 79.1673L-233.292 81.1887L-232.643 83.2095L-232.022 85.231L-231.426 87.2544L-230.853 89.2808L-230.303 91.3111L-229.772 93.3459L-229.259 95.3859L-228.76 97.4315L-228.272 99.483L-227.793 101.54L-227.321 103.604L-226.851 105.673L-226.382 107.748L-225.912 109.829L-225.439 111.915L-224.96 114.007L-224.474 116.103L-223.977 118.204L-223.465 120.307L-222.935 122.41L-222.381 124.513L-221.799 126.611L-221.183 128.702L-220.528 130.783L-219.828 132.85L-219.08 134.9L-218.278 136.928L-217.418 138.93L-216.496 140.903L-215.51 142.842L-214.455 144.744L-213.33 146.604L-212.134 148.419L-210.865 150.185L-209.522 151.9L-208.106 153.56L-206.618 155.162L-205.058 156.704L-203.427 158.184L-201.729 159.599L-199.965 160.95L-198.138 162.234L-196.252 163.452L-194.31 164.602L-192.315 165.685L-190.273 166.702L-188.187 167.653L-186.061 168.539L-183.901 169.363L-181.711 170.126L-179.495 170.83L-177.258 171.478L-175.005 172.074L-172.74 172.619L-170.468 173.117L-168.193 173.573L-165.92 173.989L-163.653 174.37L-161.395 174.721L-159.15 175.044L-156.922 175.345L-154.714 175.629L-152.528 175.899L-150.368 176.16L-148.237 176.418L-146.135 176.676L-144.065 176.938L-142.029 177.211L-140.027 177.497L-138.061 177.801L-136.132 178.128L-134.239 178.48L-132.383 178.863L-130.564 179.279L-128.781 179.731L-127.033 180.224L-125.319 180.758L-123.638 181.338L-121.989 181.965L-120.37 182.64L-118.778 183.366L-117.212 184.144L-115.669 184.973L-114.146 185.855L-112.642 186.789L-111.154 187.775L-109.677 188.812L-108.211 189.899L-106.751 191.033L-105.295 192.214L-103.839 193.437L-102.382 194.701L-100.919 196.001L-99.4474 197.335L-97.9656 198.698L-96.4702 200.086L-94.9589 201.493L-93.4292 202.916L-91.8791 204.349L-90.3065 205.787L-88.7098 207.224L-87.0875 208.655L-85.4383 210.074L-83.7613 211.476L-82.0556 212.855L-80.3209 214.206L-78.557 215.525L-76.7641 216.807L-74.9426 218.049L-73.0934 219.249L-71.2172 220.407L-69.3152 221.523L-67.3884 222.596L-65.4378 223.627L-63.4646 224.619L-61.4697 225.573L-59.454 226.49L-57.4183 227.374L-55.3633 228.226L-53.2896 229.05L-51.1977 229.846L-49.0879 230.618L-46.9604 231.368L-44.8154 232.098L-42.6528 232.81L-40.4727 233.506L-38.2749 234.186L-36.0592 234.853L-33.8254 235.508L-31.5731 236.151L-29.3022 236.782L-27.0122 237.403L-24.7029 238.013L-22.3741 238.612L-20.0256 239.199L-17.6571 239.774L-15.2685 240.336L-12.8599 240.883L-10.4314 241.414L-7.98299 241.928L-5.51508 242.422L-3.02808 242.894L-0.522528 243.342L2.00086 243.764L4.54124 244.157L7.09757 244.518L9.66865 244.844L12.2531 245.132L14.8493 245.379L17.4556 245.582L20.0699 245.737L22.6901 245.84L25.3138 245.888L27.9384 245.878L30.5612 245.806L33.1791 245.668L35.7888 245.46L38.3871 245.18L40.9703 244.822L43.5344 244.385L46.0757 243.864L48.5898 243.257L51.0725 242.56L53.5193 241.77L55.9255 240.885L58.2866 239.901L60.5976 238.818L62.8537 237.632L65.0501 236.342L67.1818 234.947L69.244 233.446L71.2318 231.838L73.1405 230.122L74.9656 228.3L76.7026 226.372L78.3473 224.338L79.8957 222.2L81.3442 219.961L82.6894 217.623L83.9284 215.188L85.0585 212.661L86.0777 210.045L86.9842 207.345L87.7771 204.565L88.4557 201.712L89.02 198.789L89.4706 195.805L89.8087 192.764L90.0362 189.675L90.1554 186.543L90.1694 183.377L90.0819 180.182L89.897 176.968L89.6195 173.741L89.2547 170.509L88.808 167.279L88.2857 164.058L87.6938 160.853L87.0387 157.67L86.3266 154.514L85.5633 151.392L84.7544 148.307L83.9053 145.264L83.021 142.265L82.1065 139.313L81.1668 136.412L80.2063 133.563L79.2299 130.769L78.2419 128.031L77.2468 125.35L76.249 122.728L75.2528 120.166L74.2624 117.664L73.2822 115.222L72.3162 112.841L71.3685 110.522L70.4431 108.263L69.544 106.065L68.675 103.927L67.8397 101.848L67.0418 99.8282L66.2847 97.8655L65.5717 95.9588L64.9057 94.1069L64.2898 92.3079L63.7265 90.5603L63.2183 88.8619L62.7674 87.2107L62.3756 85.6045L62.0446 84.0409L61.7758 82.5173L61.5703 81.0312L61.4288 79.5799L61.3518 78.1607L61.3395 76.7706L61.3918 75.4069L61.5083 74.0666L61.6884 72.7469L61.931 71.4447L62.235 70.1574L62.599 68.8819L63.0213 67.6156L63.5 66.3556L64.0331 65.0993L64.6184 63.8441L65.2536 62.5876L65.9361 61.3273L66.6635 60.0611L67.4331 58.7867L68.2423 57.5021L69.0884 56.2055L69.9688 54.895L70.8808 53.569L71.8218 52.2259L72.7893 50.8643L73.7809 49.4829L74.7943 48.0804L75.8273 46.6559L76.8777 45.2081L77.9435 43.7362L79.023 42.2394L80.1144 40.7167L81.2162 39.1675L82.3267 37.5911L83.4448 35.9868L84.569 34.354L85.6983 32.6922L86.8314 31.0007L87.9673 29.2791L89.105 27.5269L90.2433 25.7437L91.3811 23.9289L92.5174 22.0823L93.6508 20.2035L94.7801 18.2921L95.9038 16.3481L97.0202 14.3712L98.1276 12.3615L99.2241 10.319L100.307 8.24375L101.375 6.13623L102.425 3.99685L103.454 1.82622L104.46 -0.374855L105.438 -2.60544L106.387 -4.86435L107.302 -7.15029L108.18 -9.46179L109.019 -11.7972L109.814 -14.1546L110.561 -16.5322L111.258 -18.9274L111.898 -21.337L112.476 -23.7573L112.985 -26.1844L113.419 -28.6137L113.773 -31.0406L114.041 -33.4604L114.217 -35.8679L114.298 -38.258L114.278 -40.6252L114.153 -42.9641L113.92 -45.2693L113.574 -47.5351L113.115 -49.7562L112.539 -51.9269L111.845 -54.042L111.032 -56.0962L110.099 -58.0846L109.047 -60.0022L107.875 -61.8446L106.587 -63.6074L105.182 -65.2867L103.664 -66.879L102.036 -68.381L100.3 -69.7899L98.4621 -71.1034L96.5252 -72.3197L94.4945 -73.4374L92.3754 -74.4556L90.1734 -75.374L87.8946 -76.1927L85.5454 -76.9125L83.1322 -77.5346L80.6618 -78.0609L78.1413 -78.4937L75.5777 -78.8358L72.9782 -79.0908L70.35 -79.2625L67.7006 -79.3554L65.0369 -79.3743L62.3663 -79.3247L59.6958 -79.2124L57.0321 -79.0437L54.3821 -78.825L51.7521 -78.5634L49.1483 -78.2661L46.5766 -77.9408L44.0425 -77.5951L41.5512 -77.2372L39.1075 -76.8751L36.7157 -76.5171L34.3797 -76.1716L32.103 -75.8469L29.8886 -75.5513L27.7389 -75.2931L25.6559 -75.0806L23.6412 -74.9215L21.6956 -74.8237L19.8196 -74.7947L18.0131 -74.8416L16.2756 -74.9712L14.6058 -75.19L13.0023 -75.5036L11.463 -75.9177L9.98517 -76.4371L8.56602 -77.066L7.20202 -77.808L5.88943 -78.6661L4.624 -79.6426L3.40129 -80.7388L2.21643 -81.9558L1.06433 -83.2933L-0.0602805 -84.7507L-1.16295 -86.3262L-2.24925 -88.0174L-3.32496 -89.821L-4.39582 -91.7331L-5.46763 -93.7488L-6.54614 -95.8624L-7.63695 -98.0676L-8.74555 -100.358L-9.87729 -102.724L-11.0372 -105.16L-12.23 -107.656L-13.4602 -110.202L-14.7318 -112.791L-16.0485 -115.411L-17.4135 -118.053L-18.8298 -120.708L-20.2994 -123.367L-21.8242 -126.02L-23.4057 -128.659L-25.0449 -131.274L-26.7426 -133.856L-28.4991 -136.395L-30.3146 -138.88L-32.1886 -141.299L-34.1204 -143.64L-36.1085 -145.892L-38.1513 -148.041L-40.2463 -150.076L-42.3905 -151.986L-44.5807 -153.758L-46.8129 -155.382L-49.0827 -156.847L-51.3852 -158.146L-53.7153 -159.268L-56.0673 -160.207L-58.4354 -160.957L-60.8135 -161.511L-63.1953 -161.866L-65.5744 -162.019L-67.9444 -161.968L-70.2988 -161.713L-72.6312 -161.253L-74.9355 -160.591L-77.2055 -159.73L-79.4355 -158.674L-81.62 -157.427L-83.7539 -155.996L-85.8324 -154.389L-87.8513 -152.613L-89.8069 -150.677L-91.6957 -148.591L-93.5153 -146.366L-95.2635 -144.012L-96.9386 -141.542L-98.54 -138.967L-100.067 -136.3L-101.521 -133.555L-102.901 -130.743L-104.211 -127.878L-105.451 -124.973L-106.626 -122.041L-107.737 -119.096L-108.79 -116.15L-109.788 -113.216L-110.736 -110.304L-111.64 -107.428L-112.505 -104.599L-113.337 -101.825L-114.143 -99.1186L-114.929 -96.4874L-115.701 -93.9403L-116.467 -91.4848L-117.234 -89.1278L-118.008 -86.8751L-118.796 -84.732L-119.604 -82.7025L-120.441 -80.7901L-121.311 -78.9973L-122.222 -77.3255L-123.178 -75.7756L-124.187 -74.3474L-125.252 -73.0399L-126.378 -71.8515L-127.571 -70.7797L-128.833 -69.8212L-130.168 -68.9723L-131.58 -68.2284L-133.069 -67.5844Z" fill="#980138" fill-opacity="0.5" shape-rendering="crispEdges"/>
<path fill-rule="evenodd" clip-rule="evenodd" d="M-133.069 -67.5844L-134.638 -67.0349L-136.289 -66.5738L-138.022 -66.1948L-139.837 -65.8909L-141.734 -65.6554L-143.711 -65.4807L-145.769 -65.3597L-147.904 -65.2847L-150.115 -65.2483L-152.398 -65.2428L-154.752 -65.2607L-157.172 -65.2946L-159.654 -65.3372L-162.195 -65.3813L-164.79 -65.42L-167.435 -65.4465L-170.124 -65.4543L-172.852 -65.4371L-175.614 -65.3887L-178.404 -65.3034L-181.216 -65.1755L-184.043 -64.9993L-186.878 -64.7698L-189.717 -64.4824L-192.551 -64.1334L-195.377 -63.7195L-198.188 -63.2382L-200.979 -62.687L-203.745 -62.064L-206.48 -61.3676L-209.18 -60.5965L-211.84 -59.7498L-214.455 -58.827L-217.021 -57.8278L-219.534 -56.7522L-221.989 -55.6006L-224.383 -54.3736L-226.712 -53.0721L-228.973 -51.6972L-231.162 -50.2502L-233.277 -48.7326L-235.316 -47.1463L-237.274 -45.4931L-239.151 -43.7751L-240.945 -41.9946L-242.653 -40.1537L-244.273 -38.2552L-245.806 -36.3014L-247.248 -34.2951L-248.6 -32.239L-249.861 -30.1358L-251.029 -27.9885L-252.106 -25.7999L-253.09 -23.573L-253.981 -21.3106L-254.781 -19.0157L-255.489 -16.6914L-256.105 -14.3405L-256.632 -11.966L-257.069 -9.57077L-257.418 -7.15776L-257.68 -4.72981L-257.857 -2.28969L-257.951 0.159815L-257.964 2.61611L-257.898 5.07648L-257.755 7.53847L-257.539 9.99964L-257.251 12.4577L-256.894 14.9103L-256.473 17.3554L-255.99 19.7911L-255.448 22.2154L-254.852 24.6267L-254.204 27.0234L-253.51 29.4042L-252.773 31.7677L-251.998 34.1131L-251.187 36.4393L-250.347 38.7456L-249.481 41.0316L-248.593 43.297L-247.688 45.5416L-246.771 47.7655L-245.845 49.9689L-244.914 52.1522L-243.984 54.3161L-243.057 56.4612L-242.137 58.5885L-241.228 60.6991L-240.333 62.7942L-239.456 64.875L-238.597 66.943L-237.761 68.9996L-236.949 71.0464L-236.163 73.085L-235.403 75.117L-234.671 77.1439L-233.967 79.1673L-233.292 81.1887L-232.643 83.2095L-232.022 85.231L-231.426 87.2544L-230.853 89.2808L-230.303 91.3111L-229.772 93.3459L-229.259 95.3859L-228.76 97.4315L-228.272 99.483L-227.793 101.54L-227.321 103.604L-226.851 105.673L-226.382 107.748L-225.912 109.829L-225.439 111.915L-224.96 114.007L-224.474 116.103L-223.977 118.204L-223.465 120.307L-222.935 122.41L-222.381 124.513L-221.799 126.611L-221.183 128.702L-220.528 130.783L-219.828 132.85L-219.08 134.9L-218.278 136.928L-217.418 138.93L-216.496 140.903L-215.51 142.842L-214.455 144.744L-213.33 146.604L-212.134 148.419L-210.865 150.185L-209.522 151.9L-208.106 153.56L-206.618 155.162L-205.058 156.704L-203.427 158.184L-201.729 159.599L-199.965 160.95L-198.138 162.234L-196.252 163.452L-194.31 164.602L-192.315 165.685L-190.273 166.702L-188.187 167.653L-186.061 168.539L-183.901 169.363L-181.711 170.126L-179.495 170.83L-177.258 171.478L-175.005 172.074L-172.74 172.619L-170.468 173.117L-168.193 173.573L-165.92 173.989L-163.653 174.37L-161.395 174.721L-159.15 175.044L-156.922 175.345L-154.714 175.629L-152.528 175.899L-150.368 176.16L-148.237 176.418L-146.135 176.676L-144.065 176.938L-142.029 177.211L-140.027 177.497L-138.061 177.801L-136.132 178.128L-134.239 178.48L-132.383 178.863L-130.564 179.279L-128.781 179.731L-127.033 180.224L-125.319 180.758L-123.638 181.338L-121.989 181.965L-120.37 182.64L-118.778 183.366L-117.212 184.144L-115.669 184.973L-114.146 185.855L-112.642 186.789L-111.154 187.775L-109.677 188.812L-108.211 189.899L-106.751 191.033L-105.295 192.214L-103.839 193.437L-102.382 194.701L-100.919 196.001L-99.4474 197.335L-97.9656 198.698L-96.4702 200.086L-94.9589 201.493L-93.4292 202.916L-91.8791 204.349L-90.3065 205.787L-88.7098 207.224L-87.0875 208.655L-85.4383 210.074L-83.7613 211.476L-82.0556 212.855L-80.3209 214.206L-78.557 215.525L-76.7641 216.807L-74.9426 218.049L-73.0934 219.249L-71.2172 220.407L-69.3152 221.523L-67.3884 222.596L-65.4378 223.627L-63.4646 224.619L-61.4697 225.573L-59.454 226.49L-57.4183 227.374L-55.3633 228.226L-53.2896 229.05L-51.1977 229.846L-49.0879 230.618L-46.9604 231.368L-44.8154 232.098L-42.6528 232.81L-40.4727 233.506L-38.2749 234.186L-36.0592 234.853L-33.8254 235.508L-31.5731 236.151L-29.3022 236.782L-27.0122 237.403L-24.7029 238.013L-22.3741 238.612L-20.0256 239.199L-17.6571 239.774L-15.2685 240.336L-12.8599 240.883L-10.4314 241.414L-7.98299 241.928L-5.51508 242.422L-3.02808 242.894L-0.522528 243.342L2.00086 243.764L4.54124 244.157L7.09757 244.518L9.66865 244.844L12.2531 245.132L14.8493 245.379L17.4556 245.582L20.0699 245.737L22.6901 245.84L25.3138 245.888L27.9384 245.878L30.5612 245.806L33.1791 245.668L35.7888 245.46L38.3871 245.18L40.9703 244.822L43.5344 244.385L46.0757 243.864L48.5898 243.257L51.0725 242.56L53.5193 241.77L55.9255 240.885L58.2866 239.901L60.5976 238.818L62.8537 237.632L65.0501 236.342L67.1818 234.947L69.244 233.446L71.2318 231.838L73.1405 230.122L74.9656 228.3L76.7026 226.372L78.3473 224.338L79.8957 222.2L81.3442 219.961L82.6894 217.623L83.9284 215.188L85.0585 212.661L86.0777 210.045L86.9842 207.345L87.7771 204.565L88.4557 201.712L89.02 198.789L89.4706 195.805L89.8087 192.764L90.0362 189.675L90.1554 186.543L90.1694 183.377L90.0819 180.182L89.897 176.968L89.6195 173.741L89.2547 170.509L88.808 167.279L88.2857 164.058L87.6938 160.853L87.0387 157.67L86.3266 154.514L85.5633 151.392L84.7544 148.307L83.9053 145.264L83.021 142.265L82.1065 139.313L81.1668 136.412L80.2063 133.563L79.2299 130.769L78.2419 128.031L77.2468 125.35L76.249 122.728L75.2528 120.166L74.2624 117.664L73.2822 115.222L72.3162 112.841L71.3685 110.522L70.4431 108.263L69.544 106.065L68.675 103.927L67.8397 101.848L67.0418 99.8282L66.2847 97.8655L65.5717 95.9588L64.9057 94.1069L64.2898 92.3079L63.7265 90.5603L63.2183 88.8619L62.7674 87.2107L62.3756 85.6045L62.0446 84.0409L61.7758 82.5173L61.5703 81.0312L61.4288 79.5799L61.3518 78.1607L61.3395 76.7706L61.3918 75.4069L61.5083 74.0666L61.6884 72.7469L61.931 71.4447L62.235 70.1574L62.599 68.8819L63.0213 67.6156L63.5 66.3556L64.0331 65.0993L64.6184 63.8441L65.2536 62.5876L65.9361 61.3273L66.6635 60.0611L67.4331 58.7867L68.2423 57.5021L69.0884 56.2055L69.9688 54.895L70.8808 53.569L71.8218 52.2259L72.7893 50.8643L73.7809 49.4829L74.7943 48.0804L75.8273 46.6559L76.8777 45.2081L77.9435 43.7362L79.023 42.2394L80.1144 40.7167L81.2162 39.1675L82.3267 37.5911L83.4448 35.9868L84.569 34.354L85.6983 32.6922L86.8314 31.0007L87.9673 29.2791L89.105 27.5269L90.2433 25.7437L91.3811 23.9289L92.5174 22.0823L93.6508 20.2035L94.7801 18.2921L95.9038 16.3481L97.0202 14.3712L98.1276 12.3615L99.2241 10.319L100.307 8.24375L101.375 6.13623L102.425 3.99685L103.454 1.82622L104.46 -0.374855L105.438 -2.60544L106.387 -4.86435L107.302 -7.15029L108.18 -9.46179L109.019 -11.7972L109.814 -14.1546L110.561 -16.5322L111.258 -18.9274L111.898 -21.337L112.476 -23.7573L112.985 -26.1844L113.419 -28.6137L113.773 -31.0406L114.041 -33.4604L114.217 -35.8679L114.298 -38.258L114.278 -40.6252L114.153 -42.9641L113.92 -45.2693L113.574 -47.5351L113.115 -49.7562L112.539 -51.9269L111.845 -54.042L111.032 -56.0962L110.099 -58.0846L109.047 -60.0022L107.875 -61.8446L106.587 -63.6074L105.182 -65.2867L103.664 -66.879L102.036 -68.381L100.3 -69.7899L98.4621 -71.1034L96.5252 -72.3197L94.4945 -73.4374L92.3754 -74.4556L90.1734 -75.374L87.8946 -76.1927L85.5454 -76.9125L83.1322 -77.5346L80.6618 -78.0609L78.1413 -78.4937L75.5777 -78.8358L72.9782 -79.0908L70.35 -79.2625L67.7006 -79.3554L65.0369 -79.3743L62.3663 -79.3247L59.6958 -79.2124L57.0321 -79.0437L54.3821 -78.825L51.7521 -78.5634L49.1483 -78.2661L46.5766 -77.9408L44.0425 -77.5951L41.5512 -77.2372L39.1075 -76.8751L36.7157 -76.5171L34.3797 -76.1716L32.103 -75.8469L29.8886 -75.5513L27.7389 -75.2931L25.6559 -75.0806L23.6412 -74.9215L21.6956 -74.8237L19.8196 -74.7947L18.0131 -74.8416L16.2756 -74.9712L14.6058 -75.19L13.0023 -75.5036L11.463 -75.9177L9.98517 -76.4371L8.56602 -77.066L7.20202 -77.808L5.88943 -78.6661L4.624 -79.6426L3.40129 -80.7388L2.21643 -81.9558L1.06433 -83.2933L-0.0602805 -84.7507L-1.16295 -86.3262L-2.24925 -88.0174L-3.32496 -89.821L-4.39582 -91.7331L-5.46763 -93.7488L-6.54614 -95.8624L-7.63695 -98.0676L-8.74555 -100.358L-9.87729 -102.724L-11.0372 -105.16L-12.23 -107.656L-13.4602 -110.202L-14.7318 -112.791L-16.0485 -115.411L-17.4135 -118.053L-18.8298 -120.708L-20.2994 -123.367L-21.8242 -126.02L-23.4057 -128.659L-25.0449 -131.274L-26.7426 -133.856L-28.4991 -136.395L-30.3146 -138.88L-32.1886 -141.299L-34.1204 -143.64L-36.1085 -145.892L-38.1513 -148.041L-40.2463 -150.076L-42.3905 -151.986L-44.5807 -153.758L-46.8129 -155.382L-49.0827 -156.847L-51.3852 -158.146L-53.7153 -159.268L-56.0673 -160.207L-58.4354 -160.957L-60.8135 -161.511L-63.1953 -161.866L-65.5744 -162.019L-67.9444 -161.968L-70.2988 -161.713L-72.6312 -161.253L-74.9355 -160.591L-77.2055 -159.73L-79.4355 -158.674L-81.62 -157.427L-83.7539 -155.996L-85.8324 -154.389L-87.8513 -152.613L-89.8069 -150.677L-91.6957 -148.591L-93.5153 -146.366L-95.2635 -144.012L-96.9386 -141.542L-98.54 -138.967L-100.067 -136.3L-101.521 -133.555L-102.901 -130.743L-104.211 -127.878L-105.451 -124.973L-106.626 -122.041L-107.737 -119.096L-108.79 -116.15L-109.788 -113.216L-110.736 -110.304L-111.64 -107.428L-112.505 -104.599L-113.337 -101.825L-114.143 -99.1186L-114.929 -96.4874L-115.701 -93.9403L-116.467 -91.4848L-117.234 -89.1278L-118.008 -86.8751L-118.796 -84.732L-119.604 -82.7025L-120.441 -80.7901L-121.311 -78.9973L-122.222 -77.3255L-123.178 -75.7756L-124.187 -74.3474L-125.252 -73.0399L-126.378 -71.8515L-127.571 -70.7797L-128.833 -69.8212L-130.168 -68.9723L-131.58 -68.2284L-133.069 -67.5844Z" stroke="black" shape-rendering="crispEdges"/>
</g>
<g filter="url(#filter3_d_187_20)">
<path fill-rule="evenodd" clip-rule="evenodd" d="M-44.668 -50.5717L-43.9019 -49.2761L-43.1751 -47.9994L-42.4886 -46.7395L-41.8425 -45.4946L-41.2371 -44.2625L-40.672 -43.0415L-40.1466 -41.8295L-39.66 -40.6247L-39.211 -39.4254L-38.7981 -38.2299L-38.4197 -37.0366L-38.0735 -35.8441L-37.7575 -34.6511L-37.4687 -33.4565L-37.2038 -32.2594L-36.9593 -31.0593L-36.731 -29.8557L-36.5148 -28.6486L-36.3062 -27.4381L-36.1007 -26.2246L-35.8937 -25.0088L-35.6807 -23.7917L-35.4571 -22.5743L-35.2189 -21.3579L-34.962 -20.144L-34.6827 -18.9342L-34.3778 -17.7301L-34.0444 -16.5335L-33.6801 -15.346L-33.2833 -14.1692L-32.8527 -13.0046L-32.3872 -11.8537L-31.8863 -10.718L-31.3495 -9.59875L-30.7767 -8.49737L-30.168 -7.41502L-29.5238 -6.35283L-28.8448 -5.31176L-28.1318 -4.29266L-27.3859 -3.29619L-26.6087 -2.32288L-25.8015 -1.37303L-24.9663 -0.446824L-24.105 0.455828L-23.2197 1.33517L-22.3127 2.19173L-21.3864 3.02617L-20.4433 3.8394L-19.486 4.63259L-18.5172 5.40707L-17.5395 6.16437L-16.5556 6.90627L-15.5682 7.63466L-14.5797 8.35167L-13.5929 9.05951L-12.61 9.7606L-11.6335 10.4575L-10.6654 11.1527L-9.70782 11.849L-8.76254 12.5492L-7.83124 13.256L-6.91536 13.9722L-6.01613 14.7008L-5.13459 15.4445L-4.27148 16.206L-3.42741 16.9881L-2.60269 17.7934L-1.79738 18.6243L-1.01135 19.4833L-0.244196 20.3725L0.50464 21.2941L1.23602 22.2499L1.95096 23.2417L2.65069 24.2709L3.33665 25.3388L4.01044 26.4464L4.67384 27.5946L5.32875 28.784L5.97724 30.0147L6.62148 31.2869L7.26373 32.6003L7.90638 33.9544L8.55184 35.3486L9.2026 36.7817L9.86117 38.2524L10.5301 39.7593L11.2118 41.3006L11.9089 42.8743L12.6238 44.4781L13.3588 46.1096L14.1164 47.7662L14.8987 49.445L15.7079 51.143L16.5459 52.8571L17.4147 54.5842L18.3159 56.321L19.2509 58.0643L20.2213 59.8109L21.2281 61.5576L22.2724 63.301L23.3552 65.0379L24.4771 66.7649L25.6387 68.4785L26.8406 70.1754L28.0829 71.8519L29.366 73.5046L30.6898 75.1298L32.0542 76.7236L33.4589 78.2823L34.9034 79.802L36.3872 81.2786L37.9095 82.7079L39.4694 84.0858L41.0657 85.4084L42.6971 86.6719L44.3621 87.8727L46.0588 89.0075L47.7856 90.0734L49.5403 91.0673L51.3209 91.9868L53.1251 92.8296L54.9504 93.5939L56.7947 94.278L58.6551 94.8807L60.5294 95.4008L62.4148 95.838L64.3088 96.1918L66.2089 96.4626L68.1126 96.6507L70.0172 96.7569L71.9206 96.7826L73.8204 96.7291L75.7143 96.5984L77.6004 96.3927L79.4768 96.1144L81.3416 95.7662L83.1934 95.3512L85.0307 94.8725L86.8524 94.3336L88.6574 93.738L90.445 93.0896L92.2147 92.3921L93.9659 91.6495L95.6987 90.8657L97.4129 90.0449L99.109 89.191L100.787 88.3079L102.448 87.3997L104.093 86.4702L105.723 85.523L107.338 84.5618L108.941 83.5899L110.531 82.6108L112.112 81.6272L113.684 80.6422L115.25 79.6581L116.81 78.6775L118.367 77.7022L119.922 76.7342L121.477 75.7747L123.034 74.8251L124.594 73.8861L126.159 72.9584L127.73 72.0422L129.308 71.1373L130.894 70.2435L132.49 69.3598L134.096 68.4855L135.712 67.6191L137.339 66.7591L138.977 65.9039L140.625 65.0514L142.283 64.1994L143.951 63.3456L145.627 62.4876L147.31 61.6228L148.999 60.7486L150.692 59.8622L152.387 58.9612L154.082 58.0427L155.775 57.1043L157.463 56.1432L159.144 55.157L160.815 54.1434L162.473 53.1001L164.115 52.025L165.738 50.9163L167.339 49.7722L168.915 48.5913L170.464 47.3724L171.981 46.1146L173.464 44.8173L174.912 43.4801L176.32 42.1029L177.688 40.6858L179.012 39.2289L180.29 37.7326L181.52 36.1974L182.7 34.6238L183.827 33.0128L184.9 31.3652L185.917 29.6821L186.876 27.9649L187.777 26.215L188.616 24.4338L189.395 22.6232L190.111 20.7847L190.764 18.9206L191.355 17.0327L191.882 15.1234L192.346 13.1947L192.749 11.2491L193.09 9.28884L193.371 7.31638L193.593 5.33417L193.759 3.34458L193.87 1.35001L193.929 -0.647181L193.937 -2.64476L193.899 -4.64048L193.817 -6.63226L193.694 -8.61813L193.535 -10.5962L193.341 -12.5648L193.119 -14.5225L192.87 -16.4677L192.6 -18.3994L192.312 -20.3166L192.01 -22.2185L191.699 -24.1045L191.383 -25.9742L191.066 -27.8275L190.752 -29.6644L190.444 -31.4853L190.147 -33.2905L189.864 -35.0807L189.598 -36.8569L189.353 -38.62L189.132 -40.3713L188.937 -42.1122L188.771 -43.8441L188.636 -45.5686L188.533 -47.2876L188.463 -49.0028L188.428 -50.7161L188.429 -52.4295L188.464 -54.1449L188.535 -55.8641L188.639 -57.5892L188.776 -59.3218L188.945 -61.0638L189.143 -62.8167L189.368 -64.5821L189.616 -66.3612L189.886 -68.1552L190.173 -69.9651L190.473 -71.7916L190.782 -73.635L191.095 -75.4955L191.407 -77.3728L191.71 -79.2663L191.999 -81.175L192.268 -83.0974L192.51 -85.0318L192.717 -86.9762L192.884 -88.9279L193.004 -90.8841L193.07 -92.8417L193.077 -94.7972L193.018 -96.747L192.888 -98.6872L192.682 -100.614L192.397 -102.523L192.029 -104.41L191.574 -106.271L191.031 -108.103L190.398 -109.9L189.673 -111.659L188.855 -113.376L187.944 -115.046L186.939 -116.667L185.841 -118.233L184.65 -119.743L183.369 -121.191L182 -122.576L180.543 -123.895L179.003 -125.145L177.382 -126.323L175.685 -127.429L173.915 -128.461L172.077 -129.418L170.175 -130.299L168.216 -131.105L166.204 -131.835L164.144 -132.491L162.044 -133.074L159.908 -133.586L157.743 -134.029L155.556 -134.405L153.352 -134.718L151.138 -134.971L148.92 -135.169L146.704 -135.315L144.496 -135.414L142.302 -135.472L140.127 -135.494L137.976 -135.484L135.856 -135.45L133.769 -135.396L131.721 -135.33L129.715 -135.258L127.756 -135.185L125.846 -135.119L123.987 -135.065L122.183 -135.03L120.434 -135.02L118.743 -135.041L117.109 -135.099L115.534 -135.199L114.017 -135.347L112.557 -135.548L111.154 -135.806L109.805 -136.126L108.51 -136.51L107.266 -136.963L106.069 -137.487L104.917 -138.084L103.807 -138.756L102.734 -139.503L101.696 -140.327L100.687 -141.227L99.7039 -142.201L98.7416 -143.25L97.7957 -144.371L96.8617 -145.56L95.9348 -146.816L95.0106 -148.134L94.0844 -149.51L93.1519 -150.939L92.2089 -152.417L91.2514 -153.938L90.2757 -155.497L89.2782 -157.087L88.2556 -158.703L87.2051 -160.338L86.1239 -161.986L85.0098 -163.64L83.8606 -165.294L82.6749 -166.942L81.4511 -168.577L80.1885 -170.192L78.8864 -171.782L77.5444 -173.341L76.1628 -174.864L74.7418 -176.345L73.2822 -177.781L71.7848 -179.167L70.2507 -180.499L68.6813 -181.774L67.0781 -182.988L65.4427 -184.137L63.7769 -185.219L62.0826 -186.231L60.3621 -187.17L58.6175 -188.033L56.851 -188.82L55.0652 -189.528L53.2625 -190.156L51.4453 -190.703L49.6162 -191.168L47.7778 -191.552L45.9326 -191.854L44.083 -192.075L42.2314 -192.215L40.3803 -192.276L38.5319 -192.26L36.6883 -192.167L34.8516 -192.001L33.0235 -191.764L31.2059 -191.458L29.4002 -191.086L27.6079 -190.652L25.8301 -190.159L24.0677 -189.611L22.3215 -189.01L20.592 -188.362L18.8797 -187.669L17.1847 -186.936L15.5068 -186.167L13.8458 -185.366L12.2013 -184.536L10.5725 -183.682L8.95871 -182.807L7.35886 -181.915L5.7718 -181.01L4.19626 -180.095L2.6308 -179.174L1.07394 -178.248L-0.475957 -177.322L-2.02055 -176.397L-3.56155 -175.476L-5.10069 -174.561L-6.63971 -173.654L-8.18029 -172.756L-9.72414 -171.868L-11.2728 -170.992L-12.8278 -170.127L-14.3905 -169.273L-15.9622 -168.431L-17.5439 -167.6L-19.1364 -166.78L-20.7406 -165.969L-22.3569 -165.166L-23.9855 -164.369L-25.6265 -163.577L-27.2796 -162.788L-28.9443 -161.999L-30.62 -161.208L-32.3057 -160.412L-33.9999 -159.609L-35.7009 -158.796L-37.4063 -157.969L-39.1136 -157.125L-40.8197 -156.26L-42.5211 -155.371L-44.2141 -154.454L-45.8948 -153.505L-47.559 -152.521L-49.2022 -151.499L-50.8199 -150.437L-52.4075 -149.331L-53.9605 -148.178L-55.4742 -146.979L-56.9442 -145.729L-58.3662 -144.43L-59.736 -143.079L-61.0498 -141.677L-62.304 -140.224L-63.4952 -138.719L-64.62 -137.165L-65.6753 -135.562L-66.6583 -133.91L-67.5663 -132.213L-68.3969 -130.47L-69.1479 -128.685L-69.8175 -126.86L-70.4042 -124.996L-70.9067 -123.097L-71.3242 -121.165L-71.656 -119.204L-71.9019 -117.216L-72.0622 -115.204L-72.1372 -113.173L-72.1278 -111.125L-72.0354 -109.063L-71.8614 -106.992L-71.6078 -104.915L-71.277 -102.835L-70.8714 -100.755L-70.394 -98.6798L-69.8481 -96.6116L-69.2371 -94.5538L-68.5646 -92.5094L-67.8347 -90.4814L-67.0515 -88.4724L-66.2193 -86.4851L-65.3425 -84.5216L-64.4257 -82.5842L-63.4736 -80.6748L-62.491 -78.7951L-61.4825 -76.9464L-60.453 -75.1302L-59.4073 -73.3472L-58.35 -71.5982L-57.2858 -69.8839L-56.2193 -68.2043L-55.1549 -66.5596L-54.0969 -64.9496L-53.0494 -63.3738L-52.0164 -61.8317L-51.0016 -60.3224L-50.0085 -58.8449L-49.0404 -57.398L-48.1002 -55.9805L-47.1905 -54.5907L-46.314 -53.2272L-45.4726 -51.8881L-44.668 -50.5717Z" fill="#FCE1CC" fill-opacity="0.5" shape-rendering="crispEdges"/>
</g>
<g opacity="0.29">
<path d="M1646.13 169.665L1516.1 169.665M1386.07 71.7937L1386.07 169.665L1516.1 169.665M1386.07 71.7937L1186.73 71.7937M1386.07 71.7937L1324.35 133.513M1186.73 195.232L1262.63 195.232L1324.35 133.513M1516.1 169.665L1452.38 233.382L1186.73 233.382M1324.35 133.513L1238.26 133.513" stroke="#980138" stroke-width="5" stroke-linecap="round" stroke-linejoin="round"/>
<circle cx="1186.73" cy="71.7937" r="4.79371" transform="rotate(90 1186.73 71.7937)" fill="#980138"/>
<circle cx="1237.06" cy="133.313" r="4.79371" transform="rotate(90 1237.06 133.313)" fill="#980138"/>
<circle cx="1289.4" cy="111.342" r="4.39424" transform="rotate(90 1289.4 111.342)" fill="#F28C8F"/>
<circle cx="1264.63" cy="274.328" r="4.39424" transform="rotate(90 1264.63 274.328)" fill="#F28C8F"/>
<circle cx="1187.53" cy="195.631" r="4.79371" transform="rotate(90 1187.53 195.631)" fill="#980138"/>
<circle cx="1138.39" cy="169.665" r="4.39424" transform="rotate(90 1138.39 169.665)" fill="#F28C8F"/>
<circle cx="1186.73" cy="233.182" r="4.79371" transform="rotate(90 1186.73 233.182)" fill="#980138"/>
<path d="M1386.47 169.665L1137.6 169.665M1386.47 169.665L1444.79 111.342M1386.47 169.665L1386.47 274.328L1265.43 274.328M1444.79 111.342L1289.8 111.342M1444.79 111.342L1526.29 111.342" stroke="#F28C8F" stroke-width="5" stroke-linecap="round" stroke-linejoin="round"/>
</g>
<g filter="url(#filter4_d_187_20)">
<path fill-rule="evenodd" clip-rule="evenodd" d="M1375.33 488.198L1376.86 488.706L1378.36 489.175L1379.85 489.602L1381.32 489.989L1382.77 490.333L1384.21 490.636L1385.63 490.898L1387.04 491.118L1388.44 491.299L1389.84 491.44L1391.23 491.545L1392.62 491.613L1394.01 491.648L1395.39 491.652L1396.78 491.626L1398.17 491.575L1399.57 491.499L1400.97 491.403L1402.37 491.289L1403.78 491.161L1405.2 491.022L1406.63 490.875L1408.06 490.724L1409.5 490.572L1410.95 490.423L1412.41 490.279L1413.88 490.145L1415.35 490.023L1416.83 489.917L1418.32 489.83L1419.81 489.765L1421.3 489.724L1422.8 489.711L1424.29 489.728L1425.79 489.777L1427.29 489.86L1428.78 489.979L1430.27 490.136L1431.76 490.332L1433.23 490.568L1434.71 490.846L1436.17 491.164L1437.62 491.525L1439.05 491.927L1440.48 492.372L1441.89 492.859L1443.28 493.387L1444.66 493.957L1446.02 494.568L1447.36 495.219L1448.69 495.91L1449.99 496.64L1451.27 497.408L1452.52 498.213L1453.76 499.054L1454.97 499.93L1456.15 500.839L1457.31 501.781L1458.45 502.754L1459.56 503.756L1460.65 504.786L1461.71 505.843L1462.74 506.924L1463.75 508.03L1464.73 509.157L1465.69 510.305L1466.62 511.472L1467.53 512.655L1468.42 513.855L1469.28 515.069L1470.12 516.296L1470.93 517.534L1471.73 518.782L1472.5 520.038L1473.25 521.302L1473.99 522.571L1474.7 523.845L1475.4 525.122L1476.08 526.402L1476.75 527.683L1477.4 528.964L1478.04 530.244L1478.66 531.523L1479.28 532.799L1479.88 534.073L1480.48 535.342L1481.07 536.607L1481.65 537.867L1482.22 539.122L1482.79 540.371L1483.36 541.614L1483.93 542.85L1484.49 544.08L1485.05 545.303L1485.62 546.518L1486.19 547.726L1486.76 548.927L1487.34 550.119L1487.93 551.303L1488.52 552.479L1489.13 553.646L1489.75 554.806L1490.39 555.957L1491.04 557.1L1491.72 558.235L1492.41 559.363L1493.12 560.484L1493.86 561.599L1494.63 562.708L1495.42 563.812L1496.24 564.912L1497.09 566.008L1497.97 567.103L1498.88 568.196L1499.83 569.289L1500.82 570.383L1501.83 571.481L1502.89 572.582L1503.98 573.689L1505.12 574.803L1506.29 575.925L1507.49 577.058L1508.74 578.203L1510.03 579.362L1511.35 580.536L1512.71 581.727L1514.11 582.938L1515.54 584.169L1517.01 585.423L1518.51 586.701L1520.05 588.005L1521.61 589.337L1523.21 590.698L1524.83 592.089L1526.48 593.514L1528.15 594.972L1529.84 596.465L1531.55 597.995L1533.27 599.562L1535.01 601.169L1536.76 602.814L1538.52 604.501L1540.28 606.229L1542.04 607.998L1543.8 609.81L1545.55 611.665L1547.29 613.563L1549.02 615.504L1550.74 617.487L1552.43 619.514L1554.1 621.583L1555.75 623.693L1557.36 625.845L1558.94 628.038L1560.49 630.27L1561.99 632.54L1563.45 634.848L1564.87 637.191L1566.23 639.569L1567.54 641.98L1568.8 644.422L1569.99 646.894L1571.13 649.392L1572.2 651.917L1573.2 654.465L1574.13 657.033L1575 659.621L1575.79 662.226L1576.5 664.844L1577.14 667.475L1577.7 670.115L1578.17 672.761L1578.57 675.412L1578.89 678.065L1579.12 680.718L1579.27 683.367L1579.34 686.01L1579.32 688.646L1579.22 691.271L1579.04 693.883L1578.77 696.48L1578.42 699.061L1577.99 701.622L1577.48 704.163L1576.9 706.682L1576.23 709.177L1575.5 711.648L1574.69 714.092L1573.81 716.51L1572.87 718.9L1571.86 721.262L1570.79 723.596L1569.65 725.901L1568.47 728.177L1567.23 730.424L1565.94 732.643L1564.6 734.834L1563.21 736.998L1561.79 739.135L1560.32 741.245L1558.81 743.33L1557.27 745.391L1555.7 747.428L1554.1 749.442L1552.47 751.435L1550.81 753.408L1549.12 755.361L1547.42 757.296L1545.69 759.214L1543.94 761.115L1542.17 763.001L1540.39 764.872L1538.58 766.729L1536.76 768.573L1534.93 770.403L1533.07 772.22L1531.2 774.025L1529.31 775.816L1527.41 777.595L1525.49 779.36L1523.55 781.111L1521.59 782.849L1519.62 784.571L1517.63 786.279L1515.62 787.971L1513.59 789.646L1511.54 791.303L1509.47 792.942L1507.39 794.562L1505.28 796.161L1503.15 797.738L1501 799.292L1498.83 800.821L1496.63 802.326L1494.42 803.803L1492.18 805.251L1489.92 806.67L1487.63 808.057L1485.33 809.411L1483 810.731L1480.65 812.015L1478.28 813.261L1475.88 814.469L1473.46 815.636L1471.03 816.761L1468.57 817.844L1466.09 818.881L1463.59 819.873L1461.08 820.817L1458.54 821.713L1455.99 822.56L1453.42 823.356L1450.83 824.101L1448.24 824.794L1445.62 825.433L1443 826.019L1440.36 826.55L1437.71 827.026L1435.06 827.446L1432.39 827.811L1429.72 828.12L1427.05 828.373L1424.37 828.569L1421.68 828.709L1419 828.794L1416.31 828.822L1413.63 828.795L1410.95 828.714L1408.27 828.577L1405.59 828.387L1402.92 828.143L1400.26 827.847L1397.61 827.499L1394.96 827.101L1392.33 826.652L1389.71 826.154L1387.1 825.608L1384.5 825.016L1381.92 824.377L1379.35 823.694L1376.8 822.967L1374.26 822.198L1371.74 821.387L1369.24 820.537L1366.76 819.647L1364.3 818.72L1361.85 817.757L1359.43 816.759L1357.03 815.726L1354.64 814.662L1352.28 813.565L1349.94 812.439L1347.62 811.284L1345.33 810.102L1343.05 808.893L1340.8 807.659L1338.57 806.402L1336.36 805.123L1334.17 803.822L1332.01 802.502L1329.86 801.163L1327.74 799.808L1325.64 798.437L1323.56 797.052L1321.5 795.654L1319.45 794.245L1317.43 792.826L1315.42 791.398L1313.43 789.962L1311.46 788.519L1309.5 787.07L1307.56 785.617L1305.64 784.16L1303.72 782.7L1301.82 781.237L1299.94 779.772L1298.06 778.306L1296.19 776.839L1294.34 775.372L1292.49 773.904L1290.65 772.437L1288.82 770.97L1287 769.504L1285.18 768.038L1283.37 766.572L1281.56 765.107L1279.76 763.642L1277.96 762.177L1276.16 760.712L1274.37 759.245L1272.58 757.778L1270.79 756.309L1269 754.838L1267.22 753.365L1265.43 751.888L1263.65 750.407L1261.87 748.921L1260.09 747.43L1258.3 745.933L1256.53 744.429L1254.75 742.917L1252.97 741.397L1251.2 739.867L1249.43 738.326L1247.66 736.774L1245.89 735.21L1244.13 733.633L1242.38 732.042L1240.62 730.436L1238.88 728.814L1237.14 727.176L1235.41 725.519L1233.69 723.845L1231.98 722.151L1230.29 720.437L1228.6 718.702L1226.93 716.947L1225.27 715.169L1223.63 713.37L1222.01 711.547L1220.4 709.702L1218.81 707.834L1217.25 705.941L1215.7 704.025L1214.18 702.086L1212.68 700.122L1211.21 698.134L1209.76 696.121L1208.34 694.085L1206.95 692.025L1205.59 689.94L1204.26 687.832L1202.96 685.701L1201.7 683.546L1200.47 681.367L1199.27 679.167L1198.12 676.944L1197 674.699L1195.92 672.433L1194.88 670.146L1193.88 667.839L1192.93 665.512L1192.02 663.167L1191.15 660.803L1190.33 658.422L1189.56 656.025L1188.83 653.612L1188.16 651.185L1187.53 648.743L1186.95 646.29L1186.43 643.824L1185.95 641.348L1185.52 638.862L1185.15 636.369L1184.83 633.867L1184.56 631.36L1184.34 628.848L1184.18 626.333L1184.07 623.814L1184 621.294L1183.99 618.774L1184.03 616.255L1184.12 613.738L1184.26 611.224L1184.45 608.714L1184.69 606.21L1184.97 603.711L1185.3 601.22L1185.68 598.737L1186.1 596.262L1186.56 593.798L1187.06 591.343L1187.61 588.9L1188.19 586.469L1188.81 584.05L1189.47 581.644L1190.16 579.251L1190.88 576.871L1191.63 574.506L1192.42 572.154L1193.23 569.817L1194.07 567.495L1194.94 565.187L1195.83 562.894L1196.75 560.615L1197.68 558.35L1198.64 556.1L1199.61 553.864L1200.6 551.641L1201.61 549.433L1202.64 547.237L1203.68 545.055L1204.74 542.885L1205.81 540.728L1206.89 538.583L1207.99 536.45L1209.09 534.329L1210.21 532.219L1211.35 530.121L1212.49 528.033L1213.65 525.956L1214.81 523.891L1216 521.836L1217.19 519.793L1218.4 517.761L1219.62 515.742L1220.86 513.736L1222.12 511.743L1223.4 509.765L1224.7 507.804L1226.02 505.859L1227.37 503.934L1228.75 502.029L1230.15 500.146L1231.58 498.287L1233.04 496.454L1234.54 494.649L1236.07 492.875L1237.64 491.134L1239.24 489.428L1240.88 487.759L1242.57 486.132L1244.29 484.547L1246.06 483.007L1247.87 481.516L1249.72 480.075L1251.62 478.688L1253.55 477.356L1255.54 476.083L1257.56 474.87L1259.63 473.719L1261.74 472.633L1263.89 471.614L1266.07 470.663L1268.3 469.781L1270.56 468.97L1272.86 468.231L1275.18 467.564L1277.54 466.971L1279.92 466.45L1282.33 466.002L1284.76 465.628L1287.2 465.325L1289.67 465.095L1292.14 464.935L1294.63 464.846L1297.13 464.825L1299.63 464.872L1302.13 464.985L1304.63 465.161L1307.12 465.399L1309.61 465.698L1312.1 466.053L1314.57 466.464L1317.02 466.927L1319.46 467.439L1321.88 467.997L1324.28 468.599L1326.65 469.241L1329 469.92L1331.32 470.632L1333.61 471.375L1335.88 472.143L1338.11 472.934L1340.3 473.745L1342.47 474.571L1344.6 475.408L1346.69 476.254L1348.74 477.105L1350.76 477.956L1352.74 478.805L1354.69 479.648L1356.59 480.482L1358.46 481.303L1360.3 482.108L1362.1 482.895L1363.86 483.659L1365.59 484.4L1367.29 485.113L1368.96 485.797L1370.59 486.45L1372.2 487.069L1373.78 487.652L1375.33 488.198Z" fill="#980138" fill-opacity="0.5" shape-rendering="crispEdges"/>
</g>
<g filter="url(#filter5_d_187_20)">
<path fill-rule="evenodd" clip-rule="evenodd" d="M1391.42 460.439L1392.58 458.959L1393.72 457.387L1394.82 455.721L1395.9 453.962L1396.95 452.111L1397.99 450.171L1399.02 448.142L1400.04 446.027L1401.05 443.83L1402.06 441.553L1403.08 439.201L1404.11 436.778L1405.15 434.288L1406.21 431.739L1407.29 429.134L1408.4 426.481L1409.55 423.786L1410.72 421.056L1411.93 418.297L1413.19 415.518L1414.49 412.724L1415.83 409.924L1417.23 407.125L1418.67 404.334L1420.17 401.557L1421.73 398.801L1423.34 396.073L1425 393.379L1426.72 390.727L1428.5 388.123L1430.33 385.574L1432.22 383.085L1434.17 380.662L1436.17 378.312L1438.22 376.039L1440.33 373.848L1442.49 371.745L1444.69 369.734L1446.94 367.819L1449.24 366.004L1451.58 364.292L1453.96 362.687L1456.38 361.193L1458.83 359.81L1461.31 358.543L1463.82 357.392L1466.36 356.359L1468.92 355.446L1471.49 354.653L1474.09 353.98L1476.69 353.429L1479.31 352.998L1481.94 352.687L1484.56 352.495L1487.19 352.421L1489.81 352.464L1492.43 352.621L1495.04 352.89L1497.64 353.269L1500.23 353.755L1502.8 354.345L1505.35 355.037L1507.88 355.825L1510.39 356.708L1512.88 357.68L1515.34 358.739L1517.77 359.879L1520.17 361.096L1522.54 362.387L1524.88 363.746L1527.19 365.169L1529.47 366.652L1531.71 368.189L1533.92 369.776L1536.1 371.409L1538.24 373.082L1540.35 374.792L1542.43 376.533L1544.48 378.301L1546.49 380.092L1548.48 381.902L1550.44 383.726L1552.37 385.561L1554.27 387.403L1556.15 389.248L1558.01 391.093L1559.84 392.934L1561.65 394.769L1563.44 396.596L1565.22 398.41L1566.98 400.211L1568.73 401.996L1570.46 403.764L1572.18 405.512L1573.9 407.24L1575.6 408.947L1577.3 410.633L1579 412.296L1580.69 413.937L1582.38 415.557L1584.07 417.154L1585.75 418.731L1587.44 420.289L1589.13 421.828L1590.81 423.35L1592.5 424.857L1594.18 426.351L1595.87 427.834L1597.55 429.308L1599.23 430.776L1600.91 432.241L1602.58 433.705L1604.25 435.172L1605.9 436.643L1607.55 438.123L1609.18 439.614L1610.8 441.119L1612.4 442.64L1613.98 444.181L1615.54 445.743L1617.07 447.329L1618.57 448.942L1620.05 450.581L1621.49 452.25L1622.89 453.947L1624.26 455.675L1625.59 457.431L1626.89 459.216L1628.14 461.029L1629.36 462.868L1630.54 464.735L1631.67 466.628L1632.76 468.548L1633.81 470.495L1634.8 472.469L1635.75 474.471L1636.65 476.5L1637.49 478.557L1638.28 480.641L1639.01 482.752L1639.68 484.889L1640.28 487.053L1640.83 489.241L1641.31 491.454L1641.73 493.689L1642.08 495.946L1642.36 498.221L1642.58 500.515L1642.73 502.824L1642.82 505.147L1642.85 507.481L1642.81 509.823L1642.71 512.172L1642.55 514.525L1642.33 516.879L1642.06 519.232L1641.73 521.581L1641.36 523.923L1640.93 526.257L1640.47 528.579L1639.97 530.887L1639.43 533.179L1638.86 535.453L1638.26 537.707L1637.63 539.938L1636.99 542.146L1636.33 544.327L1635.67 546.482L1634.99 548.609L1634.32 550.706L1633.65 552.774L1632.98 554.81L1632.33 556.815L1631.69 558.789L1631.07 560.73L1630.48 562.64L1629.91 564.519L1629.38 566.366L1628.89 568.184L1628.43 569.971L1628.02 571.73L1627.65 573.462L1627.34 575.167L1627.08 576.847L1626.87 578.504L1626.73 580.14L1626.64 581.756L1626.63 583.354L1626.67 584.937L1626.79 586.506L1626.98 588.063L1627.24 589.612L1627.58 591.155L1627.99 592.693L1628.48 594.23L1629.04 595.769L1629.68 597.311L1630.41 598.86L1631.21 600.418L1632.09 601.989L1633.05 603.574L1634.08 605.177L1635.2 606.8L1636.39 608.446L1637.66 610.118L1639 611.819L1640.41 613.55L1641.89 615.315L1643.45 617.116L1645.06 618.956L1646.74 620.836L1648.48 622.758L1650.27 624.726L1652.12 626.739L1654.01 628.801L1655.95 630.912L1657.92 633.073L1659.93 635.287L1661.96 637.553L1664.02 639.872L1666.09 642.245L1668.17 644.671L1670.26 647.15L1672.35 649.682L1674.42 652.266L1676.48 654.901L1678.52 657.586L1680.53 660.319L1682.5 663.098L1684.43 665.921L1686.32 668.786L1688.14 671.691L1689.91 674.631L1691.6 677.605L1693.23 680.61L1694.78 683.642L1696.24 686.698L1697.62 689.775L1698.92 692.871L1700.12 695.982L1701.22 699.104L1702.23 702.235L1703.14 705.372L1703.96 708.511L1704.66 711.649L1705.27 714.783L1705.77 717.91L1706.17 721.027L1706.46 724.13L1706.65 727.216L1706.73 730.284L1706.7 733.328L1706.57 736.348L1706.33 739.339L1705.99 742.299L1705.54 745.226L1704.99 748.117L1704.34 750.969L1703.59 753.78L1702.74 756.548L1701.79 759.27L1700.74 761.944L1699.6 764.569L1698.37 767.143L1697.05 769.663L1695.64 772.129L1694.15 774.539L1692.57 776.892L1690.92 779.186L1689.18 781.421L1687.38 783.596L1685.5 785.709L1683.55 787.761L1681.53 789.751L1679.45 791.679L1677.31 793.545L1675.12 795.348L1672.87 797.088L1670.57 798.767L1668.22 800.384L1665.82 801.939L1663.39 803.434L1660.91 804.868L1658.4 806.243L1655.85 807.56L1653.27 808.818L1650.67 810.02L1648.04 811.166L1645.38 812.257L1642.7 813.294L1640.01 814.278L1637.3 815.211L1634.57 816.093L1631.83 816.925L1629.08 817.709L1626.32 818.445L1623.56 819.134L1620.78 819.778L1618.01 820.376L1615.22 820.93L1612.44 821.44L1609.66 821.906L1606.87 822.33L1604.09 822.711L1601.31 823.049L1598.53 823.345L1595.75 823.598L1592.97 823.807L1590.2 823.973L1587.43 824.095L1584.67 824.172L1581.91 824.203L1579.16 824.188L1576.41 824.124L1573.66 824.011L1570.92 823.847L1568.19 823.632L1565.46 823.363L1562.74 823.039L1560.03 822.659L1557.32 822.222L1554.62 821.725L1551.93 821.168L1549.26 820.551L1546.59 819.871L1543.93 819.13L1541.29 818.328L1538.66 817.464L1536.05 816.541L1533.46 815.559L1530.89 814.524L1528.34 813.436L1525.81 812.302L1523.31 811.127L1520.84 809.915L1518.4 808.673L1515.99 807.407L1513.61 806.123L1511.27 804.827L1508.96 803.527L1506.68 802.229L1504.44 800.941L1502.24 799.67L1500.07 798.422L1497.94 797.207L1495.84 796.029L1493.77 794.898L1491.74 793.82L1489.73 792.802L1487.76 791.85L1485.81 790.971L1483.89 790.172L1481.98 789.457L1480.1 788.832L1478.23 788.302L1476.37 787.872L1474.52 787.544L1472.68 787.323L1470.84 787.211L1468.99 787.209L1467.14 787.32L1465.28 787.544L1463.4 787.881L1461.51 788.33L1459.59 788.89L1457.65 789.558L1455.68 790.333L1453.67 791.209L1451.64 792.184L1449.56 793.252L1447.44 794.407L1445.28 795.644L1443.07 796.956L1440.82 798.336L1438.51 799.776L1436.16 801.268L1433.76 802.803L1431.31 804.373L1428.81 805.968L1426.26 807.578L1423.66 809.194L1421.02 810.807L1418.33 812.405L1415.6 813.98L1412.83 815.522L1410.03 817.019L1407.19 818.464L1404.33 819.846L1401.45 821.156L1398.54 822.385L1395.62 823.524L1392.7 824.566L1389.77 825.503L1386.84 826.328L1383.92 827.033L1381.02 827.614L1378.13 828.063L1375.28 828.377L1372.45 828.551L1369.66 828.581L1366.91 828.465L1364.22 828.201L1361.58 827.786L1359 827.22L1356.48 826.503L1354.04 825.635L1351.67 824.617L1349.38 823.451L1347.18 822.139L1345.06 820.685L1343.03 819.091L1341.1 817.361L1339.26 815.501L1337.52 813.515L1335.88 811.407L1334.34 809.185L1332.91 806.853L1331.57 804.418L1330.34 801.887L1329.21 799.265L1328.18 796.561L1327.25 793.78L1326.42 790.93L1325.68 788.018L1325.04 785.05L1324.5 782.034L1324.04 778.977L1323.66 775.885L1323.38 772.765L1323.17 769.624L1323.03 766.468L1322.97 763.304L1322.97 760.138L1323.03 756.975L1323.16 753.821L1323.33 750.68L1323.56 747.557L1323.83 744.454L1324.15 741.373L1324.51 738.318L1324.92 735.29L1325.35 732.292L1325.83 729.324L1326.34 726.389L1326.87 723.488L1327.44 720.622L1328.03 717.793L1328.65 715.002L1329.29 712.251L1329.94 709.54L1330.61 706.872L1331.28 704.248L1331.97 701.669L1332.66 699.136L1333.35 696.651L1334.03 694.214L1334.71 691.827L1335.37 689.49L1336.01 687.205L1336.63 684.972L1337.23 682.791L1337.79 680.663L1338.32 678.588L1338.81 676.565L1339.26 674.596L1339.66 672.678L1340 670.812L1340.29 668.996L1340.52 667.229L1340.69 665.51L1340.79 663.837L1340.82 662.208L1340.78 660.622L1340.66 659.076L1340.47 657.568L1340.2 656.094L1339.86 654.654L1339.43 653.242L1338.93 651.858L1338.34 650.497L1337.68 649.157L1336.94 647.833L1336.12 646.524L1335.23 645.226L1334.27 643.936L1333.23 642.65L1332.13 641.365L1330.96 640.078L1329.73 638.787L1328.44 637.487L1327.1 636.178L1325.71 634.855L1324.27 633.516L1322.79 632.16L1321.27 630.783L1319.71 629.383L1318.13 627.96L1316.53 626.511L1314.91 625.034L1313.27 623.529L1311.62 621.994L1309.97 620.429L1308.32 618.832L1306.67 617.204L1305.03 615.543L1303.39 613.849L1301.78 612.123L1300.18 610.364L1298.6 608.573L1297.05 606.75L1295.53 604.895L1294.03 603.009L1292.57 601.093L1291.15 599.147L1289.75 597.171L1288.4 595.168L1287.09 593.136L1285.81 591.078L1284.58 588.994L1283.38 586.885L1282.23 584.752L1281.12 582.595L1280.05 580.415L1279.03 578.214L1278.04 575.991L1277.1 573.748L1276.2 571.486L1275.34 569.204L1274.53 566.904L1273.76 564.588L1273.03 562.254L1272.34 559.905L1271.7 557.541L1271.1 555.164L1270.55 552.774L1270.04 550.374L1269.59 547.964L1269.2 545.547L1268.86 543.126L1268.59 540.703L1268.39 538.28L1268.25 535.862L1268.2 533.451L1268.22 531.05L1268.33 528.664L1268.52 526.295L1268.8 523.947L1269.18 521.625L1269.65 519.331L1270.22 517.07L1270.89 514.845L1271.66 512.66L1272.54 510.519L1273.51 508.425L1274.59 506.382L1275.77 504.392L1277.05 502.46L1278.43 500.587L1279.91 498.776L1281.49 497.03L1283.16 495.351L1284.92 493.74L1286.77 492.2L1288.7 490.732L1290.71 489.336L1292.8 488.013L1294.97 486.764L1297.2 485.589L1299.49 484.486L1301.84 483.457L1304.24 482.499L1306.69 481.611L1309.18 480.792L1311.71 480.04L1314.27 479.352L1316.85 478.726L1319.45 478.16L1322.07 477.648L1324.69 477.19L1327.32 476.78L1329.94 476.414L1332.56 476.09L1335.16 475.801L1337.75 475.545L1340.32 475.315L1342.85 475.106L1345.36 474.915L1347.83 474.736L1350.27 474.562L1352.66 474.39L1355 474.214L1357.3 474.027L1359.55 473.825L1361.74 473.603L1363.88 473.354L1365.96 473.073L1367.99 472.755L1369.95 472.395L1371.86 471.988L1373.7 471.529L1375.48 471.012L1377.21 470.434L1378.87 469.79L1380.48 469.075L1382.02 468.287L1383.52 467.421L1384.95 466.475L1386.34 465.444L1387.68 464.327L1388.97 463.122L1390.21 461.827L1391.42 460.439Z" fill="#F28C8F" fill-opacity="0.5" shape-rendering="crispEdges"/>
</g>
<g filter="url(#filter6_d_187_20)">
<path fill-rule="evenodd" clip-rule="evenodd" d="M1270.88 571.196L1272.69 570.933L1274.48 570.63L1276.28 570.292L1278.08 569.925L1279.88 569.536L1281.68 569.131L1283.5 568.716L1285.32 568.298L1287.15 567.883L1288.99 567.477L1290.84 567.085L1292.7 566.713L1294.58 566.366L1296.46 566.049L1298.35 565.764L1300.25 565.517L1302.15 565.311L1304.06 565.149L1305.98 565.035L1307.9 564.972L1309.82 564.962L1311.73 565.009L1313.65 565.113L1315.56 565.28L1317.46 565.511L1319.35 565.811L1321.23 566.182L1323.09 566.628L1324.93 567.151L1326.75 567.752L1328.55 568.432L1330.31 569.193L1332.05 570.034L1333.75 570.955L1335.41 571.953L1337.04 573.026L1338.62 574.172L1340.16 575.388L1341.66 576.668L1343.12 578.01L1344.53 579.408L1345.9 580.856L1347.22 582.351L1348.5 583.885L1349.73 585.454L1350.93 587.051L1352.09 588.671L1353.2 590.308L1354.29 591.956L1355.34 593.611L1356.37 595.266L1357.36 596.916L1358.34 598.557L1359.3 600.185L1360.24 601.794L1361.17 603.382L1362.09 604.944L1363.02 606.478L1363.94 607.98L1364.86 609.448L1365.8 610.88L1366.75 612.275L1367.71 613.63L1368.7 614.944L1369.71 616.217L1370.75 617.449L1371.83 618.639L1372.94 619.787L1374.09 620.894L1375.28 621.96L1376.52 622.988L1377.81 623.977L1379.16 624.93L1380.56 625.848L1382.02 626.734L1383.53 627.589L1385.12 628.417L1386.76 629.22L1388.48 630.002L1390.26 630.765L1392.11 631.513L1394.02 632.25L1396.01 632.979L1398.06 633.706L1400.18 634.433L1402.36 635.166L1404.61 635.909L1406.92 636.666L1409.28 637.443L1411.7 638.243L1414.17 639.072L1416.68 639.935L1419.22 640.835L1421.8 641.778L1424.41 642.768L1427.03 643.81L1429.66 644.907L1432.28 646.063L1434.9 647.282L1437.49 648.568L1440.05 649.922L1442.57 651.349L1445.03 652.848L1447.43 654.423L1449.75 656.071L1451.98 657.795L1454.11 659.593L1456.13 661.462L1458.03 663.402L1459.81 665.409L1461.46 667.48L1462.96 669.611L1464.33 671.797L1465.54 674.035L1466.61 676.319L1467.52 678.643L1468.27 681.003L1468.87 683.393L1469.31 685.806L1469.61 688.238L1469.75 690.683L1469.75 693.135L1469.61 695.59L1469.33 698.041L1468.93 700.485L1468.4 702.917L1467.76 705.332L1467.02 707.729L1466.17 710.103L1465.23 712.451L1464.22 714.772L1463.13 717.063L1461.97 719.324L1460.76 721.553L1459.5 723.749L1458.21 725.913L1456.87 728.044L1455.52 730.144L1454.14 732.212L1452.75 734.25L1451.35 736.259L1449.94 738.239L1448.53 740.193L1447.13 742.121L1445.73 744.025L1444.33 745.905L1442.94 747.764L1441.55 749.6L1440.17 751.416L1438.79 753.211L1437.41 754.985L1436.03 756.739L1434.65 758.47L1433.26 760.18L1431.86 761.866L1430.45 763.527L1429.02 765.161L1427.57 766.767L1426.1 768.343L1424.6 769.886L1423.07 771.393L1421.51 772.864L1419.92 774.295L1418.29 775.684L1416.63 777.029L1414.93 778.33L1413.2 779.583L1411.43 780.788L1409.63 781.944L1407.8 783.05L1405.94 784.106L1404.05 785.111L1402.14 786.066L1400.21 786.97L1398.25 787.824L1396.28 788.63L1394.3 789.388L1392.3 790.098L1390.29 790.762L1388.28 791.38L1386.26 791.953L1384.24 792.482L1382.22 792.968L1380.2 793.411L1378.18 793.814L1376.16 794.177L1374.15 794.502L1372.15 794.79L1370.16 795.043L1368.18 795.263L1366.22 795.452L1364.27 795.613L1362.33 795.746L1360.42 795.855L1358.52 795.943L1356.65 796.012L1354.8 796.065L1352.97 796.104L1351.17 796.133L1349.4 796.154L1347.65 796.171L1345.93 796.188L1344.24 796.206L1342.57 796.229L1340.94 796.261L1339.33 796.305L1337.76 796.364L1336.21 796.441L1334.69 796.54L1333.2 796.664L1331.73 796.817L1330.3 797.002L1328.89 797.222L1327.5 797.481L1326.13 797.782L1324.79 798.129L1323.47 798.524L1322.17 798.973L1320.88 799.477L1319.61 800.04L1318.35 800.665L1317.1 801.356L1315.86 802.116L1314.62 802.947L1313.39 803.852L1312.15 804.833L1310.91 805.894L1309.66 807.035L1308.4 808.258L1307.12 809.565L1305.83 810.955L1304.51 812.43L1303.17 813.988L1301.8 815.628L1300.39 817.348L1298.94 819.147L1297.45 821.02L1295.92 822.964L1294.34 824.973L1292.7 827.043L1291.01 829.166L1289.25 831.335L1287.44 833.542L1285.57 835.778L1283.63 838.035L1281.62 840.302L1279.55 842.57L1277.42 844.828L1275.22 847.067L1272.95 849.276L1270.62 851.445L1268.23 853.566L1265.79 855.63L1263.28 857.63L1260.72 859.562L1258.12 861.42L1255.46 863.201L1252.76 864.9L1250.01 866.515L1247.22 868.041L1244.4 869.477L1241.55 870.818L1238.66 872.061L1235.75 873.204L1232.82 874.241L1229.87 875.17L1226.91 875.988L1223.93 876.69L1220.96 877.274L1217.99 877.735L1215.02 878.07L1212.07 878.277L1209.14 878.353L1206.24 878.295L1203.36 878.101L1200.52 877.769L1197.73 877.299L1194.98 876.69L1192.28 875.942L1189.65 875.055L1187.08 874.031L1184.59 872.871L1182.16 871.578L1179.82 870.154L1177.56 868.603L1175.39 866.929L1173.3 865.136L1171.31 863.23L1169.42 861.216L1167.62 859.099L1165.91 856.887L1164.31 854.585L1162.8 852.199L1161.39 849.737L1160.08 847.206L1158.86 844.612L1157.74 841.963L1156.71 839.265L1155.76 836.524L1154.91 833.748L1154.13 830.942L1153.44 828.113L1152.83 825.266L1152.29 822.407L1151.82 819.539L1151.42 816.669L1151.09 813.799L1150.81 810.934L1150.6 808.077L1150.44 805.231L1150.34 802.399L1150.29 799.582L1150.28 796.782L1150.33 794.001L1150.43 791.241L1150.57 788.501L1150.76 785.784L1150.99 783.09L1151.26 780.42L1151.58 777.775L1151.94 775.155L1152.34 772.562L1152.78 769.996L1153.25 767.459L1153.75 764.954L1154.29 762.481L1154.84 760.042L1155.41 757.639L1156 755.272L1156.6 752.941L1157.2 750.647L1157.82 748.389L1158.45 746.165L1159.08 743.975L1159.72 741.818L1160.38 739.693L1161.05 737.599L1161.73 735.535L1162.42 733.5L1163.13 731.494L1163.85 729.517L1164.6 727.566L1165.35 725.644L1166.13 723.748L1166.93 721.879L1167.74 720.037L1168.57 718.223L1169.42 716.435L1170.28 714.674L1171.16 712.94L1172.06 711.233L1172.96 709.553L1173.88 707.9L1174.8 706.273L1175.73 704.673L1176.66 703.099L1177.59 701.55L1178.52 700.026L1179.44 698.527L1180.36 697.05L1181.26 695.595L1182.15 694.161L1183.02 692.747L1183.86 691.349L1184.68 689.968L1185.47 688.6L1186.22 687.244L1186.94 685.896L1187.61 684.554L1188.24 683.214L1188.81 681.875L1189.34 680.532L1189.8 679.181L1190.2 677.819L1190.54 676.441L1190.81 675.044L1191.01 673.622L1191.14 672.173L1191.19 670.69L1191.16 669.169L1191.06 667.606L1190.88 665.997L1190.63 664.336L1190.29 662.62L1189.89 660.844L1189.4 659.006L1188.85 657.101L1188.24 655.126L1187.56 653.08L1186.83 650.96L1186.05 648.766L1185.22 646.496L1184.36 644.152L1183.48 641.733L1182.58 639.243L1181.67 636.683L1180.77 634.057L1179.88 631.369L1179.01 628.624L1178.17 625.827L1177.38 622.986L1176.64 620.106L1175.97 617.194L1175.36 614.258L1174.84 611.307L1174.41 608.352L1174.07 605.402L1173.85 602.469L1173.75 599.565L1173.77 596.702L1173.93 593.894L1174.22 591.152L1174.67 588.489L1175.26 585.916L1176 583.445L1176.9 581.086L1177.95 578.849L1179.14 576.742L1180.49 574.773L1181.97 572.948L1183.6 571.273L1185.35 569.751L1187.23 568.385L1189.23 567.176L1191.33 566.124L1193.53 565.227L1195.81 564.483L1198.17 563.888L1200.6 563.437L1203.09 563.123L1205.62 562.939L1208.18 562.877L1210.77 562.928L1213.38 563.083L1215.99 563.331L1218.6 563.66L1221.2 564.061L1223.79 564.521L1226.34 565.029L1228.87 565.574L1231.37 566.144L1233.82 566.729L1236.24 567.317L1238.61 567.899L1240.93 568.465L1243.2 569.006L1245.43 569.514L1247.61 569.983L1249.74 570.405L1251.83 570.775L1253.87 571.09L1255.88 571.345L1257.84 571.539L1259.78 571.671L1261.68 571.739L1263.56 571.746L1265.42 571.691L1267.25 571.579L1269.07 571.413L1270.88 571.196Z" fill="#FCE1CC" fill-opacity="0.5" shape-rendering="crispEdges"/>
</g>
<g opacity="0.29">
<path d="M188.998 1097.13L188.998 901.593M336.175 706.057L188.998 706.057L188.998 901.593M336.175 706.057L336.175 406.296M336.175 706.057L243.363 613.245M150.551 406.296L150.551 520.433L243.363 613.245M188.998 901.593L93.1822 805.777L93.1822 406.296M243.363 613.245L243.363 483.789" stroke="#980138" stroke-width="5" stroke-linecap="round" stroke-linejoin="round"/>
<circle cx="336.175" cy="406.296" r="7.20869" transform="rotate(-180 336.175 406.296)" fill="#980138"/>
<circle cx="243.664" cy="481.987" r="7.20869" transform="rotate(-180 243.664 481.987)" fill="#980138"/>
<circle cx="276.703" cy="560.682" r="6.60796" transform="rotate(-180 276.703 560.682)" fill="#F28C8F"/>
<circle cx="31.608" cy="523.437" r="6.60796" transform="rotate(-180 31.608 523.437)" fill="#F28C8F"/>
<circle cx="149.951" cy="407.497" r="7.20869" transform="rotate(-180 149.951 407.497)" fill="#980138"/>
<circle cx="188.998" cy="333.608" r="6.60796" transform="rotate(-180 188.998 333.608)" fill="#F28C8F"/>
<circle cx="93.4826" cy="406.296" r="7.20869" transform="rotate(-180 93.4826 406.296)" fill="#980138"/>
<path d="M188.998 706.658L188.998 332.407M188.998 706.658L276.703 794.363M188.998 706.658L31.6079 706.658L31.6079 524.638M276.703 794.363L276.703 561.282M276.703 794.363L276.703 916.911" stroke="#F28C8F" stroke-width="5" stroke-linecap="round" stroke-linejoin="round"/>
</g>
</g>
<defs>
<filter id="filter0_d_187_20" x="-4" y="-0.5" width="1377" height="9" filterUnits="userSpaceOnUse" color-interpolation-filters="sRGB">
<feFlood flood-opacity="0" result="BackgroundImageFix"/>
<feColorMatrix in="SourceAlpha" type="matrix" values="0 0 0 0 0 0 0 0 0 0 0 0 0 0 0 0 0 0 127 0" result="hardAlpha"/>
<feOffset dy="4"/>
<feGaussianBlur stdDeviation="2"/>
<feComposite in2="hardAlpha" operator="out"/>
<feColorMatrix type="matrix" values="0 0 0 0 0 0 0 0 0 0 0 0 0 0 0 0 0 0 0.25 0"/>
<feBlend mode="normal" in2="BackgroundImageFix" result="effect1_dropShadow_187_20"/>
<feBlend mode="normal" in="SourceGraphic" in2="effect1_dropShadow_187_20" result="shape"/>
</filter>
<filter id="filter1_d_187_20" x="-328.979" y="-198.335" width="423.755" height="440.1" filterUnits="userSpaceOnUse" color-interpolation-filters="sRGB">
<feFlood flood-opacity="0" result="BackgroundImageFix"/>
<feColorMatrix in="SourceAlpha" type="matrix" values="0 0 0 0 0 0 0 0 0 0 0 0 0 0 0 0 0 0 127 0" result="hardAlpha"/>
<feOffset dy="4"/>
<feGaussianBlur stdDeviation="2"/>
<feComposite in2="hardAlpha" operator="out"/>
<feColorMatrix type="matrix" values="0 0 0 0 0 0 0 0 0 0 0 0 0 0 0 0 0 0 0.25 0"/>
<feBlend mode="normal" in2="BackgroundImageFix" result="effect1_dropShadow_187_20"/>
<feBlend mode="normal" in="SourceGraphic" in2="effect1_dropShadow_187_20" result="shape"/>
</filter>
<filter id="filter2_d_187_20" x="-261.964" y="-162.019" width="380.262" height="415.908" filterUnits="userSpaceOnUse" color-interpolation-filters="sRGB">
<feFlood flood-opacity="0" result="BackgroundImageFix"/>
<feColorMatrix in="SourceAlpha" type="matrix" values="0 0 0 0 0 0 0 0 0 0 0 0 0 0 0 0 0 0 127 0" result="hardAlpha"/>
<feOffset dy="4"/>
<feGaussianBlur stdDeviation="2"/>
<feComposite in2="hardAlpha" operator="out"/>
<feColorMatrix type="matrix" values="0 0 0 0 0 0 0 0 0 0 0 0 0 0 0 0 0 0 0.25 0"/>
<feBlend mode="normal" in2="BackgroundImageFix" result="effect1_dropShadow_187_20"/>
<feBlend mode="normal" in="SourceGraphic" in2="effect1_dropShadow_187_20" result="shape"/>
</filter>
<filter id="filter3_d_187_20" x="-76.1372" y="-192.276" width="274.075" height="297.059" filterUnits="userSpaceOnUse" color-interpolation-filters="sRGB">
<feFlood flood-opacity="0" result="BackgroundImageFix"/>
<feColorMatrix in="SourceAlpha" type="matrix" values="0 0 0 0 0 0 0 0 0 0 0 0 0 0 0 0 0 0 127 0" result="hardAlpha"/>
<feOffset dy="4"/>
<feGaussianBlur stdDeviation="2"/>
<feComposite in2="hardAlpha" operator="out"/>
<feColorMatrix type="matrix" values="0 0 0 0 0 0 0 0 0 0 0 0 0 0 0 0 0 0 0.25 0"/>
<feBlend mode="normal" in2="BackgroundImageFix" result="effect1_dropShadow_187_20"/>
<feBlend mode="normal" in="SourceGraphic" in2="effect1_dropShadow_187_20" result="shape"/>
</filter>
<filter id="filter4_d_187_20" x="1173.99" y="458.825" width="415.347" height="383.997" filterUnits="userSpaceOnUse" color-interpolation-filters="sRGB">
<feFlood flood-opacity="0" result="BackgroundImageFix"/>
<feColorMatrix in="SourceAlpha" type="matrix" values="0 0 0 0 0 0 0 0 0 0 0 0 0 0 0 0 0 0 127 0" result="hardAlpha"/>
<feOffset dy="4"/>
<feGaussianBlur stdDeviation="5"/>
<feComposite in2="hardAlpha" operator="out"/>
<feColorMatrix type="matrix" values="0 0 0 0 0.158333 0 0 0 0 0.158333 0 0 0 0 0.158333 0 0 0 0.25 0"/>
<feBlend mode="normal" in2="BackgroundImageFix" result="effect1_dropShadow_187_20"/>
<feBlend mode="normal" in="SourceGraphic" in2="effect1_dropShadow_187_20" result="shape"/>
</filter>
<filter id="filter5_d_187_20" x="1258.2" y="346.421" width="458.531" height="496.16" filterUnits="userSpaceOnUse" color-interpolation-filters="sRGB">
<feFlood flood-opacity="0" result="BackgroundImageFix"/>
<feColorMatrix in="SourceAlpha" type="matrix" values="0 0 0 0 0 0 0 0 0 0 0 0 0 0 0 0 0 0 127 0" result="hardAlpha"/>
<feOffset dy="4"/>
<feGaussianBlur stdDeviation="5"/>
<feComposite in2="hardAlpha" operator="out"/>
<feColorMatrix type="matrix" values="0 0 0 0 0.158333 0 0 0 0 0.158333 0 0 0 0 0.158333 0 0 0 0.25 0"/>
<feBlend mode="normal" in2="BackgroundImageFix" result="effect1_dropShadow_187_20"/>
<feBlend mode="normal" in="SourceGraphic" in2="effect1_dropShadow_187_20" result="shape"/>
</filter>
<filter id="filter6_d_187_20" x="1140.28" y="556.877" width="339.468" height="335.476" filterUnits="userSpaceOnUse" color-interpolation-filters="sRGB">
<feFlood flood-opacity="0" result="BackgroundImageFix"/>
<feColorMatrix in="SourceAlpha" type="matrix" values="0 0 0 0 0 0 0 0 0 0 0 0 0 0 0 0 0 0 127 0" result="hardAlpha"/>
<feOffset dy="4"/>
<feGaussianBlur stdDeviation="5"/>
<feComposite in2="hardAlpha" operator="out"/>
<feColorMatrix type="matrix" values="0 0 0 0 0.158333 0 0 0 0 0.158333 0 0 0 0 0.158333 0 0 0 0.25 0"/>
<feBlend mode="normal" in2="BackgroundImageFix" result="effect1_dropShadow_187_20"/>
<feBlend mode="normal" in="SourceGraphic" in2="effect1_dropShadow_187_20" result="shape"/>
</filter>
<radialGradient id="paint0_radial_187_20" cx="0" cy="0" r="1" gradientUnits="userSpaceOnUse" gradientTransform="translate(-4.10974e-05 828) rotate(-26.5678) scale(770.903 692.131)">
<stop stop-color="#F28C8F" stop-opacity="0.56"/>
<stop offset="1" stop-color="#311629"/>
</radialGradient>
<radialGradient id="paint1_radial_187_20" cx="0" cy="0" r="1" gradientUnits="userSpaceOnUse" gradientTransform="translate(1214.29 -196.479) rotate(-30.9242) scale(605.05 559.114)">
<stop stop-color="#980138"/>
<stop offset="1" stop-color="#311629"/>
</radialGradient>
<clipPath id="clip0_187_20">
<rect width="1372" height="599" fill="white"/>
</clipPath>
</defs>
</svg>
