<svg width="218" height="168" viewBox="0 0 218 168" fill="none" xmlns="http://www.w3.org/2000/svg">
<path fill-rule="evenodd" clip-rule="evenodd" d="M52.3062 87.8333L51.445 87.6009L50.5667 87.3833L49.6708 87.1792L48.7567 86.9872L47.824 86.8057L46.8724 86.6331L45.9019 86.4677L44.9124 86.3076L43.9042 86.151L42.8775 85.9959L41.8329 85.8403L40.7709 85.6822L39.6924 85.5195L38.5982 85.3502L37.4896 85.172L36.3679 84.9828L35.2347 84.7802L34.092 84.562L32.9419 84.3256L31.787 84.0685L30.6301 83.7882L29.4745 83.482L28.3235 83.1473L27.1811 82.7817L26.0513 82.3825L24.9385 81.9474L23.8475 81.4741L22.7828 80.9607L21.7493 80.4054L20.7516 79.8069L19.7944 79.1643L18.8822 78.477L18.0192 77.7448L17.2093 76.9679L16.4563 76.147L15.7634 75.2831L15.1336 74.3776L14.5693 73.4321L14.0726 72.4489L13.6452 71.4302L13.288 70.3787L13.0018 69.2971L12.7865 68.1887L12.6419 67.0565L12.567 65.9039L12.5604 64.7344L12.6203 63.5513L12.7443 62.3583L12.9295 61.1587L13.1728 59.9559L13.4704 58.7532L13.8183 57.5539L14.2121 56.361L14.647 55.1772L15.118 54.0052L15.6198 52.8474L16.1468 51.7059L16.6935 50.5825L17.2538 49.4789L17.822 48.3961L18.3921 47.3353L18.9582 46.2969L19.5143 45.2812L20.0546 44.2882L20.5736 43.3174L21.0659 42.3682L21.5261 41.4394L21.9496 40.5299L22.3318 39.6379L22.6685 38.7617L22.9562 37.8991L23.1915 37.0477L23.372 36.2052L23.4953 35.3689L23.56 34.5361L23.5651 33.7038L23.5104 32.8694L23.3961 32.0299L23.2231 31.1826L22.9932 30.3247L22.7084 29.4538L22.3717 28.5673L21.9863 27.6632L21.5564 26.7394L21.0863 25.7943L20.581 24.8265L20.0458 23.8349L19.4864 22.8189L18.9088 21.778L18.3188 20.7122L17.7228 19.6219L17.1267 18.5077L16.5368 17.3705L15.9591 16.2118L15.3991 15.0329L14.8624 13.8356L14.3536 12.6219L13.8773 11.3938L13.4377 10.1535L13.0392 8.90372L12.686 7.64712L12.3821 6.38672L12.1312 5.12564L11.9366 3.86711L11.8013 2.61442L11.7277 1.37087L11.7177 0.139741L11.7729 -1.07574L11.8943 -2.27246L12.0822 -3.44744L12.3368 -4.59787L12.6575 -5.72109L13.0435 -6.81469L13.4935 -7.87647L14.0058 -8.90448L14.5783 -9.89701L15.2089 -10.8526L15.8949 -11.7701L16.6336 -12.6485L17.4219 -13.4871L18.2568 -14.2857L19.135 -15.0439L20.0531 -15.7618L21.008 -16.4397L21.9961 -17.0781L23.0141 -17.6777L24.0588 -18.2393L25.1269 -18.7638L26.2152 -19.2526L27.3208 -19.7067L28.4406 -20.1276L29.5721 -20.5168L30.7124 -20.8758L31.8592 -21.206L33.0102 -21.5092L34.1632 -21.787L35.3164 -22.0409L36.468 -22.2726L37.6164 -22.4835L38.7602 -22.6752L39.8982 -22.8491L41.0294 -23.0066L42.1529 -23.1488L43.2679 -23.277L44.3741 -23.3922L45.4708 -23.4953L46.5579 -23.5871L47.6352 -23.6681L48.7026 -23.7389L49.7602 -23.7999L50.8082 -23.8512L51.8467 -23.8928L52.876 -23.9248L53.8965 -23.9467L54.9085 -23.9583L55.9124 -23.9591L56.9085 -23.9484L57.8972 -23.9255L58.8788 -23.8898L59.8536 -23.8402L60.8219 -23.7761L61.7838 -23.6964L62.7393 -23.6005L63.6886 -23.4875L64.6316 -23.3568L65.5681 -23.208L66.4978 -23.0409L67.4201 -22.8563L68.3345 -22.6553L69.2403 -22.4398L70.1367 -22.2125L71.0229 -21.9765L71.8983 -21.7355L72.7624 -21.493L73.6151 -21.2525L74.4564 -21.0171L75.2863 -20.7899L76.1054 -20.5739L76.914 -20.372L77.713 -20.187L78.503 -20.0216L79.2853 -19.8781L80.0607 -19.7588L80.8307 -19.6661L81.5966 -19.6016L82.3599 -19.5671L83.1222 -19.564L83.885 -19.5933L84.6501 -19.6559L85.4193 -19.7523L86.1941 -19.8825L86.9765 -20.0462L87.7679 -20.243L88.5702 -20.4716L89.3848 -20.7309L90.2131 -21.019L91.0564 -21.3338L91.9159 -21.6728L92.7926 -22.0333L93.6871 -22.4123L94.6001 -22.8062L95.5319 -23.2115L96.4825 -23.6244L97.4519 -24.0409L98.4396 -24.4568L99.445 -24.8679L100.467 -25.2699L101.505 -25.6585L102.557 -26.0295L103.622 -26.3787L104.697 -26.702L105.782 -26.9957L106.873 -27.2561L107.968 -27.4797L109.066 -27.6635L110.163 -27.8045L111.257 -27.9006L112.346 -27.9494L113.427 -27.9494L114.498 -27.8992L115.555 -27.798L116.598 -27.6455L117.623 -27.4414L118.63 -27.1864L119.616 -26.8812L120.579 -26.5269L121.52 -26.1253L122.436 -25.6782L123.327 -25.1878L124.193 -24.6567L125.034 -24.0876L125.85 -23.4835L126.642 -22.8475L127.41 -22.1827L128.156 -21.4923L128.881 -20.7795L129.586 -20.0474L130.273 -19.299L130.944 -18.5369L131.599 -17.7637L132.242 -16.9816L132.872 -16.1921L133.492 -15.3963L134.1 -14.5948L134.698 -13.7876L135.284 -12.9741L135.857 -12.1536L136.416 -11.3251L136.959 -10.4878L137.485 -9.64088L137.992 -8.78377L138.479 -7.91592L138.945 -7.03691L139.387 -6.14635L139.805 -5.24398L140.196 -4.32961L140.559 -3.40314L140.893 -2.4646L141.195 -1.51415L141.465 -0.55204L141.7 0.421311L141.901 1.40536L142.065 2.39941L142.191 3.40263L142.28 4.41405L142.33 5.43255L142.341 6.4569L142.314 7.48574L142.248 8.5176L142.145 9.55096L142.005 10.5842L141.829 11.6156L141.62 12.6436L141.379 13.6663L141.108 14.6823L140.811 15.6897L140.489 16.6871L140.147 17.673L139.787 18.6461L139.414 19.6051L139.03 20.5491L138.641 21.477L138.249 22.3883L137.86 23.2824L137.477 24.1592L137.105 25.0186L136.748 25.8608L136.409 26.6862L136.093 27.4956L135.804 28.2897L135.545 29.0698L135.318 29.8371L135.128 30.5932L134.976 31.3397L134.865 32.0784L134.796 32.8114L134.77 33.5406L134.789 34.2681L134.852 34.9962L134.96 35.7269L135.111 36.4624L135.304 37.2048L135.538 37.956L135.81 38.7179L136.118 39.4922L136.459 40.2804L136.828 41.0838L137.222 41.9034L137.637 42.7402L138.068 43.5947L138.511 44.4673L138.961 45.3578L139.414 46.2663L139.864 47.1922L140.308 48.135L140.742 49.0938L141.159 50.0674L141.557 51.0543L141.929 52.0528L142.272 53.061L142.581 54.0765L142.852 55.097L143.081 56.12L143.264 57.1428L143.398 58.1627L143.482 59.177L143.512 60.1827L143.486 61.1771L143.404 62.1573L143.265 63.1206L143.066 64.0641L142.808 64.9852L142.492 65.8813L142.116 66.7499L141.683 67.5888L141.192 68.3959L140.646 69.1692L140.047 69.9071L139.396 70.6082L138.695 71.2713L137.949 71.8958L137.16 72.4811L136.33 73.0269L135.464 73.5336L134.566 74.0016L133.639 74.4317L132.687 74.8253L131.715 75.1837L130.726 75.509L129.725 75.8031L128.715 76.0687L127.702 76.3084L126.687 76.5251L125.676 76.722L124.672 76.9024L123.677 77.0697L122.696 77.2276L121.73 77.3795L120.782 77.529L119.855 77.6798L118.949 77.8354L118.067 77.9991L117.21 78.1741L116.377 78.3636L115.569 78.5704L114.787 78.797L114.03 79.0457L113.298 79.3186L112.588 79.6172L111.901 79.943L111.235 80.2967L110.587 80.6791L109.957 81.0904L109.342 81.5303L108.739 81.9984L108.147 82.4939L107.564 83.0154L106.986 83.5616L106.412 84.1307L105.839 84.7205L105.266 85.3288L104.689 85.9531L104.107 86.5908L103.518 87.2392L102.921 87.8955L102.313 88.5567L101.694 89.22L101.062 89.8825L100.416 90.5416L99.7559 91.1945L99.0803 91.8387L98.389 92.4715L97.6817 93.0906L96.9583 93.6936L96.2187 94.278L95.463 94.8416L94.6915 95.3823L93.9046 95.898L93.1028 96.387L92.2868 96.8475L91.4572 97.2782L90.6149 97.6774L89.7607 98.044L88.8957 98.3767L88.0209 98.6743L87.1372 98.9358L86.246 99.1604L85.3483 99.3471L84.4455 99.4954L83.5387 99.6047L82.6292 99.6747L81.7184 99.7054L80.8075 99.6967L79.8979 99.6489L78.9907 99.5626L78.0873 99.4385L77.1887 99.2777L76.296 99.0812L75.4103 98.8506L74.5323 98.5876L73.663 98.294L72.803 97.972L71.9526 97.6239L71.1124 97.2521L70.2824 96.8592L69.4628 96.448L68.6533 96.0213L67.8536 95.5819L67.0633 95.1327L66.2817 94.6767L65.5081 94.2166L64.7414 93.7552L63.9806 93.2953L63.2244 92.8395L62.4716 92.39L61.7208 91.9493L60.9704 91.5192L60.2189 91.1016L59.4647 90.6981L58.7063 90.31L57.9421 89.9383L57.1705 89.584L56.39 89.2475L55.5992 88.9291L54.7966 88.6288L53.981 88.3464L53.1512 88.0815L52.3062 87.8333Z" fill="#F28C8F" fill-opacity="0.5"/>
<path fill-rule="evenodd" clip-rule="evenodd" d="M26.5683 4.85645L25.7848 4.63395L24.9958 4.41185L24.2011 4.1898L23.4006 3.96743L22.5944 3.74428L21.7823 3.51993L20.9644 3.29392L20.1407 3.06576L19.3112 2.83495L18.4761 2.60095L17.6354 2.36324L16.7894 2.12128L15.9382 1.87456L15.082 1.62248L14.2211 1.36452L13.3556 1.10018L12.486 0.828834L11.6125 0.550042L10.7355 0.263227L9.8553 -0.0321174L8.97229 -0.336491L8.08685 -0.650351L7.19943 -0.974196L6.31046 -1.3085L5.42037 -1.65368L4.52966 -2.01015L3.63879 -2.37835L2.74827 -2.75864L1.8586 -3.1514L0.970336 -3.557L0.0839923 -3.97576L-0.799856 -4.40798L-1.68064 -4.85399L-2.55777 -5.31406L-3.43065 -5.78843L-4.29864 -6.2774L-5.16111 -6.78115L-6.0174 -7.29992L-6.86686 -7.83388L-7.70874 -8.38325L-8.54234 -8.9482L-9.36692 -9.52883L-10.1817 -10.1253L-10.9858 -10.7378L-11.7786 -11.3663L-12.5592 -12.0109L-13.3268 -12.6717L-14.0807 -13.3485L-14.82 -14.0414L-15.5441 -14.7502L-16.2522 -15.4749L-16.9436 -16.2152L-17.6176 -16.971L-18.2734 -17.742L-18.9104 -18.528L-19.528 -19.3288L-20.1255 -20.1439L-20.7023 -20.9731L-21.2578 -21.816L-21.7915 -22.6722L-22.3028 -23.5413L-22.7912 -24.4228L-23.2562 -25.3163L-23.6975 -26.2212L-24.1144 -27.1371L-24.5067 -28.0634L-24.874 -28.9996L-25.216 -29.9452L-25.5323 -30.8994L-25.8227 -31.8619L-26.0869 -32.8318L-26.3247 -33.8087L-26.5361 -34.7918L-26.7207 -35.7806L-26.8786 -36.7743L-27.0097 -37.7725L-27.1139 -38.7743L-27.1912 -39.7791L-27.2418 -40.7863L-27.2656 -41.7952L-27.2628 -42.8052L-27.2335 -43.8155L-27.1779 -44.8256L-27.0962 -45.8347L-26.9887 -46.8423L-26.8557 -47.8477L-26.6975 -48.8503L-26.5144 -49.8495L-26.3069 -50.8446L-26.0753 -51.8352L-25.8202 -52.8205L-25.542 -53.8001L-25.2413 -54.7735L-24.9185 -55.7401L-24.5743 -56.6994L-24.2093 -57.651L-23.8242 -58.5944L-23.4195 -59.5292L-22.996 -60.455L-22.5545 -61.3714L-22.0955 -62.2782L-21.62 -63.1748L-21.1287 -64.0612L-20.6224 -64.937L-20.1018 -65.8021L-19.5678 -66.6561L-19.0211 -67.499L-18.4626 -68.3306L-17.8929 -69.1508L-17.313 -69.9595L-16.7235 -70.7567L-16.1252 -71.5423L-15.5188 -72.3164L-14.9052 -73.0789L-14.2851 -73.8299L-13.6591 -74.5696L-13.0281 -75.2979L-12.3928 -76.0151L-11.7539 -76.7214L-11.1121 -77.4168L-10.4681 -78.1016L-9.82262 -78.7761L-9.1763 -79.4405L-8.52985 -80.0951L-7.88393 -80.7403L-7.23917 -81.3763L-6.59621 -82.0035L-5.95566 -82.6224L-5.31816 -83.2333L-4.68426 -83.8367L-4.05457 -84.433L-3.42959 -85.0226L-2.80989 -85.6062L-2.19596 -86.1842L-1.58829 -86.7571L-0.987342 -87.3255L-0.393536 -87.89L0.192719 -88.4511L0.771054 -89.0094L1.34113 -89.5655L1.90264 -90.12L2.45532 -90.6735L2.99893 -91.2267L3.53327 -91.7801L4.05819 -92.3343L4.57357 -92.89L5.07932 -93.4477L5.5754 -94.0081L6.0618 -94.5718L6.53857 -95.1392L7.00576 -95.7111L7.4635 -96.2878L7.91194 -96.8701L8.35128 -97.4583L8.78174 -98.0529L9.20358 -98.6545L9.61712 -99.2635L10.0227 -99.8803L10.4207 -100.505L10.8115 -101.139L11.1955 -101.781L11.5733 -102.433L11.9454 -103.093L12.3122 -103.764L12.6743 -104.444L13.0324 -105.135L13.387 -105.835L13.7387 -106.545L14.0883 -107.266L14.4363 -107.997L14.7835 -108.737L15.1304 -109.488L15.478 -110.249L15.8268 -111.019L16.1775 -111.798L16.531 -112.587L16.8878 -113.385L17.2488 -114.19L17.6146 -115.004L17.986 -115.826L18.3636 -116.654L18.7482 -117.49L19.1403 -118.331L19.5408 -119.178L19.9501 -120.03L20.369 -120.885L20.7981 -121.745L21.2379 -122.607L21.6889 -123.472L22.1518 -124.338L22.627 -125.204L23.1149 -126.07L23.616 -126.936L24.1308 -127.799L24.6595 -128.66L25.2026 -129.518L25.7603 -130.371L26.3329 -131.219L26.9207 -132.061L27.5238 -132.897L28.1424 -133.724L28.7767 -134.543L29.4269 -135.352L30.093 -136.151L30.7751 -136.938L31.4733 -137.712L32.1875 -138.473L32.9178 -139.219L33.664 -139.95L34.426 -140.663L35.2038 -141.359L35.997 -142.037L36.8056 -142.694L37.6291 -143.331L38.4674 -143.946L39.32 -144.538L40.1865 -145.107L41.0666 -145.651L41.9597 -146.17L42.8654 -146.663L43.7832 -147.129L44.7124 -147.567L45.6524 -147.977L46.6027 -148.358L47.5625 -148.709L48.5312 -149.029L49.508 -149.319L50.4923 -149.577L51.4832 -149.804L52.4801 -149.998L53.482 -150.158L54.4881 -150.286L55.4978 -150.38L56.51 -150.44L57.524 -150.466L58.5388 -150.457L59.5536 -150.414L60.5675 -150.336L61.5796 -150.223L62.5891 -150.075L63.5949 -149.893L64.5962 -149.677L65.5923 -149.427L66.5821 -149.144L67.5649 -148.829L68.54 -148.481L69.5065 -148.103L70.4637 -147.695L71.411 -147.258L72.3477 -146.793L73.2733 -146.301L74.1872 -145.784L75.089 -145.242L75.9783 -144.677L76.8546 -144.091L77.7178 -143.485L78.5676 -142.861L79.4038 -142.219L80.2265 -141.562L81.0355 -140.892L81.831 -140.21L82.613 -139.517L83.3818 -138.815L84.1377 -138.106L84.881 -137.392L85.612 -136.674L86.3313 -135.953L87.0394 -135.232L87.7368 -134.512L88.4243 -133.794L89.1024 -133.08L89.772 -132.371L90.4339 -131.669L91.0888 -130.974L91.7376 -130.288L92.3813 -129.612L93.0206 -128.947L93.6567 -128.294L94.2903 -127.655L94.9226 -127.028L95.5543 -126.416L96.1866 -125.819L96.8203 -125.237L97.4564 -124.67L98.0959 -124.119L98.7395 -123.585L99.3881 -123.066L100.043 -122.564L100.704 -122.077L101.372 -121.607L102.049 -121.151L102.734 -120.71L103.429 -120.284L104.133 -119.871L104.848 -119.471L105.572 -119.084L106.308 -118.708L107.054 -118.342L107.811 -117.985L108.579 -117.635L109.357 -117.293L110.145 -116.955L110.943 -116.622L111.75 -116.29L112.565 -115.96L113.388 -115.629L114.217 -115.296L115.052 -114.959L115.892 -114.617L116.734 -114.268L117.58 -113.911L118.426 -113.545L119.271 -113.168L120.114 -112.778L120.954 -112.375L121.789 -111.958L122.617 -111.525L123.437 -111.075L124.247 -110.607L125.046 -110.121L125.832 -109.616L126.602 -109.091L127.357 -108.546L128.094 -107.98L128.811 -107.392L129.508 -106.784L130.183 -106.154L130.834 -105.503L131.46 -104.831L132.061 -104.138L132.635 -103.425L133.181 -102.692L133.699 -101.939L134.187 -101.167L134.645 -100.377L135.073 -99.57L135.47 -98.7459L135.834 -97.9059L136.167 -97.0508L136.468 -96.1816L136.736 -95.2991L136.971 -94.4044L137.173 -93.4984L137.343 -92.5821L137.48 -91.6566L137.584 -90.723L137.656 -89.7822L137.696 -88.8354L137.705 -87.8835L137.683 -86.9278L137.631 -85.9691L137.548 -85.0087L137.437 -84.0474L137.298 -83.0863L137.131 -82.1264L136.938 -81.1685L136.719 -80.2138L136.476 -79.2629L136.21 -78.3169L135.921 -77.3764L135.612 -76.4423L135.282 -75.5152L134.934 -74.596L134.568 -73.6851L134.186 -72.7831L133.79 -71.8907L133.379 -71.0082L132.957 -70.1361L132.524 -69.2748L132.081 -68.4245L131.63 -67.5856L131.172 -66.7582L130.708 -65.9424L130.24 -65.1384L129.768 -64.3463L129.295 -63.5659L128.821 -62.7973L128.347 -62.0404L127.875 -61.2949L127.405 -60.5608L126.939 -59.8377L126.478 -59.1255L126.022 -58.4237L125.572 -57.732L125.13 -57.0501L124.695 -56.3775L124.27 -55.7138L123.853 -55.0585L123.447 -54.4111L123.051 -53.7712L122.666 -53.1381L122.292 -52.5115L121.93 -51.8907L121.58 -51.2751L121.241 -50.6644L120.914 -50.058L120.598 -49.4554L120.292 -48.8562L119.998 -48.2599L119.713 -47.6661L119.438 -47.0744L119.172 -46.4847L118.914 -45.8964L118.663 -45.3095L118.419 -44.7236L118.181 -44.1387L117.948 -43.5546L117.719 -42.9712L117.494 -42.3884L117.271 -41.8062L117.05 -41.2248L116.829 -40.644L116.609 -40.064L116.388 -39.485L116.166 -38.907L115.941 -38.3303L115.714 -37.7549L115.483 -37.1811L115.248 -36.6091L115.008 -36.039L114.764 -35.4712L114.514 -34.9057L114.259 -34.3427L113.998 -33.7825L113.731 -33.2252L113.458 -32.6709L113.179 -32.1196L112.894 -31.5715L112.603 -31.0266L112.305 -30.4849L112.003 -29.9465L111.694 -29.4113L111.38 -28.8793L111.061 -28.3505L110.737 -27.8249L110.407 -27.3024L110.073 -26.7829L109.735 -26.2662L109.392 -25.7524L109.045 -25.2412L108.695 -24.7326L108.34 -24.2263L107.983 -23.7223L107.621 -23.2203L107.257 -22.7202L106.89 -22.2217L106.521 -21.7247L106.149 -21.229L105.774 -20.7343L105.398 -20.2404L105.019 -19.7473L104.638 -19.2545L104.256 -18.762L103.871 -18.2695L103.485 -17.7769L103.097 -17.2839L102.707 -16.7904L102.316 -16.2962L101.922 -15.8011L101.527 -15.3051L101.13 -14.8079L100.731 -14.3095L100.33 -13.8098L99.9269 -13.3087L99.5215 -12.8061L99.1136 -12.3019L98.7031 -11.7962L98.2898 -11.2889L97.8737 -10.78L97.4544 -10.2695L97.0318 -9.75754L96.6058 -9.2441L96.1761 -8.72926L95.7424 -8.2131L95.3047 -7.69573L94.8626 -7.17726L94.4161 -6.65782L93.9648 -6.13755L93.5085 -5.6166L93.0472 -5.09513L92.5805 -4.5733L92.1083 -4.05129L91.6304 -3.52927L91.1467 -3.00743L90.6569 -2.48595L90.1609 -1.96501L89.6586 -1.44482L89.1498 -0.925588L88.6342 -0.40761L88.1119 0.108749L87.5824 0.623106L87.0457 1.135L86.5015 1.64395L85.9496 2.14942L85.3899 2.65086L84.8222 3.14768L84.2464 3.63927L83.6623 4.12502L83.0699 4.60427L82.469 5.07642L81.8596 5.54079L81.2417 5.99675L80.6152 6.44367L79.9803 6.88094L79.3369 7.30793L78.6851 7.72405L78.0251 8.12873L77.357 8.52142L76.681 8.9016L75.9971 9.26876L75.3057 9.6224L74.607 9.96211L73.9012 10.2874L73.1885 10.598L72.4694 10.8934L71.7439 11.1733L71.0126 11.4374L70.2757 11.6854L69.5335 11.917L68.7863 12.1319L68.0347 12.3298L67.2788 12.5105L66.5191 12.6737L65.756 12.8192L64.9899 12.9469L64.2211 13.0565L63.4501 13.1481L62.6773 13.2216L61.9031 13.2772L61.1279 13.315L60.352 13.3351L59.576 13.3379L58.8 13.3237L58.0245 13.2928L57.2499 13.2457L56.4763 13.1827L55.7042 13.1046L54.9337 13.0116L54.1651 12.9046L53.3986 12.784L52.6344 12.6505L51.8726 12.5049L51.1133 12.3478L50.3566 12.1799L49.6025 12.0019L48.8511 11.8147L48.1024 11.6188L47.3562 11.4151L46.6125 11.2043L45.8712 10.9872L45.1321 10.7644L44.3951 10.5366L43.66 10.3045L42.9265 10.0689L42.1944 9.83022L41.4634 9.58919L40.7333 9.34638L40.0036 9.10228L39.2742 8.85743L38.5446 8.61229L37.8146 8.36728L37.0837 8.12276L36.3516 7.87909L35.6179 7.63656L34.8823 7.39539L34.1445 7.1558L33.404 6.91793L32.6605 6.6819L31.9137 6.44773L31.1633 6.21546L30.4089 5.98506L29.6503 5.75642L28.8872 5.52942L28.1193 5.30392L27.3464 5.07967L26.5683 4.85645Z" fill="#FCE1CC" fill-opacity="0.5"/>
<path fill-rule="evenodd" clip-rule="evenodd" d="M-18.6835 97.3459L-19.5473 96.5534L-20.4028 95.757L-21.2504 94.9572L-22.0903 94.1544L-22.923 93.349L-23.7486 92.5413L-24.5675 91.7317L-25.3798 90.9202L-26.1858 90.1072L-26.9855 89.2925L-27.7793 88.4763L-28.5671 87.6586L-29.3489 86.8392L-30.1249 86.0181L-30.895 85.195L-31.6591 84.3698L-32.4171 83.5422L-33.1688 82.7119L-33.9139 81.8785L-34.6522 81.0417L-35.3832 80.201L-36.1066 79.3559L-36.8218 78.506L-37.5283 77.6507L-38.2254 76.7896L-38.9126 75.9221L-39.5891 75.0479L-40.2544 74.1663L-40.9076 73.2771L-41.5481 72.3799L-42.1751 71.4742L-42.7881 70.56L-43.3864 69.637L-43.9694 68.7051L-44.5366 67.7643L-45.0876 66.8146L-45.622 65.8563L-46.1394 64.8894L-46.6394 63.9139L-47.1216 62.9302L-47.5856 61.9383L-48.0309 60.9384L-48.4572 59.9307L-48.8641 58.9155L-49.2514 57.893L-49.6187 56.8635L-49.9658 55.8273L-50.2925 54.7849L-50.5985 53.7365L-50.8837 52.6826L-51.1481 51.6235L-51.3914 50.5598L-51.6137 49.4917L-51.815 48.42L-51.9953 47.3449L-52.1548 46.267L-52.2934 45.1867L-52.4115 44.1048L-52.5093 43.0216L-52.587 41.9376L-52.6452 40.8536L-52.6841 39.7699L-52.7043 38.6873L-52.7064 37.6062L-52.691 36.5272L-52.6588 35.4508L-52.6106 34.3777L-52.5473 33.3082L-52.4697 32.2431L-52.3789 31.1827L-52.2758 30.1276L-52.1617 29.0782L-52.0377 28.035L-51.905 26.9982L-51.765 25.9684L-51.619 24.9457L-51.4683 23.9306L-51.3145 22.9231L-51.1589 21.9235L-51.0031 20.932L-50.8486 19.9485L-50.6968 18.9731L-50.5495 18.0058L-50.408 17.0464L-50.2738 16.0948L-50.1486 15.1507L-50.0337 14.2139L-49.9306 13.284L-49.8406 12.3606L-49.7651 11.4432L-49.7054 10.5314L-49.6626 9.62438L-49.6378 8.72167L-49.6321 7.82256L-49.6465 6.9263L-49.6816 6.03212L-49.7382 5.13924L-49.817 4.24677L-49.9183 3.3539L-50.0426 2.4597L-50.1901 1.56329L-50.3607 0.663788L-50.5545 -0.239768L-50.7712 -1.14824L-51.0106 -2.06257L-51.2721 -2.98363L-51.5552 -3.91222L-51.859 -4.84922L-52.1829 -5.7954L-52.5256 -6.75152L-52.8863 -7.71827L-53.2635 -8.69633L-53.6561 -9.68625L-54.0626 -10.6886L-54.4814 -11.7038L-54.911 -12.7323L-55.3494 -13.7744L-55.795 -14.8303L-56.2457 -15.9002L-56.6999 -16.9841L-57.1556 -18.0822L-57.6112 -19.1943L-58.065 -20.3205L-58.5153 -21.4605L-58.9605 -22.6142L-59.3992 -23.7814L-59.8297 -24.9618L-60.2506 -26.155L-60.6606 -27.3607L-61.0581 -28.5784L-61.4419 -29.8077L-61.8107 -31.0482L-62.1633 -32.2992L-62.4986 -33.5602L-62.8154 -34.8307L-63.1128 -36.1101L-63.3898 -37.3977L-63.6457 -38.693L-63.8796 -39.9952L-64.0906 -41.3037L-64.2779 -42.6177L-64.4406 -43.9365L-64.5781 -45.2594L-64.6895 -46.5854L-64.7741 -47.9137L-64.8311 -49.2434L-64.8598 -50.5736L-64.8595 -51.9034L-64.8297 -53.2317L-64.7696 -54.5576L-64.6787 -55.88L-64.5564 -57.1979L-64.4022 -58.5103L-64.2157 -59.816L-63.9965 -61.114L-63.7441 -62.4032L-63.4583 -63.6824L-63.1387 -64.9507L-62.7854 -66.2068L-62.398 -67.4497L-61.9765 -68.6783L-61.5208 -69.8916L-61.0312 -71.0885L-60.5077 -72.268L-59.9504 -73.4292L-59.3598 -74.5711L-58.736 -75.6927L-58.0795 -76.7933L-57.3908 -77.872L-56.6704 -78.928L-55.9189 -79.9607L-55.1369 -80.9694L-54.3253 -81.9534L-53.4847 -82.9122L-52.6159 -83.8454L-51.7199 -84.7524L-50.7976 -85.6331L-49.8499 -86.487L-48.8777 -87.314L-47.8823 -88.1139L-46.8645 -88.8866L-45.8255 -89.632L-44.7663 -90.3502L-43.6881 -91.0414L-42.592 -91.7055L-41.4791 -92.3429L-40.3504 -92.9539L-39.2073 -93.5386L-38.0507 -94.0976L-36.8817 -94.6311L-35.7014 -95.1397L-34.5109 -95.6238L-33.3112 -96.0841L-32.1034 -96.5209L-30.8883 -96.935L-29.667 -97.3269L-28.4404 -97.6973L-27.2093 -98.0468L-25.9746 -98.3761L-24.737 -98.6858L-23.4974 -98.9767L-22.2564 -99.2493L-21.0147 -99.5043L-19.7729 -99.7425L-18.5317 -99.9645L-17.2915 -100.171L-16.0528 -100.362L-14.8161 -100.539L-13.5819 -100.702L-12.3503 -100.851L-11.1218 -100.988L-9.89667 -101.112L-8.67507 -101.224L-7.45722 -101.324L-6.24329 -101.413L-5.03341 -101.49L-3.82768 -101.557L-2.62621 -101.612L-1.42902 -101.657L-0.236224 -101.69L0.952194 -101.713L2.13616 -101.726L3.31568 -101.727L4.4907 -101.718L5.6612 -101.698L6.82718 -101.667L7.98858 -101.626L9.14538 -101.573L10.2976 -101.509L11.445 -101.434L12.5877 -101.348L13.7256 -101.251L14.8586 -101.143L15.9866 -101.023L17.1095 -100.893L18.2272 -100.753L19.3395 -100.602L20.4464 -100.441L21.5477 -100.271L22.6433 -100.092L23.7331 -99.9049L24.8171 -99.7099L25.8952 -99.5073L26.9675 -99.2976L28.0339 -99.0811L29.0943 -98.8581L30.1489 -98.6288L31.1977 -98.3936L32.2407 -98.1527L33.2778 -97.9063L34.3093 -97.6546L35.3352 -97.3979L36.3554 -97.1362L37.3701 -96.8697L38.3794 -96.5986L39.3833 -96.3228L40.3818 -96.0424L41.3752 -95.7575L42.3633 -95.4681L43.3464 -95.1743L44.3244 -94.876L45.2974 -94.5732L46.2656 -94.266L47.2289 -93.9544L48.1874 -93.6384L49.1412 -93.3181L50.0903 -92.9935L51.0349 -92.6647L51.9749 -92.3317L52.9106 -91.9947L53.8419 -91.6539L54.769 -91.3094L55.6919 -90.9614L56.6109 -90.6101L57.5261 -90.2558L58.4375 -89.8988L59.3455 -89.5394L60.2501 -89.1779L61.1517 -88.8147L62.0504 -88.4501L62.9466 -88.0846L63.8405 -87.7187L64.7324 -87.3526L65.6227 -86.9869L66.5117 -86.6221L67.3999 -86.2585L68.2876 -85.8967L69.1753 -85.537L70.0634 -85.18L70.9524 -84.826L71.8428 -84.4755L72.7352 -84.1288L73.6299 -83.7862L74.5277 -83.4482L75.4289 -83.115L76.3341 -82.7867L77.2439 -82.4637L78.1588 -82.146L79.0793 -81.8338L80.0059 -81.5271L80.9392 -81.2258L81.8795 -80.9298L82.8274 -80.6391L83.7832 -80.3535L84.7474 -80.0725L85.7202 -79.796L86.702 -79.5236L87.693 -79.2547L88.6934 -78.9888L89.7035 -78.7254L90.7232 -78.4639L91.7527 -78.2035L92.7919 -77.9436L93.8407 -77.6833L94.8991 -77.4219L95.9669 -77.1585L97.0438 -76.8922L98.1293 -76.6221L99.2233 -76.3471L100.325 -76.0664L101.434 -75.7788L102.55 -75.4834L103.672 -75.1792L104.799 -74.8653L105.932 -74.541L107.068 -74.2055L108.209 -73.8581L109.353 -73.4983L110.499 -73.1253L111.648 -72.7386L112.798 -72.3377L113.949 -71.9222L115.101 -71.4915L116.252 -71.0453L117.403 -70.5832L118.552 -70.1048L119.7 -69.6098L120.845 -69.0979L121.987 -68.5689L123.125 -68.0226L124.26 -67.4587L125.39 -66.8771L126.515 -66.2776L127.634 -65.66L128.746 -65.024L129.851 -64.3696L130.949 -63.6965L132.037 -63.0046L133.116 -62.2937L134.185 -61.5636L135.243 -60.8141L136.289 -60.0451L137.321 -59.2565L138.339 -58.4481L139.343 -57.62L140.33 -56.7719L141.3 -55.904L142.252 -55.0161L143.184 -54.1085L144.096 -53.181L144.987 -52.2339L145.855 -51.2672L146.7 -50.2812L147.52 -49.2762L148.315 -48.2523L149.083 -47.2099L149.823 -46.1494L150.534 -45.071L151.216 -43.9754L151.867 -42.8628L152.486 -41.734L153.073 -40.5893L153.627 -39.4293L154.146 -38.2548L154.631 -37.0664L155.079 -35.8647L155.491 -34.6506L155.866 -33.4246L156.203 -32.1878L156.502 -30.9408L156.762 -29.6845L156.983 -28.4199L157.164 -27.1477L157.304 -25.869L157.404 -24.5847L157.464 -23.2957L157.482 -22.0029L157.46 -20.7075L157.396 -19.4104L157.291 -18.1126L157.145 -16.815L156.959 -15.5188L156.731 -14.225L156.463 -12.9345L156.155 -11.6483L155.807 -10.3675L155.421 -9.09306L154.995 -7.82593L154.531 -6.56707L154.03 -5.31742L153.492 -4.07789L152.918 -2.84939L152.309 -1.63277L151.666 -0.428864L150.99 0.761535L150.282 1.93765L149.542 3.09877L148.773 4.24418L147.975 5.37326L147.149 6.48539L146.297 7.58001L145.42 8.6566L144.519 9.71469L143.595 10.7538L142.65 11.7737L141.684 12.7738L140.7 13.754L139.698 14.714L138.68 15.6535L137.647 16.5723L136.599 17.4704L135.539 18.3477L134.468 19.2041L133.387 20.0396L132.297 20.8542L131.199 21.6482L130.096 22.4217L128.989 23.1749L127.878 23.9081L126.766 24.6217L125.654 25.3162L124.543 25.9919L123.436 26.6494L122.333 27.2895L121.237 27.9126L120.148 28.5197L119.069 29.1115L118 29.6889L116.945 30.2531L115.904 30.805L114.879 31.3457L113.872 31.8767L112.885 32.3991L111.918 32.9143L110.974 33.4236L110.054 33.9284L109.158 34.4301L108.287 34.93L107.443 35.4294L106.626 35.9298L105.837 36.4324L105.075 36.9386L104.342 37.4496L103.637 37.9667L102.961 38.4909L102.312 39.0236L101.692 39.5656L101.1 40.1182L100.534 40.6822L99.9957 41.2586L99.483 41.8483L98.9957 42.4519L98.5327 43.0703L98.0933 43.7041L97.6764 44.3538L97.281 45.0199L96.906 45.7029L96.5501 46.4031L96.2122 47.1208L95.8909 47.856L95.585 48.6091L95.293 49.3799L95.0136 50.1684L94.7454 50.9744L94.4869 51.7978L94.2367 52.6383L93.9933 53.4955L93.7554 54.369L93.5213 55.2582L93.2898 56.1626L93.0593 57.0817L92.8284 58.0145L92.5959 58.9606L92.3602 59.9189L92.1202 60.8887L91.8745 61.8691L91.6218 62.8591L91.3611 63.8579L91.0911 64.8642L90.8107 65.8772L90.519 66.8959L90.2149 67.919L89.8976 68.9456L89.5662 69.9746L89.2198 71.0049L88.8579 72.0355L88.4798 73.0653L88.0848 74.0933L87.6724 75.1184L87.2423 76.1397L86.7941 77.1563L86.3274 78.1672L85.842 79.1716L85.3377 80.1687L84.8145 81.1576L84.2722 82.1377L83.7109 83.1083L83.1305 84.0688L82.5313 85.0186L81.9134 85.9572L81.2769 86.8842L80.622 87.7993L79.949 88.7019L79.2582 89.5918L78.5499 90.4687L77.8243 91.3325L77.0818 92.1827L76.3226 93.0193L75.5471 93.8419L74.7557 94.6505L73.9486 95.4448L73.1263 96.2249L72.289 96.9905L71.4372 97.7415L70.5711 98.478L69.6911 99.2L68.7978 99.9077L67.8915 100.601L66.9725 101.281L66.0414 101.948L65.0984 102.601L64.1441 103.242L63.1786 103.87L62.2023 104.487L61.2155 105.091L60.2185 105.685L59.2115 106.267L58.1946 106.838L57.1681 107.397L56.132 107.946L55.0866 108.483L54.0319 109.008L52.9681 109.522L51.8952 110.022L50.8133 110.51L49.7226 110.984L48.6234 111.444L47.5156 111.889L46.3995 112.319L45.2753 112.733L44.1433 113.13L43.0036 113.51L41.8566 113.872L40.7026 114.215L39.5417 114.539L38.3746 114.843L37.2013 115.126L36.0225 115.387L34.8385 115.627L33.6497 115.843L32.4567 116.036L31.2599 116.205L30.0599 116.35L28.8572 116.469L27.6523 116.562L26.4459 116.629L25.2385 116.669L24.0308 116.683L22.8233 116.669L21.6167 116.628L20.4117 116.558L19.2088 116.461L18.0088 116.335L16.8121 116.182L15.6196 116L14.4318 115.789L13.2493 115.551L12.0727 115.285L10.9026 114.992L9.73956 114.671L8.58416 114.323L7.4369 113.949L6.29826 113.549L5.16869 113.123L4.04866 112.672L2.93851 112.197L1.83865 111.699L0.749366 111.178L-0.32904 110.635L-1.39635 110.07L-2.45236 109.486L-3.49693 108.882L-4.52991 108.259L-5.55128 107.619L-6.56098 106.962L-7.55905 106.29L-8.54553 105.603L-9.52051 104.902L-10.4842 104.189L-11.4366 103.464L-12.3781 102.728L-13.3088 101.982L-14.2291 101.227L-15.1391 100.464L-16.0393 99.6936L-16.9298 98.9166L-17.8111 98.1338L-18.6835 97.3459Z" fill="#980138" fill-opacity="0.5"/>
<path fill-rule="evenodd" clip-rule="evenodd" d="M-40.8469 91.4469L-41.9647 91.1609L-43.0802 90.8572L-44.193 90.5357L-45.303 90.1966L-46.4096 89.8395L-47.5125 89.4647L-48.6115 89.072L-49.7062 88.6616L-50.7962 88.2334L-51.8812 87.7875L-52.961 87.324L-54.0351 86.843L-55.1034 86.3446L-56.1654 85.8287L-57.221 85.2957L-58.2698 84.7455L-59.3116 84.1784L-60.346 83.5945L-61.3729 82.9939L-62.392 82.3768L-63.4031 81.7434L-64.4058 81.0939L-65.4001 80.4283L-66.3856 79.747L-67.3621 79.0501L-68.3295 78.3378L-69.2876 77.6103L-70.236 76.8678L-71.1748 76.1105L-72.1036 75.3386L-73.0223 74.5524L-73.9308 73.752L-74.8289 72.9377L-75.7163 72.1097L-76.593 71.2681L-77.4589 70.4133L-78.3137 69.5454L-79.1573 68.6646L-79.9897 67.7712L-80.8106 66.8654L-81.6199 65.9473L-82.4176 65.0172L-83.2034 64.0754L-83.9773 63.1219L-84.7391 62.1571L-85.4888 61.1811L-86.2262 60.1942L-86.9512 59.1965L-87.6636 58.1882L-88.3635 57.1697L-89.0507 56.1409L-89.725 55.1023L-90.3864 54.0539L-91.0347 52.996L-91.6699 51.9287L-92.2918 50.8523L-92.9004 49.7669L-93.4956 48.6728L-94.0772 47.5702L-94.6451 46.4592L-95.1993 45.34L-95.7396 44.2129L-96.266 43.0779L-96.7783 41.9355L-97.2764 40.7856L-97.7603 39.6285L-98.2298 38.4645L-98.6849 37.2936L-99.1253 36.1161L-99.5511 34.9323L-99.9622 33.7422L-100.358 32.5462L-100.739 31.3443L-101.106 30.1368L-101.456 28.924L-101.792 27.7059L-102.112 26.4828L-102.417 25.255L-102.706 24.0226L-102.979 22.7858L-103.237 21.5449L-103.478 20.3L-103.704 19.0515L-103.913 17.7994L-104.106 16.5441L-104.283 15.2858L-104.443 14.0246L-104.587 12.7609L-104.714 11.4949L-104.824 10.2268L-104.917 8.9568L-104.994 7.68525L-105.053 6.41235L-105.096 5.13834L-105.121 3.86349L-105.129 2.58808L-105.12 1.31233L-105.094 0.0365128L-105.05 -1.23911L-104.989 -2.51428L-104.911 -3.78873L-104.816 -5.06221L-104.703 -6.33444L-104.573 -7.60516L-104.426 -8.87413L-104.262 -10.141L-104.08 -11.4057L-103.881 -12.6677L-103.664 -13.927L-103.431 -15.1831L-103.18 -16.4359L-102.912 -17.685L-102.627 -18.9302L-102.325 -20.1713L-102.006 -21.4079L-101.67 -22.6397L-101.316 -23.8666L-100.946 -25.0883L-100.559 -26.3043L-100.155 -27.5146L-99.734 -28.7188L-99.2964 -29.9166L-98.8421 -31.1077L-98.371 -32.292L-97.8835 -33.4689L-97.3793 -34.6385L-96.8587 -35.8002L-96.3217 -36.9538L-95.7684 -38.0991L-95.1989 -39.2358L-94.6133 -40.3635L-94.0116 -41.4821L-93.3941 -42.5911L-92.7607 -43.6904L-92.1116 -44.7797L-91.4469 -45.8586L-90.7668 -46.9269L-90.0714 -47.9844L-89.3609 -49.0307L-88.6355 -50.0656L-87.8953 -51.0889L-87.1404 -52.1003L-86.3711 -53.0994L-85.5877 -54.0863L-84.7902 -55.0605L-83.979 -56.0218L-83.1543 -56.9701L-82.3163 -57.9051L-81.4654 -58.8267L-80.6016 -59.7347L-79.7253 -60.6288L-78.8369 -61.5089L-77.9364 -62.3748L-77.0243 -63.2264L-76.1007 -64.0634L-75.166 -64.8858L-74.2203 -65.6933L-73.2641 -66.4859L-72.2976 -67.2633L-71.3209 -68.0255L-70.3346 -68.7723L-69.3388 -69.5037L-68.3337 -70.2194L-67.3198 -70.9194L-66.2973 -71.6035L-65.2665 -72.2718L-64.2277 -72.924L-63.1812 -73.5602L-62.1273 -74.1803L-61.0662 -74.7841L-59.9984 -75.3716L-58.924 -75.9428L-57.8435 -76.4977L-56.757 -77.0362L-55.665 -77.5582L-54.5677 -78.0638L-53.4653 -78.5529L-52.3583 -79.0256L-51.2469 -79.4818L-50.1314 -79.9216L-49.0122 -80.3449L-47.8894 -80.7518L-46.7634 -81.1423L-45.6345 -81.5164L-44.5031 -81.8743L-43.3693 -82.2159L-42.2335 -82.5414L-41.0959 -82.8508L-39.957 -83.1441L-38.8169 -83.4216L-37.6759 -83.6832L-36.5343 -83.9291L-35.3924 -84.1594L-34.2504 -84.3742L-33.1086 -84.5737L-31.9673 -84.7579L-30.8267 -84.927L-29.687 -85.0811L-28.5486 -85.2204L-27.4116 -85.345L-26.2763 -85.4551L-25.1429 -85.5507L-24.0116 -85.6321L-22.8826 -85.6994L-21.7561 -85.7527L-20.6324 -85.7922L-19.5116 -85.8181L-18.3938 -85.8304L-17.2794 -85.8293L-16.1685 -85.8151L-15.0612 -85.7877L-13.9577 -85.7474L-12.8581 -85.6943L-11.7627 -85.6285L-10.6715 -85.5501L-9.58476 -85.4594L-8.50256 -85.3563L-7.42506 -85.2411L-6.35238 -85.1138L-5.28465 -84.9746L-4.22201 -84.8236L-3.16458 -84.6608L-2.11248 -84.4865L-1.06583 -84.3006L-0.0247462 -84.1034L1.01064 -83.8948L2.04024 -83.6751L3.06393 -83.4442L4.08158 -83.2024L5.09311 -82.9496L6.0984 -82.686L7.09733 -82.4117L8.08981 -82.1267L9.07573 -81.8313L10.055 -81.5254L11.0275 -81.2092L11.9931 -80.8828L12.9517 -80.5463L13.9033 -80.1999L14.8477 -79.8436L15.7848 -79.4775L16.7146 -79.1019L17.637 -78.7168L18.5518 -78.3224L19.459 -77.9188L20.3586 -77.506L21.2503 -77.0842L22.1342 -76.6535L23.0101 -76.2139L23.878 -75.7657L24.7377 -75.3088L25.5893 -74.8434L26.4325 -74.3696L27.2674 -73.8875L28.0938 -73.397L28.9116 -72.8985L29.7208 -72.3918L30.5213 -71.8772L31.313 -71.3547L32.0958 -70.8244L32.8696 -70.2863L33.6343 -69.7407L34.3899 -69.1876L35.1362 -68.6271L35.8733 -68.0593L36.6009 -67.4843L37.3191 -66.9022L38.0277 -66.3132L38.7267 -65.7174L39.416 -65.1149L40.0956 -64.5058L40.7653 -63.8903L41.4251 -63.2685L42.075 -62.6405L42.7148 -62.0066L43.3446 -61.3668L43.9643 -60.7214L44.5739 -60.0703L45.1732 -59.4139L45.7623 -58.7521L46.341 -58.0853L46.9094 -57.4133L47.4673 -56.7365L48.0148 -56.055L48.5517 -55.3688L49.078 -54.678L49.5936 -53.983L50.0986 -53.2837L50.5928 -52.5802L51.0763 -51.8729L51.5489 -51.1617L52.0107 -50.4468L52.4615 -49.7284L52.9015 -49.0067L53.3305 -48.2817L53.7485 -47.5536L54.1555 -46.8227L54.5516 -46.089L54.9366 -45.3528L55.3107 -44.6141L55.6737 -43.8733L56.0258 -43.1304L56.367 -42.3857L56.6972 -41.6393L57.0165 -40.8914L57.3251 -40.1422L57.6228 -39.392L57.9098 -38.6408L58.1862 -37.8889L58.452 -37.1365L58.7073 -36.3837L58.9523 -35.6308L59.1869 -34.878L59.4114 -34.1254L59.6258 -33.3733L59.8303 -32.6218L60.0251 -31.8712L60.2101 -31.1215L60.3857 -30.3731L60.552 -29.626L60.7091 -28.8804L60.8571 -28.1366L60.9964 -27.3946L61.127 -26.6547L61.2491 -25.917L61.363 -25.1816L61.4688 -24.4487L61.5668 -23.7184L61.6571 -22.9909L61.74 -22.2662L61.8156 -21.5445L61.8843 -20.8259L61.9461 -20.1105L62.0014 -19.3984L62.0504 -18.6897L62.0932 -17.9844L62.1301 -17.2826L62.1614 -16.5844L62.1872 -15.8899L62.2078 -15.199L62.2234 -14.5118L62.2343 -13.8283L62.2405 -13.1486L62.2424 -12.4727L62.2402 -11.8005L62.2341 -11.1321L62.2242 -10.4674L62.2109 -9.80648L62.1942 -9.14923L62.1743 -8.49564L62.1516 -7.84565L62.126 -7.19924L62.0979 -6.55634L62.0674 -5.91688L62.0346 -5.28079L61.9997 -4.648L61.9628 -4.01843L61.9241 -3.39199L61.8838 -2.76859L61.8419 -2.14813L61.7986 -1.53051L61.754 -0.915635L61.7082 -0.303382L61.6613 0.30635L61.6133 0.913683L61.5645 1.51874L61.5147 2.12163L61.4642 2.72249L61.413 3.32143L61.3612 3.91859L61.3087 4.5141L61.2558 5.10807L61.2024 5.70065L61.1486 6.29198L61.0946 6.88219L61.0403 7.47142L60.9858 8.05981L60.9312 8.6475L60.8766 9.23466L60.822 9.82142L60.7674 10.4079L60.713 10.9944L60.6587 11.5809L60.6047 12.1676L60.5509 12.7548L60.4974 13.3425L60.4442 13.9309L60.3913 14.5202L60.3388 15.1106L60.2866 15.7022L60.2347 16.2953L60.1832 16.8899L60.132 17.4862L60.0811 18.0845L60.0304 18.6848L59.98 19.2874L59.9296 19.8925L59.8794 20.5001L59.8291 21.1104L59.7787 21.7237L59.7282 22.34L59.6773 22.9595L59.626 23.5824L59.5741 24.2087L59.5215 24.8386L59.468 25.4723L59.4135 26.1099L59.3577 26.7514L59.3005 27.3969L59.2417 28.0466L59.1811 28.7006L59.1183 29.3588L59.0533 30.0214L58.9857 30.6884L58.9152 31.3598L58.8417 32.0356L58.7648 32.716L58.6843 33.4007L58.5999 34.0899L58.5111 34.7835L58.4179 35.4814L58.3197 36.1836L58.2164 36.89L58.1076 37.6004L57.9929 38.3148L57.872 39.033L57.7446 39.7549L57.6104 40.4804L57.4689 41.2091L57.32 41.9409L57.1632 42.6757L56.9982 43.4132L56.8247 44.1531L56.6425 44.8953L56.4512 45.6394L56.2505 46.3852L56.0402 47.1323L55.82 47.8806L55.5896 48.6298L55.3488 49.3794L55.0973 50.1293L54.835 50.879L54.5615 51.6283L54.2769 52.3768L53.9807 53.1242L53.673 53.8701L53.3534 54.6142L53.022 55.3562L52.6785 56.0958L52.3228 56.8324L51.9549 57.5659L51.5747 58.2959L51.1821 59.0219L50.777 59.7438L50.3595 60.4611L49.9295 61.1734L49.4869 61.8806L49.0319 62.5822L48.5643 63.2779L48.0844 63.9674L47.592 64.6504L47.0873 65.3266L46.5704 65.9958L46.0414 66.6576L45.5003 67.3118L44.9473 67.9582L44.3825 68.5966L43.8062 69.2268L43.2185 69.8487L42.6195 70.4621L42.0094 71.0668L41.3886 71.6629L40.757 72.2501L40.115 72.8284L39.4628 73.3978L38.8005 73.9582L38.1285 74.5097L37.4468 75.0521L36.7558 75.5856L36.0556 76.1102L35.3465 76.6258L34.6286 77.1326L33.9021 77.6306L33.1674 78.1199L32.4244 78.6006L31.6735 79.0728L30.9148 79.5366L30.1485 79.9921L29.3747 80.4395L28.5936 80.8788L27.8053 81.3102L27.01 81.7338L26.2078 82.1497L25.3988 82.5582L24.5831 82.9592L23.7609 83.353L22.9321 83.7397L22.0969 84.1194L21.2553 84.4922L20.4074 84.8582L19.5533 85.2175L18.6929 85.5703L17.8264 85.9166L16.9537 86.2565L16.0748 86.5901L15.1898 86.9174L14.2987 87.2384L13.4014 87.5532L12.498 87.8618L11.5884 88.1642L10.6726 88.4605L9.75065 88.7504L8.82248 89.0341L7.88808 89.3114L6.94743 89.5822L6.0005 89.8465L5.04728 90.1042L4.08777 90.355L3.12195 90.5989L2.14981 90.8357L1.17136 91.0652L0.18659 91.2871L-0.804465 91.5013L-1.8018 91.7075L-2.80536 91.9056L-3.81514 92.0952L-4.83107 92.2761L-5.8531 92.448L-6.88116 92.6107L-7.91518 92.7638L-8.95506 92.9072L-10.0007 93.0404L-11.052 93.1633L-12.1089 93.2754L-13.1711 93.3766L-14.2386 93.4664L-15.3112 93.5446L-16.3887 93.6108L-17.471 93.6648L-18.5578 93.7062L-19.6489 93.7347L-20.7442 93.7501L-21.8434 93.7519L-22.9462 93.7399L-24.0524 93.7138L-25.1617 93.6733L-26.2739 93.6181L-27.3886 93.5479L-28.5056 93.4625L-29.6246 93.3615L-30.7451 93.2448L-31.867 93.112L-32.9898 92.963L-34.1133 92.7974L-35.237 92.6152L-36.3606 92.416L-37.4838 92.1997L-38.6061 91.9662L-39.7273 91.7153L-40.8469 91.4469Z" fill="#311629" fill-opacity="0.5"/>
</svg>
