<svg width="319" height="272" viewBox="0 0 319 272" fill="none" xmlns="http://www.w3.org/2000/svg">
<g opacity="0.29">
<path d="M163.998 770.128L163.998 574.593M311.175 379.057L163.998 379.057L163.998 574.593M311.175 379.057L311.175 79.2956M311.175 379.057L218.363 286.245M125.551 79.2956L125.551 193.433L218.363 286.245M163.998 574.593L68.1822 478.777L68.1822 79.2956M218.363 286.245L218.363 156.789" stroke="#980138" stroke-width="5" stroke-linecap="round" stroke-linejoin="round"/>
<circle cx="311.175" cy="79.2956" r="7.20869" transform="rotate(-180 311.175 79.2956)" fill="#980138"/>
<circle cx="218.664" cy="154.987" r="7.20869" transform="rotate(-180 218.664 154.987)" fill="#980138"/>
<circle cx="251.703" cy="233.682" r="6.60796" transform="rotate(-180 251.703 233.682)" fill="#F28C8F"/>
<circle cx="6.60798" cy="196.437" r="6.60796" transform="rotate(-180 6.60798 196.437)" fill="#F28C8F"/>
<circle cx="124.951" cy="80.497" r="7.20869" transform="rotate(-180 124.951 80.497)" fill="#980138"/>
<circle cx="163.998" cy="6.60796" r="6.60796" transform="rotate(-180 163.998 6.60796)" fill="#F28C8F"/>
<circle cx="68.4826" cy="79.2956" r="7.20869" transform="rotate(-180 68.4826 79.2956)" fill="#980138"/>
<path d="M163.998 379.658L163.998 5.40651M163.998 379.658L251.703 467.363M163.998 379.658L6.60793 379.658L6.60795 197.638M251.703 467.363L251.703 234.282M251.703 467.363L251.703 589.911" stroke="#F28C8F" stroke-width="5" stroke-linecap="round" stroke-linejoin="round"/>
</g>
</svg>
