<svg width="396" height="465" viewBox="0 0 396 465" fill="none" xmlns="http://www.w3.org/2000/svg">
<path fill-rule="evenodd" clip-rule="evenodd" d="M302.786 369.042L301.424 369.189L300.047 369.366L298.651 369.572L297.236 369.806L295.801 370.066L294.344 370.348L292.863 370.651L291.358 370.973L289.829 371.309L288.273 371.659L286.692 372.017L285.085 372.382L283.451 372.749L281.792 373.115L280.106 373.477L278.396 373.831L276.662 374.171L274.906 374.495L273.129 374.796L271.334 375.071L269.522 375.313L267.699 375.518L265.866 375.68L264.028 375.792L262.189 375.849L260.355 375.846L258.531 375.776L256.722 375.633L254.934 375.414L253.174 375.113L251.447 374.726L249.76 374.25L248.117 373.682L246.527 373.021L244.992 372.266L243.521 371.415L242.116 370.47L240.782 369.431L239.525 368.301L238.347 367.081L237.251 365.775L236.239 364.387L235.315 362.921L234.478 361.382L233.73 359.774L233.07 358.105L232.497 356.379L232.011 354.603L231.609 352.783L231.287 350.927L231.044 349.041L230.875 347.131L230.775 345.206L230.738 343.27L230.76 341.331L230.834 339.395L230.953 337.469L231.11 335.558L231.298 333.667L231.509 331.802L231.734 329.967L231.966 328.166L232.197 326.404L232.418 324.682L232.62 323.005L232.796 321.373L232.938 319.788L233.038 318.251L233.089 316.762L233.083 315.321L233.015 313.927L232.878 312.578L232.667 311.272L232.378 310.007L232.008 308.78L231.552 307.586L231.009 306.423L230.379 305.285L229.66 304.169L228.854 303.07L227.962 301.982L226.987 300.901L225.933 299.822L224.804 298.739L223.605 297.648L222.344 296.545L221.027 295.424L219.661 294.281L218.255 293.114L216.819 291.917L215.359 290.689L213.887 289.426L212.41 288.127L210.939 286.791L209.482 285.415L208.048 284.001L206.645 282.548L205.28 281.055L203.961 279.526L202.696 277.959L201.491 276.358L200.355 274.724L199.295 273.059L198.316 271.366L197.426 269.649L196.629 267.911L195.929 266.155L195.332 264.386L194.84 262.606L194.455 260.82L194.18 259.033L194.014 257.247L193.957 255.468L194.011 253.698L194.172 251.942L194.439 250.204L194.809 248.486L195.28 246.792L195.849 245.124L196.51 243.485L197.26 241.879L198.095 240.305L199.009 238.767L199.998 237.266L201.057 235.803L202.18 234.379L203.362 232.994L204.598 231.65L205.883 230.345L207.213 229.08L208.581 227.855L209.983 226.669L211.415 225.521L212.872 224.41L214.35 223.336L215.845 222.297L217.354 221.292L218.872 220.32L220.398 219.38L221.928 218.469L223.459 217.587L224.99 216.733L226.519 215.904L228.043 215.1L229.561 214.32L231.073 213.563L232.577 212.827L234.073 212.111L235.561 211.416L237.041 210.741L238.511 210.084L239.974 209.447L241.429 208.829L242.877 208.229L244.318 207.65L245.754 207.09L247.185 206.551L248.613 206.034L250.037 205.539L251.459 205.068L252.88 204.621L254.301 204.2L255.721 203.805L257.142 203.439L258.564 203.101L259.987 202.793L261.41 202.515L262.832 202.266L264.252 202.045L265.668 201.85L267.077 201.676L268.476 201.521L269.863 201.379L271.234 201.245L272.588 201.115L273.922 200.983L275.236 200.847L276.528 200.7L277.798 200.539L279.044 200.359L280.266 200.157L281.465 199.927L282.641 199.666L283.794 199.37L284.926 199.036L286.037 198.661L287.129 198.242L288.204 197.775L289.264 197.26L290.311 196.694L291.347 196.077L292.375 195.407L293.398 194.686L294.419 193.912L295.44 193.088L296.465 192.215L297.497 191.296L298.538 190.332L299.591 189.329L300.66 188.289L301.748 187.218L302.855 186.119L303.986 185L305.141 183.865L306.323 182.72L307.532 181.573L308.771 180.429L310.04 179.295L311.339 178.179L312.668 177.087L314.027 176.026L315.415 175.003L316.831 174.024L318.274 173.094L319.742 172.221L321.234 171.408L322.746 170.662L324.277 169.987L325.823 169.385L327.382 168.862L328.952 168.418L330.529 168.056L332.109 167.778L333.691 167.583L335.272 167.471L336.847 167.442L338.416 167.493L339.976 167.623L341.524 167.829L343.058 168.107L344.578 168.453L346.082 168.864L347.568 169.333L349.037 169.857L350.488 170.43L351.922 171.047L353.338 171.702L354.737 172.39L356.121 173.108L357.489 173.849L358.844 174.611L360.185 175.389L361.514 176.183L362.83 176.992L364.134 177.814L365.425 178.652L366.701 179.507L367.962 180.382L369.205 181.277L370.428 182.197L371.631 183.141L372.811 184.111L373.966 185.11L375.095 186.138L376.194 187.197L377.262 188.287L378.297 189.411L379.297 190.568L380.258 191.76L381.179 192.986L382.058 194.248L382.892 195.544L383.679 196.875L384.418 198.24L385.108 199.638L385.746 201.067L386.332 202.527L386.865 204.014L387.345 205.527L387.772 207.063L388.147 208.619L388.469 210.192L388.742 211.779L388.966 213.377L389.144 214.981L389.279 216.588L389.374 218.194L389.432 219.795L389.459 221.387L389.458 222.967L389.434 224.531L389.393 226.075L389.34 227.597L389.28 229.093L389.221 230.56L389.166 231.997L389.123 233.4L389.098 234.77L389.097 236.103L389.125 237.4L389.188 238.661L389.291 239.885L389.439 241.072L389.637 242.225L389.889 243.344L390.197 244.431L390.567 245.488L390.998 246.519L391.494 247.525L392.054 248.511L392.679 249.479L393.369 250.434L394.122 251.378L394.935 252.317L395.806 253.253L396.732 254.192L397.707 255.136L398.727 256.089L399.786 257.056L400.878 258.038L401.998 259.04L403.137 260.064L404.29 261.112L405.45 262.186L406.609 263.288L407.763 264.419L408.902 265.579L410.02 266.77L411.108 267.992L412.16 269.243L413.167 270.524L414.122 271.834L415.018 273.17L415.849 274.532L416.609 275.916L417.292 277.321L417.895 278.743L418.412 280.18L418.84 281.628L419.176 283.084L419.416 284.544L419.56 286.005L419.605 287.464L419.551 288.915L419.398 290.357L419.145 291.784L418.794 293.194L418.347 294.584L417.805 295.949L417.173 297.287L416.452 298.596L415.648 299.873L414.765 301.115L413.808 302.322L412.783 303.491L411.696 304.622L410.554 305.715L409.362 306.768L408.128 307.784L406.859 308.762L405.563 309.703L404.245 310.61L402.915 311.484L401.577 312.329L400.241 313.146L398.911 313.938L397.595 314.71L396.297 315.465L395.025 316.206L393.782 316.937L392.573 317.664L391.402 318.389L390.272 319.116L389.186 319.851L388.146 320.596L387.153 321.355L386.208 322.132L385.312 322.93L384.463 323.752L383.661 324.6L382.905 325.477L382.191 326.384L381.518 327.323L380.882 328.295L380.281 329.3L379.709 330.338L379.164 331.409L378.642 332.512L378.137 333.645L377.646 334.808L377.163 335.997L376.686 337.211L376.208 338.447L375.726 339.703L375.237 340.974L374.735 342.258L374.218 343.551L373.683 344.851L373.125 346.153L372.544 347.455L371.935 348.752L371.298 350.042L370.631 351.321L369.931 352.587L369.198 353.834L368.43 355.061L367.627 356.264L366.789 357.439L365.913 358.585L365.002 359.698L364.055 360.775L363.072 361.815L362.054 362.815L361.001 363.772L359.915 364.685L358.796 365.55L357.646 366.367L356.465 367.134L355.256 367.848L354.02 368.509L352.757 369.115L351.471 369.666L350.163 370.16L348.835 370.598L347.489 370.979L346.128 371.304L344.753 371.574L343.366 371.789L341.97 371.952L340.568 372.064L339.161 372.128L337.751 372.146L336.341 372.121L334.932 372.056L333.526 371.956L332.125 371.823L330.729 371.663L329.34 371.479L327.96 371.276L326.588 371.059L325.225 370.831L323.872 370.597L322.527 370.362L321.192 370.131L319.865 369.907L318.545 369.694L317.232 369.496L315.925 369.316L314.621 369.159L313.32 369.025L312.02 368.919L310.719 368.841L309.415 368.794L308.107 368.778L306.791 368.795L305.467 368.845L304.133 368.927L302.786 369.042Z" fill="#F28C8F" fill-opacity="0.5"/>
<path fill-rule="evenodd" clip-rule="evenodd" d="M219.801 264.642L218.556 264.76L217.303 264.881L216.043 265.005L214.774 265.132L213.496 265.262L212.21 265.392L210.914 265.524L209.608 265.656L208.293 265.787L206.968 265.917L205.633 266.044L204.288 266.169L202.933 266.289L201.568 266.405L200.192 266.515L198.807 266.618L197.412 266.714L196.007 266.801L194.593 266.878L193.169 266.945L191.737 267.001L190.295 267.045L188.845 267.075L187.387 267.091L185.922 267.093L184.449 267.078L182.97 267.047L181.484 266.998L179.993 266.931L178.496 266.845L176.995 266.739L175.49 266.612L173.982 266.464L172.471 266.294L170.958 266.101L169.444 265.884L167.93 265.643L166.416 265.377L164.904 265.086L163.394 264.768L161.887 264.424L160.384 264.052L158.887 263.651L157.395 263.222L155.911 262.764L154.436 262.276L152.97 261.758L151.515 261.209L150.072 260.629L148.641 260.018L147.225 259.375L145.824 258.7L144.439 257.994L143.072 257.255L141.724 256.485L140.394 255.683L139.086 254.849L137.8 253.984L136.536 253.087L135.296 252.159L134.081 251.2L132.892 250.21L131.729 249.191L130.595 248.141L129.489 247.063L128.412 245.956L127.366 244.821L126.35 243.658L125.367 242.469L124.416 241.253L123.499 240.013L122.615 238.747L121.766 237.458L120.951 236.146L120.173 234.812L119.43 233.457L118.723 232.082L118.054 230.687L117.421 229.274L116.826 227.844L116.268 226.397L115.748 224.936L115.265 223.459L114.821 221.97L114.414 220.469L114.045 218.956L113.714 217.434L113.42 215.903L113.163 214.363L112.943 212.817L112.76 211.266L112.613 209.709L112.502 208.149L112.426 206.587L112.385 205.023L112.378 203.458L112.404 201.894L112.463 200.332L112.554 198.771L112.676 197.215L112.828 195.662L113.009 194.115L113.219 192.573L113.456 191.038L113.72 189.511L114.009 187.992L114.322 186.482L114.659 184.982L115.017 183.491L115.397 182.011L115.797 180.543L116.216 179.086L116.653 177.641L117.107 176.209L117.576 174.789L118.06 173.383L118.558 171.99L119.068 170.61L119.589 169.244L120.121 167.892L120.661 166.554L121.209 165.23L121.764 163.92L122.325 162.624L122.89 161.342L123.459 160.073L124.03 158.818L124.602 157.576L125.174 156.347L125.746 155.131L126.315 153.928L126.881 152.737L127.443 151.557L128 150.388L128.551 149.231L129.094 148.083L129.63 146.945L130.156 145.816L130.673 144.696L131.18 143.583L131.674 142.477L132.157 141.378L132.627 140.284L133.084 139.195L133.527 138.11L133.955 137.028L134.368 135.949L134.766 134.871L135.149 133.794L135.515 132.717L135.865 131.639L136.199 130.559L136.517 129.477L136.818 128.391L137.103 127.3L137.372 126.205L137.625 125.104L137.862 123.996L138.084 122.88L138.291 121.756L138.483 120.624L138.661 119.481L138.826 118.329L138.978 117.165L139.117 115.991L139.246 114.804L139.363 113.604L139.471 112.392L139.57 111.167L139.662 109.928L139.746 108.675L139.825 107.408L139.899 106.126L139.97 104.83L140.038 103.52L140.105 102.195L140.172 100.855L140.24 99.5016L140.311 98.1336L140.385 96.7516L140.464 95.356L140.55 93.947L140.643 92.5252L140.745 91.0908L140.857 89.6445L140.98 88.1869L141.116 86.7186L141.265 85.2401L141.43 83.7524L141.61 82.2561L141.808 80.752L142.024 79.2411L142.26 77.7243L142.516 76.2024L142.793 74.6764L143.093 73.1474L143.417 71.6163L143.764 70.0843L144.137 68.5525L144.535 67.0218L144.959 65.4936L145.411 63.9691L145.891 62.4496L146.4 60.9364L146.938 59.4309L147.506 57.9345L148.105 56.4488L148.735 54.975L149.396 53.5149L150.089 52.0698L150.815 50.6415L151.573 49.2313L152.364 47.8408L153.188 46.4718L154.045 45.1255L154.936 43.8037L155.859 42.5078L156.815 41.2394L157.805 40L158.826 38.7909L159.88 37.6137L160.966 36.4698L162.083 35.3605L163.23 34.2871L164.408 33.2509L165.616 32.2533L166.852 31.2954L168.117 30.3784L169.409 29.5034L170.727 28.6715L172.071 27.8839L173.44 27.1414L174.832 26.4451L176.247 25.796L177.683 25.195L179.14 24.6429L180.616 24.1405L182.11 23.6884L183.621 23.2871L185.147 22.9368L186.688 22.6378L188.241 22.3901L189.805 22.1934L191.378 22.0476L192.96 21.9521L194.548 21.9064L196.141 21.9098L197.738 21.9612L199.337 22.0597L200.936 22.204L202.533 22.3929L204.129 22.6248L205.72 22.8982L207.307 23.2113L208.887 23.5622L210.459 23.9491L212.022 24.3699L213.575 24.8224L215.118 25.3043L216.648 25.8135L218.166 26.3474L219.67 26.9037L221.161 27.48L222.636 28.0736L224.097 28.6821L225.543 29.3029L226.972 29.9334L228.387 30.5712L229.785 31.2137L231.168 31.8584L232.536 32.5028L233.888 33.1447L235.226 33.7816L236.549 34.4113L237.859 35.0316L239.156 35.6404L240.441 36.2359L241.714 36.816L242.976 37.3792L244.229 37.9237L245.474 38.448L246.711 38.951L247.941 39.4312L249.167 39.8878L250.388 40.3199L251.606 40.7266L252.822 41.1076L254.038 41.4623L255.255 41.7906L256.474 42.0924L257.695 42.3678L258.921 42.6171L260.152 42.8408L261.389 43.0395L262.633 43.2139L263.886 43.3652L265.148 43.4943L266.419 43.6029L267.701 43.6925L268.994 43.765L270.298 43.8223L271.613 43.8665L272.94 43.9001L274.279 43.9252L275.629 43.9445L276.99 43.9605L278.362 43.976L279.744 43.9935L281.135 44.0159L282.535 44.0459L283.943 44.0863L285.357 44.1398L286.776 44.2093L288.2 44.2973L289.625 44.4064L291.052 44.5393L292.478 44.6983L293.902 44.8858L295.321 45.1041L296.734 45.3551L298.139 45.6409L299.534 45.9633L300.917 46.3238L302.286 46.7238L303.639 47.1648L304.974 47.6477L306.29 48.1733L307.583 48.7425L308.853 49.3555L310.098 50.0127L311.316 50.714L312.506 51.4594L313.665 52.2485L314.793 53.0808L315.888 53.9559L316.949 54.8731L317.975 55.8316L318.965 56.8304L319.917 57.8686L320.83 58.9451L321.704 60.0587L322.539 61.208L323.332 62.3917L324.084 63.6083L324.795 64.8563L325.464 66.134L326.09 67.4399L326.675 68.7721L327.217 70.129L327.717 71.5088L328.175 72.9095L328.592 74.3294L328.968 75.7666L329.303 77.2193L329.598 78.6854L329.855 80.1633L330.073 81.6509L330.254 83.1465L330.399 84.6483L330.51 86.1545L330.586 87.6632L330.63 89.1729L330.643 90.6819L330.627 92.1886L330.582 93.6914L330.511 95.189L330.416 96.6797L330.296 98.1624L330.156 99.6358L329.995 101.099L329.816 102.55L329.621 103.989L329.411 105.414L329.189 106.825L328.955 108.22L328.712 109.6L328.461 110.963L328.204 112.31L327.943 113.639L327.68 114.951L327.415 116.245L327.151 117.52L326.889 118.778L326.631 120.018L326.377 121.24L326.13 122.444L325.89 123.63L325.659 124.799L325.438 125.951L325.227 127.087L325.029 128.207L324.843 129.312L324.67 130.401L324.511 131.477L324.366 132.539L324.235 133.589L324.118 134.627L324.015 135.654L323.925 136.671L323.848 137.679L323.784 138.678L323.731 139.67L323.689 140.656L323.657 141.635L323.634 142.609L323.618 143.578L323.61 144.543L323.607 145.505L323.609 146.465L323.614 147.421L323.621 148.376L323.629 149.33L323.636 150.282L323.642 151.234L323.645 152.184L323.645 153.135L323.639 154.084L323.628 155.034L323.61 155.983L323.585 156.931L323.551 157.88L323.509 158.828L323.457 159.775L323.395 160.722L323.323 161.668L323.241 162.613L323.148 163.557L323.045 164.5L322.931 165.441L322.808 166.382L322.674 167.32L322.53 168.258L322.377 169.194L322.215 170.128L322.043 171.06L321.863 171.991L321.674 172.92L321.477 173.847L321.272 174.773L321.06 175.698L320.842 176.62L320.616 177.542L320.385 178.462L320.147 179.381L319.905 180.299L319.657 181.217L319.405 182.133L319.148 183.049L318.888 183.966L318.624 184.882L318.356 185.798L318.085 186.715L317.812 187.632L317.536 188.551L317.257 189.471L316.976 190.392L316.693 191.315L316.408 192.24L316.121 193.167L315.831 194.096L315.54 195.028L315.246 195.963L314.95 196.901L314.652 197.843L314.352 198.787L314.049 199.736L313.743 200.687L313.434 201.643L313.121 202.603L312.806 203.566L312.486 204.534L312.162 205.506L311.833 206.481L311.5 207.461L311.162 208.445L310.818 209.432L310.468 210.424L310.111 211.419L309.749 212.419L309.379 213.421L309.001 214.428L308.616 215.437L308.223 216.45L307.821 217.466L307.41 218.484L306.99 219.505L306.561 220.529L306.122 221.555L305.673 222.583L305.212 223.612L304.741 224.643L304.258 225.674L303.762 226.705L303.254 227.735L302.732 228.764L302.196 229.79L301.646 230.814L301.081 231.834L300.5 232.849L299.902 233.859L299.289 234.862L298.658 235.858L298.011 236.846L297.346 237.825L296.663 238.794L295.962 239.752L295.242 240.698L294.505 241.632L293.749 242.552L292.975 243.457L292.183 244.348L291.372 245.223L290.543 246.081L289.696 246.922L288.832 247.744L287.949 248.548L287.05 249.333L286.134 250.098L285.201 250.842L284.251 251.565L283.286 252.266L282.305 252.946L281.309 253.602L280.298 254.234L279.273 254.843L278.234 255.428L277.182 255.988L276.117 256.523L275.04 257.033L273.952 257.518L272.853 257.979L271.744 258.415L270.626 258.826L269.5 259.213L268.365 259.577L267.223 259.917L266.075 260.235L264.921 260.53L263.762 260.805L262.598 261.058L261.43 261.293L260.259 261.508L259.086 261.706L257.91 261.886L256.732 262.051L255.553 262.201L254.372 262.338L253.191 262.461L252.01 262.574L250.829 262.675L249.647 262.768L248.466 262.852L247.285 262.929L246.105 263L244.925 263.065L243.745 263.127L242.565 263.186L241.385 263.243L240.205 263.298L239.025 263.353L237.844 263.409L236.663 263.466L235.48 263.524L234.295 263.585L233.108 263.65L231.919 263.717L230.728 263.789L229.533 263.865L228.334 263.945L227.131 264.03L225.924 264.12L224.711 264.215L223.493 264.315L222.269 264.42L221.038 264.529L219.801 264.642Z" fill="#FCE1CC" fill-opacity="0.5"/>
<path fill-rule="evenodd" clip-rule="evenodd" d="M206.51 422.144L204.833 421.491L203.166 420.828L201.508 420.155L199.86 419.473L198.221 418.784L196.59 418.088L194.968 417.385L193.354 416.676L191.749 415.961L190.152 415.241L188.562 414.514L186.98 413.783L185.405 413.045L183.838 412.302L182.279 411.553L180.726 410.797L179.181 410.035L177.644 409.265L176.114 408.487L174.593 407.701L173.079 406.905L171.574 406.098L170.078 405.28L168.591 404.449L167.115 403.605L165.649 402.746L164.195 401.872L162.752 400.98L161.323 400.072L159.908 399.144L158.507 398.197L157.121 397.23L155.752 396.243L154.399 395.234L153.064 394.203L151.748 393.151L150.45 392.077L149.172 390.981L147.914 389.864L146.677 388.725L145.461 387.564L144.268 386.381L143.097 385.176L141.95 383.95L140.827 382.703L139.729 381.434L138.656 380.145L137.609 378.835L136.587 377.505L135.593 376.156L134.626 374.788L133.686 373.401L132.774 371.997L131.889 370.575L131.033 369.138L130.206 367.684L129.406 366.216L128.635 364.733L127.893 363.238L127.179 361.73L126.492 360.212L125.834 358.683L125.203 357.145L124.598 355.6L124.02 354.047L123.467 352.489L122.939 350.927L122.435 349.362L121.953 347.795L121.493 346.227L121.054 344.66L120.633 343.095L120.23 341.534L119.843 339.977L119.471 338.425L119.111 336.881L118.762 335.345L118.421 333.818L118.088 332.301L117.759 330.796L117.433 329.303L117.108 327.823L116.78 326.357L116.449 324.905L116.112 323.469L115.766 322.049L115.409 320.645L115.039 319.257L114.654 317.886L114.252 316.531L113.83 315.193L113.387 313.872L112.92 312.566L112.428 311.277L111.909 310.002L111.361 308.743L110.783 307.497L110.174 306.264L109.532 305.042L108.857 303.832L108.148 302.632L107.403 301.44L106.623 300.255L105.808 299.076L104.956 297.901L104.07 296.728L103.148 295.557L102.192 294.386L101.203 293.212L100.18 292.035L99.1265 290.852L98.0427 289.663L96.9303 288.465L95.7911 287.257L94.627 286.037L93.4404 284.805L92.2333 283.558L91.0084 282.295L89.7683 281.015L88.5156 279.717L87.2527 278.399L85.9822 277.061L84.7064 275.703L83.428 274.322L82.1491 272.919L80.8722 271.493L79.5996 270.044L78.3335 268.571L77.0763 267.074L75.8302 265.553L74.5971 264.007L73.3794 262.438L72.179 260.844L70.9978 259.226L69.8377 257.585L68.7005 255.92L67.5877 254.232L66.5011 252.521L65.4421 250.788L64.4123 249.033L63.4133 247.257L62.4467 245.461L61.5141 243.645L60.617 241.81L59.7571 239.956L58.9359 238.086L58.1548 236.198L57.4154 234.296L56.7192 232.379L56.0675 230.448L55.4619 228.505L54.9037 226.552L54.3942 224.588L53.9347 222.616L53.5263 220.637L53.1702 218.653L52.8675 216.663L52.6191 214.671L52.4259 212.677L52.2888 210.683L52.2083 208.691L52.1852 206.702L52.2199 204.717L52.3128 202.738L52.4641 200.767L52.6739 198.804L52.9424 196.853L53.2694 194.913L53.6547 192.986L54.0979 191.075L54.5986 189.179L55.1563 187.301L55.7702 185.442L56.4394 183.602L57.1633 181.784L57.9406 179.987L58.7703 178.214L59.6512 176.465L60.582 174.741L61.5612 173.043L62.5876 171.371L63.6594 169.727L64.7753 168.11L65.9334 166.521L67.1322 164.961L68.3699 163.43L69.6448 161.928L70.9551 160.456L72.299 159.013L73.6747 157.599L75.0804 156.215L76.5143 154.86L77.9747 153.534L79.4598 152.237L80.9679 150.969L82.4972 149.728L84.0462 148.516L85.6132 147.331L87.1966 146.173L88.7949 145.042L90.4067 143.936L92.0306 142.855L93.6652 141.8L95.3093 140.768L96.9617 139.76L98.6214 138.775L100.287 137.812L101.958 136.871L103.633 135.952L105.312 135.052L106.994 134.174L108.678 133.314L110.363 132.475L112.05 131.654L113.737 130.851L115.425 130.068L117.114 129.302L118.802 128.554L120.49 127.825L122.178 127.113L123.865 126.419L125.552 125.743L127.239 125.084L128.925 124.444L130.611 123.821L132.296 123.216L133.981 122.63L135.666 122.062L137.35 121.512L139.033 120.981L140.716 120.468L142.398 119.975L144.079 119.499L145.759 119.042L147.438 118.604L149.116 118.183L150.791 117.78L152.464 117.395L154.134 117.025L155.801 116.672L157.465 116.333L159.124 116.009L160.779 115.699L162.43 115.403L164.076 115.119L165.718 114.848L167.354 114.59L168.985 114.343L170.612 114.107L172.233 113.883L173.848 113.669L175.459 113.466L177.064 113.272L178.664 113.089L180.259 112.916L181.849 112.752L183.434 112.598L185.013 112.453L186.588 112.317L188.158 112.19L189.723 112.073L191.284 111.965L192.84 111.866L194.391 111.776L195.939 111.695L197.481 111.622L199.02 111.559L200.554 111.504L202.084 111.457L203.611 111.419L205.133 111.388L206.651 111.366L208.165 111.35L209.675 111.341L211.182 111.339L212.684 111.343L214.183 111.352L215.679 111.366L217.171 111.384L218.659 111.406L220.145 111.43L221.627 111.456L223.107 111.484L224.584 111.512L226.059 111.539L227.532 111.565L229.004 111.589L230.474 111.61L231.943 111.627L233.412 111.639L234.881 111.645L236.35 111.644L237.821 111.637L239.294 111.621L240.768 111.596L242.246 111.562L243.727 111.518L245.213 111.464L246.704 111.399L248.2 111.322L249.703 111.234L251.213 111.134L252.731 111.023L254.258 110.9L255.793 110.765L257.339 110.62L258.895 110.463L260.463 110.297L262.042 110.121L263.634 109.936L265.238 109.743L266.856 109.542L268.487 109.336L270.133 109.125L271.792 108.91L273.467 108.693L275.155 108.475L276.859 108.258L278.577 108.042L280.31 107.831L282.056 107.626L283.817 107.428L285.591 107.239L287.379 107.061L289.18 106.895L290.993 106.742L292.818 106.605L294.654 106.483L296.502 106.379L298.361 106.293L300.229 106.227L302.108 106.181L303.995 106.157L305.89 106.155L307.794 106.176L309.704 106.221L311.621 106.291L313.544 106.386L315.473 106.508L317.406 106.656L319.343 106.831L321.283 107.035L323.226 107.267L325.17 107.528L327.115 107.819L329.061 108.141L331.005 108.493L332.948 108.877L334.887 109.294L336.823 109.744L338.753 110.228L340.677 110.747L342.593 111.301L344.499 111.891L346.395 112.517L348.28 113.182L350.15 113.884L352.006 114.625L353.845 115.404L355.666 116.224L357.467 117.083L359.248 117.983L361.005 118.924L362.737 119.906L364.444 120.929L366.122 121.993L367.771 123.099L369.389 124.246L370.973 125.434L372.524 126.664L374.038 127.934L375.515 129.245L376.952 130.597L378.348 131.989L379.703 133.419L381.013 134.889L382.278 136.397L383.496 137.942L384.667 139.524L385.788 141.142L386.859 142.795L387.878 144.482L388.844 146.201L389.757 147.953L390.615 149.734L391.417 151.546L392.162 153.385L392.851 155.251L393.481 157.142L394.053 159.057L394.566 160.995L395.02 162.953L395.415 164.931L395.749 166.926L396.024 168.938L396.239 170.964L396.395 173.003L396.49 175.052L396.527 177.111L396.505 179.178L396.425 181.251L396.287 183.328L396.093 185.407L395.843 187.487L395.538 189.567L395.178 191.643L394.766 193.716L394.303 195.783L393.789 197.842L393.226 199.893L392.616 201.933L391.96 203.961L391.259 205.976L390.516 207.977L389.731 209.962L388.906 211.93L388.044 213.88L387.144 215.811L386.21 217.721L385.243 219.611L384.244 221.478L383.215 223.323L382.159 225.144L381.077 226.941L379.97 228.713L378.842 230.46L377.694 232.18L376.528 233.874L375.347 235.541L374.153 237.18L372.948 238.793L371.735 240.377L370.517 241.934L369.295 243.463L368.073 244.965L366.853 246.439L365.638 247.886L364.431 249.307L363.235 250.701L362.052 252.07L360.887 253.413L359.742 254.733L358.62 256.03L357.523 257.305L356.456 258.559L355.419 259.793L354.416 261.009L353.449 262.209L352.519 263.393L351.629 264.563L350.779 265.722L349.971 266.869L349.206 268.008L348.486 269.14L347.809 270.267L347.178 271.389L346.592 272.51L346.052 273.63L345.557 274.752L345.107 275.876L344.702 277.005L344.34 278.14L344.022 279.282L343.746 280.433L343.511 281.595L343.315 282.768L343.159 283.953L343.039 285.153L342.955 286.368L342.904 287.599L342.886 288.846L342.897 290.111L342.936 291.395L343 292.697L343.088 294.019L343.198 295.361L343.327 296.723L343.472 298.105L343.632 299.507L343.804 300.93L343.985 302.373L344.174 303.837L344.368 305.319L344.564 306.822L344.76 308.343L344.953 309.882L345.143 311.439L345.325 313.013L345.499 314.603L345.661 316.208L345.811 317.828L345.945 319.461L346.062 321.106L346.16 322.763L346.238 324.43L346.293 326.106L346.325 327.789L346.332 329.48L346.312 331.176L346.265 332.877L346.189 334.58L346.084 336.286L345.948 337.993L345.781 339.7L345.583 341.406L345.352 343.11L345.089 344.811L344.793 346.508L344.464 348.201L344.102 349.887L343.707 351.568L343.279 353.241L342.819 354.907L342.325 356.565L341.8 358.213L341.242 359.853L340.653 361.482L340.032 363.101L339.38 364.71L338.697 366.307L337.985 367.892L337.242 369.466L336.47 371.027L335.669 372.576L334.84 374.111L333.982 375.634L333.098 377.143L332.187 378.64L331.251 380.124L330.289 381.595L329.303 383.055L328.294 384.502L327.263 385.939L326.209 387.364L325.133 388.778L324.037 390.181L322.92 391.574L321.783 392.957L320.625 394.328L319.448 395.69L318.251 397.04L317.035 398.378L315.798 399.704L314.541 401.018L313.265 402.317L311.968 403.602L310.651 404.871L309.314 406.124L307.956 407.36L306.578 408.578L305.179 409.776L303.76 410.954L302.32 412.11L300.86 413.243L299.38 414.352L297.879 415.436L296.358 416.494L294.816 417.524L293.256 418.525L291.675 419.496L290.076 420.436L288.457 421.343L286.821 422.217L285.166 423.057L283.494 423.861L281.806 424.628L280.101 425.357L278.38 426.048L276.645 426.7L274.895 427.312L273.133 427.883L271.358 428.413L269.571 428.901L267.773 429.347L265.966 429.75L264.149 430.11L262.325 430.427L260.494 430.701L258.656 430.932L256.814 431.12L254.967 431.265L253.118 431.368L251.266 431.429L249.413 431.448L247.56 431.426L245.707 431.365L243.856 431.263L242.008 431.124L240.163 430.947L238.322 430.733L236.486 430.484L234.655 430.201L232.831 429.885L231.014 429.537L229.204 429.159L227.402 428.753L225.608 428.319L223.823 427.858L222.048 427.374L220.282 426.866L218.525 426.337L216.779 425.787L215.042 425.219L213.315 424.634L211.599 424.032L209.893 423.416L208.196 422.786L206.51 422.144Z" fill="#980138" fill-opacity="0.5"/>
<path fill-rule="evenodd" clip-rule="evenodd" d="M171.518 426.034L169.76 426.247L167.995 426.433L166.224 426.592L164.447 426.724L162.665 426.829L160.878 426.906L159.088 426.956L157.293 426.978L155.495 426.971L153.695 426.937L151.892 426.875L150.088 426.784L148.282 426.665L146.476 426.518L144.669 426.342L142.862 426.139L141.056 425.907L139.251 425.647L137.448 425.359L135.647 425.043L133.848 424.699L132.052 424.328L130.259 423.929L128.47 423.502L126.685 423.048L124.905 422.567L123.129 422.059L121.359 421.525L119.595 420.963L117.837 420.376L116.085 419.762L114.34 419.122L112.602 418.457L110.871 417.766L109.149 417.049L107.435 416.308L105.729 415.542L104.032 414.751L102.344 413.936L100.665 413.097L98.9968 412.233L97.3381 411.346L95.6899 410.436L94.0522 409.502L92.4255 408.546L90.8099 407.566L89.2059 406.564L87.6136 405.54L86.0333 404.494L84.4654 403.426L82.9099 402.337L81.3674 401.226L79.8379 400.094L78.3217 398.941L76.8192 397.767L75.3306 396.573L73.856 395.359L72.3959 394.124L70.9503 392.87L69.5197 391.597L68.1042 390.304L66.7041 388.992L65.3196 387.661L63.9511 386.311L62.5987 384.943L61.2627 383.557L59.9434 382.153L58.641 380.731L57.3558 379.291L56.088 377.834L54.8379 376.36L53.6057 374.869L52.3918 373.362L51.1963 371.838L50.0196 370.298L48.8618 368.742L47.7234 367.17L46.6044 365.583L45.5053 363.98L44.4263 362.363L43.3675 360.73L42.3294 359.084L41.3122 357.423L40.3162 355.748L39.3416 354.059L38.3887 352.357L37.4578 350.642L36.5492 348.914L35.6632 347.173L34.8001 345.42L33.96 343.655L33.1432 341.878L32.35 340.09L31.5806 338.291L30.8353 336.481L30.1141 334.661L29.4174 332.831L28.7452 330.991L28.0978 329.141L27.4754 327.283L26.8782 325.416L26.3061 323.541L25.7596 321.658L25.2386 319.768L24.7434 317.87L24.274 315.966L23.8306 314.056L23.4133 312.139L23.0223 310.217L22.6576 308.29L22.3194 306.358L22.0078 304.422L21.7229 302.482L21.4648 300.538L21.2336 298.592L21.0294 296.642L20.8523 294.69L20.7024 292.736L20.5798 290.781L20.4845 288.825L20.4167 286.868L20.3765 284.91L20.3639 282.954L20.379 280.997L20.4219 279.042L20.4925 277.088L20.5911 275.137L20.7176 273.187L20.8721 271.241L21.0546 269.298L21.2651 267.358L21.5037 265.423L21.7703 263.493L22.065 261.568L22.3877 259.648L22.7384 257.735L23.1171 255.828L23.5238 253.928L23.9582 252.036L24.4204 250.152L24.9103 248.276L25.4276 246.409L25.9724 244.551L26.5443 242.704L27.1434 240.866L27.7692 239.04L28.4216 237.224L29.1003 235.42L29.8052 233.628L30.5359 231.849L31.2921 230.082L32.0737 228.328L32.8803 226.589L33.7116 224.863L34.5674 223.151L35.4473 221.455L36.351 219.773L37.2782 218.107L38.2286 216.457L39.2018 214.824L40.1976 213.206L41.2155 211.606L42.2553 210.023L43.3165 208.457L44.3988 206.91L45.5019 205.38L46.6253 203.869L47.7687 202.377L48.9316 200.903L50.1138 199.449L51.3148 198.014L52.5341 196.599L53.7714 195.204L55.0263 193.83L56.2983 192.475L57.587 191.141L58.8921 189.828L60.213 188.536L61.5493 187.265L62.9006 186.016L64.2666 184.787L65.6466 183.58L67.0403 182.395L68.4473 181.232L69.8671 180.091L71.2992 178.971L72.7431 177.874L74.1985 176.798L75.6649 175.745L77.1417 174.714L78.6287 173.704L80.1252 172.718L81.6309 171.753L83.1452 170.81L84.6679 169.89L86.1983 168.991L87.7362 168.115L89.2809 167.26L90.8322 166.428L92.3897 165.617L93.9528 164.828L95.5212 164.06L97.0946 163.315L98.6724 162.59L100.254 161.887L101.84 161.206L103.429 160.545L105.022 159.906L106.617 159.287L108.214 158.69L109.814 158.113L111.415 157.557L113.018 157.021L114.622 156.506L116.226 156.011L117.832 155.536L119.437 155.081L121.043 154.647L122.649 154.232L124.254 153.837L125.858 153.462L127.461 153.107L129.064 152.771L130.665 152.455L132.264 152.158L133.861 151.88L135.457 151.622L137.05 151.383L138.64 151.162L140.228 150.961L141.813 150.779L143.395 150.616L144.973 150.472L146.548 150.346L148.12 150.239L149.687 150.15L151.25 150.08L152.809 150.028L154.363 149.994L155.912 149.979L157.457 149.981L158.996 150.001L160.53 150.039L162.058 150.094L163.581 150.167L165.097 150.258L166.608 150.365L168.112 150.489L169.61 150.631L171.101 150.79L172.585 150.965L174.062 151.157L175.532 151.366L176.995 151.591L178.45 151.833L179.898 152.092L181.337 152.366L182.769 152.657L184.192 152.964L185.607 153.288L187.014 153.627L188.411 153.982L189.8 154.353L191.18 154.74L192.55 155.142L193.911 155.56L195.262 155.993L196.604 156.442L197.935 156.906L199.257 157.384L200.568 157.878L201.868 158.386L203.158 158.908L204.438 159.445L205.706 159.996L206.963 160.561L208.208 161.14L209.443 161.732L210.665 162.338L211.876 162.957L213.075 163.589L214.262 164.234L215.437 164.892L216.599 165.563L217.749 166.246L218.887 166.942L220.011 167.649L221.123 168.369L222.221 169.1L223.306 169.843L224.378 170.598L225.436 171.364L226.481 172.141L227.512 172.929L228.529 173.727L229.532 174.536L230.521 175.356L231.496 176.185L232.457 177.024L233.403 177.873L234.334 178.731L235.251 179.598L236.154 180.474L237.041 181.358L237.914 182.25L238.772 183.151L239.616 184.058L240.444 184.973L241.258 185.895L242.057 186.824L242.841 187.759L243.61 188.7L244.365 189.647L245.105 190.598L245.83 191.555L246.541 192.517L247.237 193.482L247.919 194.452L248.586 195.425L249.24 196.401L249.879 197.381L250.505 198.363L251.117 199.347L251.715 200.333L252.3 201.32L252.872 202.309L253.432 203.299L253.978 204.289L254.512 205.28L255.034 206.27L255.543 207.261L256.041 208.251L256.528 209.24L257.003 210.228L257.467 211.215L257.921 212.2L258.364 213.184L258.797 214.165L259.221 215.145L259.635 216.122L260.039 217.096L260.435 218.068L260.822 219.037L261.201 220.003L261.571 220.966L261.935 221.926L262.29 222.882L262.639 223.835L262.981 224.785L263.316 225.731L263.645 226.674L263.968 227.613L264.285 228.548L264.597 229.48L264.904 230.408L265.206 231.333L265.504 232.254L265.797 233.172L266.086 234.086L266.371 234.997L266.653 235.905L266.931 236.81L267.206 237.711L267.478 238.61L267.748 239.505L268.014 240.398L268.279 241.288L268.541 242.176L268.8 243.062L269.058 243.945L269.315 244.826L269.569 245.705L269.823 246.583L270.075 247.459L270.326 248.333L270.576 249.207L270.825 250.079L271.074 250.95L271.322 251.82L271.571 252.69L271.819 253.56L272.067 254.429L272.316 255.298L272.565 256.168L272.815 257.038L273.065 257.908L273.316 258.78L273.569 259.653L273.822 260.526L274.076 261.402L274.332 262.279L274.589 263.159L274.848 264.04L275.108 264.925L275.369 265.812L275.632 266.702L275.897 267.596L276.163 268.493L276.43 269.394L276.7 270.3L276.97 271.209L277.242 272.124L277.515 273.044L277.789 273.969L278.064 274.899L278.34 275.836L278.617 276.778L278.894 277.727L279.171 278.683L279.449 279.645L279.726 280.614L280.002 281.591L280.278 282.575L280.552 283.567L280.825 284.567L281.096 285.575L281.364 286.591L281.63 287.615L281.892 288.648L282.151 289.69L282.406 290.74L282.656 291.8L282.901 292.868L283.141 293.945L283.374 295.031L283.601 296.125L283.82 297.229L284.032 298.342L284.235 299.463L284.429 300.593L284.613 301.732L284.787 302.878L284.951 304.034L285.103 305.197L285.243 306.368L285.371 307.546L285.486 308.733L285.587 309.926L285.674 311.126L285.746 312.332L285.804 313.545L285.846 314.763L285.871 315.988L285.88 317.217L285.872 318.451L285.847 319.689L285.804 320.932L285.742 322.178L285.662 323.427L285.563 324.679L285.445 325.933L285.307 327.189L285.149 328.446L284.971 329.704L284.773 330.963L284.554 332.221L284.314 333.479L284.053 334.736L283.772 335.991L283.468 337.245L283.144 338.496L282.798 339.744L282.431 340.989L282.042 342.23L281.632 343.467L281.2 344.7L280.747 345.928L280.273 347.15L279.778 348.367L279.263 349.577L278.726 350.782L278.169 351.98L277.593 353.172L276.996 354.356L276.379 355.534L275.744 356.704L275.089 357.867L274.415 359.022L273.723 360.17L273.014 361.31L272.286 362.442L271.541 363.566L270.778 364.683L269.999 365.792L269.204 366.893L268.392 367.986L267.565 369.072L266.722 370.15L265.863 371.221L264.99 372.284L264.102 373.339L263.2 374.388L262.284 375.429L261.353 376.464L260.41 377.491L259.452 378.512L258.482 379.526L257.498 380.534L256.501 381.536L255.492 382.531L254.469 383.52L253.435 384.504L252.388 385.481L251.328 386.453L250.256 387.419L249.172 388.38L248.076 389.335L246.967 390.285L245.846 391.229L244.713 392.167L243.568 393.101L242.41 394.028L241.24 394.951L240.057 395.867L238.862 396.778L237.654 397.683L236.434 398.582L235.2 399.474L233.954 400.361L232.695 401.24L231.423 402.113L230.137 402.978L228.839 403.836L227.526 404.686L226.201 405.528L224.861 406.361L223.509 407.185L222.142 407.999L220.762 408.804L219.367 409.598L217.959 410.382L216.537 411.154L215.102 411.915L213.652 412.663L212.188 413.399L210.711 414.121L209.22 414.83L207.715 415.524L206.197 416.203L204.665 416.867L203.119 417.515L201.561 418.146L199.989 418.76L198.405 419.356L196.808 419.935L195.198 420.494L193.576 421.033L191.942 421.553L190.296 422.052L188.639 422.53L186.971 422.987L185.292 423.421L183.603 423.832L181.903 424.22L180.194 424.585L178.476 424.925L176.749 425.24L175.013 425.531L173.269 425.795L171.518 426.034Z" fill="#311629" fill-opacity="0.5"/>
</svg>
