<svg width="74" height="87" viewBox="0 0 74 87" fill="none" xmlns="http://www.w3.org/2000/svg">
<path d="M34.106 86.2274C31.1704 85.2316 27.8387 83.791 25.0777 82.3235C11.7331 75.2312 3.37407 64.8623 0.861913 52.2855C0.0279333 48.1103 -0.0455851 46.1082 0.0171038 29.2773L0.0758351 13.505L18.5679 6.75253L37.0601 3.05188e-05L55.53 6.74357L74 13.4871L74 30.6249C74 49.5439 74.006 49.4306 72.7279 54.4302C69.7686 66.0053 61.3387 75.8484 48.702 82.4839C44.6806 84.5954 38.4052 87.0158 36.993 87C36.6461 86.9961 35.347 86.6486 34.106 86.2274H34.106ZM38.9801 80.057C52.3856 75.4909 62.4021 66.3001 66.0836 55.1879C67.8003 50.0061 67.9201 48.4811 67.9201 31.8027C67.9201 18.706 67.8999 17.8542 67.5823 17.7293C67.3966 17.6563 60.454 15.116 52.1545 12.0845L37.0644 6.57258L22.1408 12.0248C13.9329 15.0235 6.97849 17.5629 6.68655 17.6678L6.15575 17.8589L6.15575 31.8011C6.15575 46.1542 6.22864 47.9236 6.96072 51.3438C9.48733 63.1477 18.131 72.7245 31.6335 78.6802C33.6464 79.568 36.4768 80.5906 36.9535 80.6022C37.1724 80.6076 38.0844 80.3623 38.9801 80.057H38.9801ZM23.5742 53.0427L16.3854 45.8227L18.5556 43.6436L20.7259 41.4645L25.7941 46.5506L30.8622 51.6367L42.1068 40.3477L53.3513 29.0586L55.5196 31.2419L57.6879 33.4252L44.3224 46.844C36.9714 54.2243 30.9133 60.2628 30.86 60.2628C30.8064 60.2628 27.5281 57.0137 23.5742 53.0427Z" fill="black"/>
</svg>
