<svg width="79" height="65" viewBox="0 0 79 65" fill="none" xmlns="http://www.w3.org/2000/svg">
<g clip-path="url(#clip0_283_12)">
<path d="M69.9043 64.1603C66.1298 63.7689 62.1884 62.1042 59.0834 59.5898L58.0601 58.7611L56.3332 59.0596C47.8107 60.5326 38.8739 59.3115 31.6973 55.6933C25.7721 52.7061 21.9395 48.6688 20.2705 43.6562C20.0073 42.8657 19.7698 42.1952 19.7427 42.1661C19.7155 42.137 19.3854 42.3257 19.0091 42.5851C17.9347 43.326 15.7666 44.3704 14.2682 44.8688C11.6753 45.7313 10.9415 45.8289 6.42888 45.911L2.24285 45.9871L4.84401 43.3402C6.70938 41.442 7.62938 40.3802 8.09637 39.5866C8.75093 38.4742 9.61966 36.2347 9.62345 35.65C9.62483 35.4373 9.29423 35.0937 8.59801 34.5842C6.04258 32.7139 3.35053 29.3869 2.22033 26.7022C0.738686 23.1826 0.587553 19.2842 1.80074 15.8787C4.59927 8.02312 13.3548 2.25545 25.0757 0.546443C27.8532 0.14147 33.7941 0.17848 36.6444 0.618514C46.5672 2.15043 54.2504 6.54575 58.0336 12.8547C59.2076 14.8123 59.8752 16.7641 60.2264 19.2654L60.3239 19.9592L61.8794 20.4683C71.1918 23.516 77.5137 29.6319 78.6574 36.6997C79.3046 40.6994 78.3662 44.4932 75.8144 48.1928C74.84 49.6054 72.6357 51.868 71.2362 52.892C70.5399 53.4014 70.2094 53.7449 70.2107 53.9576C70.2146 54.5423 71.0833 56.7818 71.7378 57.8942C72.206 58.6899 73.1172 59.7403 74.9808 61.6326L77.5726 64.2643L74.0048 64.24C72.0425 64.2271 70.1973 64.1906 69.9043 64.1604L69.9043 64.1603ZM66.6536 57.8451C66.1205 56.6369 65.6745 54.9337 65.4161 53.1192C65.1521 51.2659 64.9561 51.593 67.1922 50.1567C69.0348 48.9731 71.5663 46.4688 72.5644 44.8421C72.9664 44.1871 73.5055 43.0543 73.7625 42.3249C74.1822 41.1335 74.2304 40.8122 74.2361 39.1677C74.2413 37.6631 74.179 37.1331 73.886 36.1927C71.9141 29.8631 64.488 24.9494 54.6062 23.4356C52.0407 23.0426 46.3691 23.0422 43.7987 23.4348C33.9017 24.9466 26.4933 29.849 24.5193 36.1928C24.0131 37.8197 24.0131 40.3633 24.5193 41.9902C26.4923 48.3309 33.9182 53.2444 43.7987 54.7469C45.1458 54.9517 46.5243 55.0256 49.0502 55.0284C52.7695 55.0321 54.1491 54.8929 57.453 54.1771L59.5388 53.7253L60.7657 54.9435C61.4406 55.6135 62.575 56.5501 63.2867 57.0247C64.5625 57.8755 66.8965 58.9852 66.9777 58.7796C67.0006 58.7216 66.8548 58.301 66.6536 57.8451V57.8451ZM15.8957 39.1292C17.2336 38.3343 19.5107 36.4217 19.7709 35.8744C19.8672 35.6719 20.131 34.957 20.3572 34.2857C22.998 26.4488 31.8861 20.5601 43.6465 18.8557C45.9096 18.5277 52.0832 18.48 54.1289 18.7747C54.871 18.8816 55.5056 18.9416 55.5391 18.908C55.5726 18.8745 55.4553 18.3731 55.2784 17.7939C53.6255 12.3828 47.5398 7.75638 39.5365 5.82671C36.2429 5.03259 34.5543 4.84692 30.6317 4.84758C27.936 4.84804 26.6045 4.91693 25.2279 5.12719C11.445 7.23256 3.02888 15.8129 6.23736 24.4885C7.15501 26.9698 9.79861 30.004 12.6486 31.8471C14.8789 33.2895 14.6819 32.9594 14.4181 34.8116C14.1603 36.6221 13.7138 38.3289 13.1842 39.5293C12.985 39.9806 12.8221 40.4052 12.8221 40.4728C12.8221 40.6716 14.6294 39.8816 15.8957 39.1292L15.8957 39.1292Z" fill="#980138"/>
</g>
<defs>
<clipPath id="clip0_283_12">
<rect width="77.8667" height="64" fill="white" transform="translate(0.988647 0.264343)"/>
</clipPath>
</defs>
</svg>
