<svg width="48" height="49" viewBox="0 0 48 49" fill="none" xmlns="http://www.w3.org/2000/svg">
<path d="M5.19814 48.3621C5.0487 48.1488 4.96948 47.8096 5.0221 47.6084C5.07472 47.4072 5.36777 47.0323 5.67334 46.7752C5.97889 46.5181 6.33307 46.3077 6.46039 46.3077C6.58771 46.3077 6.82633 46.4134 6.99064 46.5426C7.15497 46.6717 7.34286 46.958 7.40819 47.1787C7.49081 47.4578 7.37709 47.7581 7.0347 48.165C6.69545 48.5682 6.37572 48.75 6.00614 48.75C5.67724 48.75 5.36478 48.6 5.19814 48.3621ZM7.95449 46.308C7.73107 46.2179 7.49156 45.9655 7.42223 45.7471C7.34589 45.5066 7.41513 45.1684 7.59792 44.8895C7.77477 44.6196 8.08022 44.4291 8.33591 44.4291C8.57585 44.4291 8.91209 44.5837 9.0831 44.7726C9.25412 44.9616 9.39403 45.2575 9.39403 45.4302C9.39403 45.6028 9.22495 45.9132 9.01828 46.1199C8.8116 46.3265 8.5791 46.4902 8.5016 46.4837C8.4241 46.4773 8.1779 46.3981 7.95449 46.308ZM2.73768 46.0125C2.57531 45.8501 2.44245 45.5352 2.44245 45.3126C2.44245 45.0357 3.76341 43.5872 6.62744 40.7233C9.49147 37.8595 10.9402 36.5387 11.2171 36.5387C11.4397 36.5387 11.7546 36.6715 11.917 36.8339C12.0794 36.9962 12.2122 37.3534 12.2122 37.6276C12.2122 38.0264 11.3948 38.9434 8.12109 42.2169C4.84736 45.4904 3.93033 46.3077 3.53143 46.3077C3.25725 46.3077 2.90007 46.1749 2.73768 46.0125ZM23.5009 46.045C23.381 45.9005 23.0025 44.2906 22.6599 42.4674C22.1045 39.5125 21.9788 39.0919 21.5017 38.594L20.9665 38.0354L20.3629 39.1187C20.0309 39.7145 19.6213 40.3922 19.4528 40.6247C19.2642 40.8848 18.9492 41.0474 18.634 41.0474C18.2132 41.0474 17.1742 40.0978 12.8185 35.7326C9.18539 32.0916 7.51523 30.2913 7.51523 30.0163C7.51523 29.7955 7.72129 29.4528 7.97314 29.2547C8.22498 29.0566 8.90115 28.6489 9.47573 28.3487C10.0503 28.0484 10.5206 27.7552 10.5209 27.6971C10.5211 27.6389 10.2888 27.3688 10.0047 27.0969C9.55565 26.6673 9.04851 26.5224 6.13278 25.9909C3.22894 25.4616 2.74032 25.3224 2.5005 24.9564C2.3481 24.7238 2.2718 24.3815 2.33095 24.1956C2.3901 24.0097 4.41629 21.8815 6.8336 19.4663L11.2287 15.075L15.7548 14.4868L20.2808 13.8986L23.9966 10.2131C26.0403 8.18604 28.3993 6.02287 29.2389 5.40605C30.0785 4.78923 31.6003 3.85827 32.6208 3.33725C33.6412 2.81623 35.1102 2.1793 35.8852 1.92186C36.6602 1.6644 37.9707 1.29542 38.7974 1.10188C39.9842 0.82404 41.0401 0.75 43.816 0.75C46.9401 0.75 47.3691 0.787357 47.6676 1.08544C47.9638 1.3812 48.0031 1.79211 47.9998 4.56096C47.9972 6.79164 47.9009 8.17346 47.6674 9.33218C47.4866 10.2293 47.1256 11.6157 46.8653 12.413C46.6051 13.2103 46.0976 14.5 45.7377 15.2788C45.3779 16.0577 44.52 17.5457 43.8314 18.5855C42.8708 20.036 41.6711 21.3952 38.6775 24.425L34.7757 28.3741L34.1939 32.879L33.6121 37.384L29.1607 41.8459C25.5998 45.415 24.6102 46.3077 24.2141 46.3077C23.9418 46.3077 23.6209 46.1895 23.5009 46.045ZM32.0814 33.5662L32.4375 30.6878L28.2537 34.8813L24.0699 39.0748L24.4704 41.1994L24.8708 43.3239L28.2981 39.8843L31.7254 36.4447L32.0814 33.5662ZM18.9728 37.398L19.4393 36.5359L15.7937 32.8869L12.1481 29.238L11.2408 29.6977C10.7417 29.9506 10.3334 30.2187 10.3334 30.2936C10.3334 30.3685 12.1246 32.2222 14.3138 34.4131C16.503 36.6039 18.3419 38.3657 18.4002 38.3282C18.4585 38.2907 18.7162 37.8722 18.9728 37.398ZM42.1398 17.4636C42.8249 16.4268 43.6094 15.0741 43.8831 14.4577C44.1569 13.8414 44.4503 13.1568 44.5352 12.9365C44.6756 12.572 44.5769 12.499 43.4373 12.1249C42.7485 11.8988 41.7068 11.4233 41.1222 11.0683C40.5377 10.7132 39.5522 9.88056 38.9323 9.21789C38.3008 8.54284 37.5096 7.42238 37.133 6.66974C36.7634 5.93092 36.4066 5.03645 36.3401 4.68204C36.2736 4.32764 36.1223 4.03768 36.0039 4.03768C35.8855 4.03768 34.9358 4.45601 33.8935 4.96732C32.8512 5.47863 31.2877 6.42027 30.419 7.05984C29.4254 7.79142 25.5995 11.4514 20.1032 16.9283L11.3668 25.634L17.1911 31.4669L23.0154 37.2997L31.9548 28.3243C39.7203 20.5275 41.0578 19.1012 42.1398 17.4636ZM29.2155 23.3248C28.8021 23.1876 28.1988 22.9372 27.8748 22.7683C27.5508 22.5994 26.9442 22.0732 26.5268 21.5991C26.1094 21.1249 25.6347 20.3462 25.472 19.8685C25.3092 19.3909 25.176 18.523 25.176 17.9398C25.176 17.3567 25.3106 16.4845 25.4751 16.0018C25.6397 15.519 26.1444 14.7123 26.5969 14.2091C27.0913 13.6592 27.8153 13.1172 28.4114 12.8506C29.1755 12.509 29.7271 12.4086 30.8125 12.4135C31.9028 12.4185 32.4128 12.5175 33.067 12.8514C33.532 13.0888 34.2367 13.591 34.633 13.9675C35.0292 14.3441 35.5363 14.9903 35.7597 15.4036C36.0949 16.0236 36.166 16.4673 36.166 17.9398C36.166 19.4123 36.0949 19.856 35.7597 20.476C35.5363 20.8893 35.0292 21.5355 34.633 21.9121C34.2367 22.2886 33.5497 22.7782 33.1062 23.0001C32.6498 23.2285 31.7937 23.4406 31.1334 23.4889C30.4349 23.54 29.6656 23.4742 29.2155 23.3248ZM32.2434 21.1499C32.6687 20.9567 33.2316 20.5148 33.4942 20.1677C33.7569 19.8206 34.0674 19.1774 34.1842 18.7382C34.3422 18.1444 34.3422 17.7352 34.1842 17.1414C34.0674 16.7022 33.7562 16.0582 33.4928 15.7101C33.2294 15.362 32.6327 14.9086 32.1669 14.7025C31.5613 14.4347 31.0616 14.3528 30.4132 14.4151C29.8647 14.4677 29.2093 14.6989 28.7541 15.0001C28.3371 15.276 27.8228 15.8485 27.6005 16.2842C27.362 16.7517 27.1994 17.4229 27.1994 17.9398C27.1994 18.4398 27.3597 19.1233 27.5768 19.5486C27.7844 19.9554 28.1137 20.4323 28.3086 20.6086C28.5035 20.7848 28.9564 21.0563 29.315 21.2118C29.6736 21.3673 30.3052 21.496 30.7185 21.4978C31.1318 21.4992 31.818 21.343 32.2434 21.1499ZM13.8092 20.3821C16.0808 18.1089 17.8556 16.2521 17.7531 16.2558C17.6507 16.2594 16.349 16.4214 14.8605 16.6155L12.1542 16.9685L8.80822 20.3103C6.96794 22.1483 5.50835 23.6984 5.56471 23.7549C5.62109 23.8114 6.35775 23.9952 7.20181 24.1633C8.04587 24.3314 8.94854 24.4794 9.20775 24.4921C9.58449 24.5105 10.5078 23.6858 13.8092 20.3821ZM45.5835 9.45827C45.7408 8.89385 45.9122 7.20132 45.9739 5.60107L46.0838 2.74959L45.3528 2.61045C44.9507 2.53392 43.5649 2.57096 42.2732 2.69271C40.9815 2.81449 39.5143 3.00657 39.0126 3.11956C38.1201 3.32061 38.103 3.33764 38.2155 3.91618C38.2787 4.24132 38.5821 5.02237 38.8898 5.65184C39.1975 6.28131 39.7886 7.18182 40.2034 7.65296C40.6181 8.1241 41.4056 8.80702 41.9534 9.17057C42.5011 9.53412 43.4516 10.0012 44.0656 10.2084C44.6795 10.4157 45.2091 10.558 45.2424 10.5246C45.2758 10.4913 45.4292 10.0114 45.5835 9.45827ZM9.58192 44.2412C9.37525 44.0345 9.20616 43.7215 9.20616 43.5457C9.20616 43.3698 10.1698 42.2623 11.3476 41.0846C13.2041 39.2283 13.5478 38.9612 13.9309 39.0772C14.174 39.1508 14.4469 39.2797 14.5373 39.3636C14.6277 39.4476 14.7017 39.7474 14.7017 40.0297C14.7017 40.434 14.2637 40.9763 12.642 42.58C11.5091 43.7003 10.4417 44.6169 10.27 44.6169C10.0982 44.6169 9.78859 44.4478 9.58192 44.2412ZM0.29524 43.5702C0.132854 43.4078 0 43.0894 0 42.8625C0 42.5882 0.677455 41.7747 2.02278 40.4336C3.52805 38.9332 4.16736 38.4173 4.52161 38.4173C4.78342 38.4173 5.09908 38.5187 5.22308 38.6427C5.34709 38.7667 5.44854 39.0852 5.44854 39.3504C5.44854 39.7135 4.94853 40.3311 3.42575 41.8491C2.10363 43.167 1.26225 43.8654 0.996726 43.8654C0.773293 43.8654 0.457626 43.7326 0.29524 43.5702ZM5.674 38.1918C5.55 38.0679 5.44854 37.7466 5.44854 37.478C5.44854 37.2093 5.55 36.888 5.674 36.7641C5.798 36.6401 6.11928 36.5386 6.38794 36.5386C6.65661 36.5386 6.97789 36.6401 7.1019 36.7641C7.22589 36.888 7.32735 37.2093 7.32735 37.478C7.32735 37.7466 7.22589 38.0679 7.1019 38.1918C6.97789 38.3158 6.65661 38.4173 6.38794 38.4173C6.11928 38.4173 5.798 38.3158 5.674 38.1918ZM7.62259 36.2434C7.46021 36.081 7.32735 35.7686 7.32735 35.5492C7.32735 35.3297 7.55453 34.9131 7.8322 34.6233C8.10987 34.3335 8.52656 34.0964 8.75818 34.0964C8.98981 34.0964 9.31218 34.2292 9.47456 34.3916C9.63694 34.5539 9.7698 34.8663 9.7698 35.0858C9.7698 35.3052 9.54262 35.7219 9.26495 36.0117C8.98728 36.3015 8.57058 36.5386 8.33896 36.5386C8.10734 36.5386 7.78497 36.4058 7.62259 36.2434Z" fill="#1B1018"/>
</svg>
