<svg width="56" height="65" viewBox="0 0 56 65" fill="none" xmlns="http://www.w3.org/2000/svg">
<path d="M25.7099 63.78C23.5416 63.0474 21.0807 61.9876 19.0413 60.9082C9.18469 55.6908 3.01047 48.0631 1.15493 38.8112C0.538928 35.7398 0.484625 34.2669 0.530929 21.8856L0.574309 10.283L14.2331 5.31569L27.8918 0.348328L41.5342 5.30909L55.1766 10.2699L55.1766 22.877C55.1766 36.7944 55.181 36.7111 54.237 40.3889C52.0511 48.9039 45.8246 56.1448 36.4908 61.0261C33.5206 62.5794 28.8854 64.3599 27.8423 64.3483C27.5861 64.3454 26.6265 64.0898 25.7098 63.78H25.7099ZM29.31 59.2408C39.2116 55.8818 46.6101 49.1208 49.3293 40.9463C50.5974 37.1344 50.6858 36.0125 50.6858 23.7434C50.6858 14.109 50.6709 13.4825 50.4363 13.3906C50.2991 13.3368 45.1712 11.4681 39.0409 9.23803L27.895 5.1833L16.8721 9.19412C10.8095 11.4 5.67279 13.2681 5.45716 13.3453L5.06509 13.4859L5.06509 23.7423C5.06509 34.3008 5.11893 35.6024 5.65966 38.1184C7.52588 46.8018 13.9103 53.8468 23.8836 58.228C25.3704 58.8811 27.461 59.6333 27.8131 59.6419C27.9748 59.6458 28.6484 59.4654 29.31 59.2408H29.31ZM17.9308 39.3682L12.6209 34.057L14.224 32.454L15.827 30.8509L19.5704 34.5924L23.3139 38.3339L31.6195 30.0293L39.925 21.7247L41.5265 23.3308L43.1281 24.9369L33.256 34.8082C27.8263 40.2374 23.3517 44.6795 23.3123 44.6795C23.2727 44.6795 20.8512 42.2894 17.9308 39.3682Z" fill="#980138"/>
</svg>
