<svg width="65" height="65" viewBox="0 0 65 65" fill="none" xmlns="http://www.w3.org/2000/svg">
<path d="M13.0096 63.9476C12.5655 63.7194 1.48618 55.3978 0.839784 54.8069C0.140019 54.1673 -0.0519418 53.2031 0.362646 52.4104C0.78351 51.6057 4.54934 46.7618 4.93868 46.5243C5.20752 46.3603 5.56165 46.2885 6.10297 46.2882L6.88092 46.2877L7.07047 45.6312C7.42384 44.4074 7.52782 43.6041 7.63302 41.2857C7.70858 39.6203 7.81044 38.6997 7.99659 37.9989C8.2886 36.8997 9.04837 35.2034 9.62252 34.3688C10.4352 33.1874 16.0492 25.8176 16.4894 25.3541C17.0606 24.7529 17.8175 24.4032 18.6756 24.3441L19.3284 24.2991L19.4026 20.5062C19.4924 15.9023 19.5598 15.5797 20.8529 13.5579C21.2776 12.8939 21.8936 11.6343 22.0622 11.0852C22.1245 10.8824 22.0312 10.7769 21.577 10.5359C21.2664 10.3711 20.8892 10.0357 20.7343 9.78645C20.4643 9.35217 20.4523 9.2068 20.414 5.89642C20.3921 4.00503 20.4097 2.21399 20.4544 1.91633C20.555 1.23739 21.2307 0.450782 21.8742 0.263632C22.1795 0.174839 24.9461 0.143658 30.2785 0.168937L38.2278 0.206625L38.687 0.556978C39.5631 1.22549 39.579 1.30374 39.6219 5.16859C39.6468 7.41324 39.6118 8.80944 39.5229 9.14058C39.3465 9.79559 38.7552 10.4678 38.1916 10.6538C37.7981 10.7837 37.7588 10.8356 37.8307 11.1304C38.0241 11.9227 39.1797 14.0573 40.007 15.1502C41.0638 16.5463 42.0334 18.4364 42.4125 19.8396C42.6313 20.6491 42.6939 21.3016 42.7408 23.2594L42.7988 25.6788L43.2542 25.2427C44.1471 24.3876 45.1665 24.1211 46.2918 24.4486C47.5165 24.805 47.2392 24.4919 52.5611 31.5286C55.9677 36.0329 56.4629 37.2136 56.6536 41.2857C56.7624 43.6102 56.8672 44.4171 57.2178 45.6312L57.4074 46.2877L58.1853 46.2882C58.7186 46.2886 59.0812 46.3607 59.3383 46.5176C59.7247 46.7534 63.5297 51.6383 63.9285 52.4104C64.3532 53.2329 64.1475 54.1641 63.3855 54.8674C63.1538 55.0812 60.3402 57.2299 57.1331 59.6423C52.8742 62.8457 51.1801 64.0512 50.8503 64.1131C50.2206 64.2312 49.5948 64.0888 49.1691 63.7305C48.9701 63.5631 47.8748 62.1915 46.735 60.6827C44.4317 57.6334 44.3301 57.418 44.7017 56.3714C44.8814 55.8654 44.8903 55.7381 44.7522 55.6464C44.4449 55.4423 42.3446 54.4473 41.5215 54.1158C39.9158 53.4691 39.1101 52.6495 35.9069 48.4034C34.8475 46.9991 33.9364 45.7998 33.8822 45.7383C33.8279 45.6768 33.6376 45.8003 33.4584 46.0133C33.2794 46.226 32.8266 46.55 32.4521 46.7332C31.8581 47.0239 31.6634 47.0583 30.9263 47.0029C30.4615 46.968 29.9687 46.905 29.8312 46.8629C29.6304 46.8014 29.4703 46.9404 29.0185 47.5682C27.8749 49.1576 25.7239 51.8724 25.099 52.5149C24.261 53.3768 23.5802 53.8053 22.0766 54.4171C21.0923 54.8177 19.637 55.5366 19.4132 55.7329C19.3909 55.7524 19.4699 56.0422 19.5887 56.3768C19.9556 57.4099 19.8447 57.6509 17.681 60.5247C16.6117 61.945 15.5885 63.2687 15.4072 63.4664C14.7668 64.1645 13.8068 64.3572 13.0098 63.9476L13.0096 63.9476ZM15.7481 59.5656L17.6114 57.0871L11.9392 52.8098C8.81944 50.4572 6.1905 48.5031 6.09707 48.4672C5.98668 48.4248 5.28257 49.2612 4.08416 50.8585C2.37903 53.1312 2.25826 53.3273 2.47024 53.4788C2.59633 53.5689 5.20312 55.529 8.26324 57.8345C11.3233 60.14 13.8401 62.0303 13.856 62.0352C13.8718 62.0401 14.7233 60.9288 15.7481 59.5656ZM54.3994 59.0536C56.2217 57.6702 58.6845 55.8049 59.8723 54.9084L62.0318 53.2784L60.4431 51.1899C59.5693 50.0412 58.7381 48.9497 58.5961 48.7644C58.454 48.5791 58.2916 48.4243 58.2349 48.4205C58.1784 48.4168 57.3344 49.0224 56.3595 49.7666C55.3846 50.5107 52.9553 52.3497 50.9611 53.8532C48.9669 55.3567 47.184 56.7108 46.9992 56.8623L46.6633 57.1378L48.5472 59.5878L50.4312 62.0378L50.7586 61.8033C50.9388 61.6743 52.5771 60.4369 54.3994 59.0536ZM19.0952 53.472C19.517 53.2317 20.4637 52.7865 21.199 52.4826C23.209 51.6519 23.307 51.5586 26.3456 47.5798C27.4807 46.0935 28.1176 45.1556 28.0722 45.0372C28.0326 44.9341 27.969 44.5889 27.9309 44.2701L27.8615 43.6905L27.4201 43.8124C25.7347 44.2778 23.6419 42.666 23.6419 40.9027L23.6419 40.5642L22.8295 40.6294C21.4858 40.7373 20.3403 40.1298 19.7273 38.9841C19.4716 38.5062 19.4492 38.2599 19.3908 35.2833L19.3284 32.0945L18.3573 33.373C17.8232 34.0762 17.2784 34.7092 17.1465 34.7798C16.4553 35.1498 15.64 34.6812 15.64 33.914C15.64 33.4945 15.8616 33.145 17.5154 30.9566L19.3909 28.475L19.3909 27.5693C19.3909 26.7844 19.3568 26.6453 19.1347 26.5265C18.4869 26.1797 18.2608 26.4127 14.7648 31.03C12.9425 33.4368 11.2403 35.7864 10.9823 36.2513C10.113 37.8172 9.87837 38.8046 9.75635 41.4108C9.63919 43.9136 9.43591 45.2366 8.94812 46.671C8.69751 47.4079 8.66693 47.6197 8.79334 47.7427C8.87998 47.8271 10.8909 49.3603 13.2621 51.15L17.5734 54.4039L17.9508 54.1564C18.1583 54.0203 18.6733 53.7124 19.0952 53.472H19.0952ZM51.0861 51.1072C53.3554 49.402 55.3096 47.9149 55.4288 47.8025C55.634 47.6089 55.6295 47.5518 55.3442 46.7241C54.8421 45.2677 54.6403 43.9677 54.5297 41.4754C54.4108 38.7972 54.1848 37.8329 53.3058 36.2535C52.8395 35.4158 46.772 27.308 46.2309 26.7995C46.0752 26.6533 45.77 26.498 45.5525 26.4545C45.2222 26.3884 45.0948 26.4379 44.7771 26.7556C44.0832 27.4497 44.0548 27.3904 46.824 31.034C48.4359 33.1549 48.648 33.4896 48.648 33.9119C48.648 34.7137 47.7329 35.1915 47.0771 34.7321C46.9389 34.6353 45.9277 33.3697 44.83 31.9197L42.8341 29.2833L42.7714 31.7518C42.7013 34.5124 42.6634 34.653 41.7576 35.5323C41.0941 36.1763 40.2232 36.4655 39.253 36.3641L38.5206 36.2875L38.5206 38.7408C38.5206 41.5404 38.444 41.9287 37.7332 42.7364C37.1569 43.3912 36.555 43.7287 35.7473 43.8498L35.1679 43.9367L36.7442 46.0188C39.3351 49.4412 40.5818 50.9702 41.1839 51.4637C41.4974 51.7206 42.3551 52.1792 43.0899 52.4829C44.3561 53.0062 45.5081 53.6009 46.3292 54.1551C46.5323 54.2922 46.7573 54.3601 46.8293 54.3059C46.9013 54.2518 48.8168 52.8124 51.0861 51.1072L51.0861 51.1072ZM31.8371 44.6052L32.144 44.2983L32.144 35.9212L32.144 27.5441L32.4404 27.1995C32.8557 26.7166 33.5579 26.7166 33.9732 27.1995L34.2695 27.5441L34.2695 34.2995L34.2695 41.0549L34.635 41.4204C35.0883 41.8737 35.5063 41.8864 36.0104 41.4622L36.3951 41.1384L36.3951 33.8437L36.3951 26.5489L36.7188 26.1642C37.1371 25.667 37.7618 25.6345 38.2137 26.0864L38.5206 26.3933L38.5206 29.9726L38.5206 33.5518L38.8861 33.9174C39.2769 34.3082 39.5768 34.366 40.0638 34.144C40.6577 33.8734 40.6598 33.8473 40.6162 27.2778C40.58 21.8467 40.5484 20.9983 40.3573 20.3398C40.0045 19.1245 39.2404 17.6712 38.286 16.4007C37.2209 14.9826 36.3504 13.3524 35.8823 11.8988L35.54 10.8359L29.9765 10.8034L24.4131 10.7708L24.1955 11.4261C23.8478 12.473 23.4182 13.3807 22.6972 14.5915C21.4766 16.6416 21.5853 15.4367 21.5437 27.3748L21.507 37.9113L21.8186 38.223C22.2753 38.6797 22.898 38.6493 23.3182 38.1499L23.6419 37.7651L23.6419 32.6069L23.6419 27.4487L23.9232 27.1912C24.078 27.0495 24.3283 26.8961 24.4796 26.8503C24.8507 26.7379 25.498 27.0878 25.6478 27.4818C25.7186 27.6679 25.7674 30.5225 25.7674 34.4675L25.7674 41.1384L26.1521 41.4622C26.6562 41.8864 27.0742 41.8737 27.5274 41.4204L27.8929 41.0548L27.8929 34.2995L27.8929 27.5441L28.1893 27.1995C28.6046 26.7166 29.3067 26.7166 29.722 27.1995L30.0184 27.5441L30.0184 35.9212L30.0184 44.2983L30.3253 44.6052C30.7428 45.0228 31.4195 45.0228 31.837 44.6052L31.8371 44.6052ZM37.5203 5.45875L37.5203 2.26996L30.0185 2.26996L22.5167 2.26996L22.5167 5.45875L22.5167 8.64754L30.0185 8.64754L37.5203 8.64754L37.5203 5.45875Z" fill="#980138"/>
</svg>
