<svg width="61" height="49" viewBox="0 0 61 49" fill="none" xmlns="http://www.w3.org/2000/svg">
<path d="M48.5717 45.7018V42.6537H24.5553H0.538971V38.7557V34.8577H4.76542H8.99187L8.47838 34.0659C8.19597 33.6304 7.6581 32.6711 7.28315 31.9342C6.90819 31.1972 6.40875 29.9713 6.17329 29.21L5.74518 27.8257L4.10273 27.4174L2.46027 27.0091V23.1636V19.3181L4.10273 18.9098L5.74518 18.5015L6.17329 17.1172C6.40875 16.3559 6.91122 15.1083 7.28989 14.3448L7.97838 12.9566L7.10113 11.4627L6.22389 9.96884L8.886 7.26835L11.5481 4.56787L13.0207 5.45776L14.4934 6.34766L15.8619 5.64924C16.6145 5.2651 17.8444 4.75539 18.5949 4.51654L19.9595 4.08226L20.362 2.41613L20.7645 0.75H24.5553H28.3462L28.7487 2.41613L29.1512 4.08226L30.5158 4.51654C31.2663 4.75539 32.4962 5.2651 33.2488 5.64924L34.6173 6.34766L36.09 5.45776L37.5626 4.56787L40.2247 7.26835L42.8868 9.96884L42.0096 11.4627L41.1323 12.9566L41.8208 14.3448C42.1995 15.1083 42.7019 16.3559 42.9374 17.1172L43.3655 18.5015L45.008 18.9098L46.6504 19.3181V23.1636V27.0091L45.008 27.4174L43.3655 27.8257L42.9374 29.21C42.7019 29.9713 42.2025 31.1972 41.8275 31.9342C41.4526 32.6711 40.9147 33.6304 40.6323 34.0659L40.1188 34.8577H44.3453H48.5717V31.8095V28.7614L54.683 33.6976C58.0442 36.4126 60.7943 38.6887 60.7943 38.7557C60.7943 38.8227 58.0442 41.0988 54.683 43.8137L48.5717 48.75V45.7018ZM57.2176 38.7557C57.2176 38.6727 55.7046 37.3765 53.8553 35.8752L50.493 33.1456V34.9761V36.8067H36.367C24.1364 36.8067 22.0659 36.7545 20.9364 36.4178C20.219 36.2039 18.9122 35.6473 18.0326 35.181C17.0249 34.6469 15.8594 33.7303 14.8823 32.7037C14.0294 31.8074 13.0051 30.418 12.6061 29.6161C12.2071 28.8141 11.7064 27.5625 11.4934 26.8347C11.2542 26.0173 11.1062 24.6138 11.1062 23.1636C11.1062 21.7134 11.2542 20.3099 11.4934 19.4925C11.7064 18.7647 12.2071 17.5131 12.6061 16.7112C13.0051 15.9092 14.0294 14.5198 14.8823 13.6236C15.8594 12.5969 17.0249 11.6803 18.0326 11.1462C18.9122 10.6799 20.219 10.1234 20.9364 9.90945C21.7337 9.67176 23.1408 9.52055 24.5553 9.52055C25.9698 9.52055 27.377 9.67176 28.1742 9.90945C28.8917 10.1234 30.193 10.677 31.066 11.1398C31.9666 11.6171 33.2885 12.6274 34.1212 13.4747C34.9389 14.3069 35.954 15.677 36.4133 16.5688C36.8668 17.449 37.4103 18.7647 37.6211 19.4925C37.8554 20.3013 38.0045 21.7287 38.0045 23.1636C38.0045 24.5985 37.8554 26.026 37.6211 26.8347C37.4103 27.5625 36.8546 28.9016 36.3864 29.8105C35.7936 30.9611 34.9908 31.9786 33.7434 33.1604L31.9518 34.8577H34.576C36.9916 34.8577 37.2394 34.8141 37.6922 34.3095C37.9628 34.008 38.5741 33.1573 39.0507 32.4189C39.5274 31.6806 40.2435 30.17 40.6421 29.0621C41.0407 27.9541 41.3668 26.8357 41.3668 26.5768C41.3668 26.227 41.6293 26.0375 42.3875 25.8398C42.9489 25.6934 43.6784 25.4885 44.0086 25.3844C44.5767 25.2054 44.6128 25.0879 44.6788 23.2011C44.7301 21.7367 44.6663 21.18 44.4387 21.1056C44.2682 21.0499 43.5073 20.8293 42.7477 20.6154C41.6719 20.3124 41.3668 20.1219 41.3668 19.753C41.3668 19.4927 41.0598 18.4268 40.6846 17.3845C40.3094 16.3422 39.6662 14.9418 39.2553 14.2725L38.5081 13.0556L39.1288 11.958C39.4702 11.3544 39.8445 10.7551 39.9605 10.6262C40.0879 10.4848 39.5879 9.7947 38.699 8.88486L37.2265 7.37775L35.8919 8.19329C35.1579 8.64183 34.4413 8.93982 34.2996 8.85549C34.1578 8.77114 33.6356 8.44579 33.1391 8.13246C32.6426 7.81913 31.67 7.33625 30.9777 7.05938C30.2853 6.78252 29.1811 6.41636 28.5238 6.2457L27.3288 5.9354L26.9506 4.3781L26.5724 2.82081H24.5553H22.5383L22.1601 4.3781L21.7819 5.9354L20.5868 6.2457C19.9296 6.41636 18.8305 6.78048 18.1444 7.05484C17.4583 7.32921 16.3781 7.88128 15.744 8.28166L14.591 9.00966L13.509 8.38001C12.914 8.03371 12.3232 7.65407 12.1962 7.53634C12.0568 7.40714 11.3764 7.91429 10.4795 8.81603L8.99383 10.3098L9.79778 11.6636C10.2399 12.4082 10.5337 13.1351 10.4506 13.2789C10.3674 13.4227 10.0467 13.9524 9.73781 14.4561C9.42894 14.9597 8.95291 15.9464 8.67998 16.6487C8.40705 17.351 8.0461 18.4712 7.87786 19.1379L7.57197 20.3501L6.03683 20.7332L4.50167 21.1162L4.43187 23.1182C4.38067 24.587 4.44457 25.1487 4.67203 25.227C4.84251 25.2856 5.60343 25.511 6.36295 25.7277C7.42335 26.0302 7.74389 26.2292 7.74389 26.5847C7.74389 26.8393 8.06711 27.946 8.46216 29.0441C8.85721 30.1422 9.61681 31.72 10.1501 32.5504C10.6835 33.3808 11.8463 34.7667 12.7341 35.6302C13.622 36.4937 14.9968 37.5928 15.7894 38.0727C16.5819 38.5527 18.0264 39.2337 18.9992 39.5863C19.9721 39.9388 21.7553 40.3327 22.9619 40.4617C24.1685 40.5907 30.8566 40.6982 37.8244 40.7005L50.493 40.7051V42.5356V44.3662L53.8553 41.6366C55.7046 40.1353 57.2176 38.8387 57.2176 38.7557ZM13.977 39.5085C12.9925 38.8506 11.8695 37.9735 11.4815 37.5595L10.7761 36.8067H6.61821H2.46027V38.7557V40.7047H9.1137H15.7671L13.977 39.5085ZM28.041 34.1257C28.8106 33.857 29.8813 33.3734 30.4202 33.051C30.9591 32.7285 31.923 31.9342 32.5621 31.2858C33.2013 30.6374 33.9843 29.6597 34.3022 29.113C34.6201 28.5663 35.0968 27.4802 35.3616 26.6995C35.6991 25.7044 35.843 24.6471 35.843 23.1636C35.843 21.6801 35.6991 20.6228 35.3616 19.6277C35.0968 18.847 34.6201 17.7609 34.3022 17.2142C33.9843 16.6675 33.2013 15.6898 32.5621 15.0414C31.923 14.393 30.9591 13.5987 30.4202 13.2762C29.8813 12.9538 28.8005 12.4644 28.0185 12.1887C27.0158 11.8352 25.995 11.6874 24.5553 11.6874C23.1157 11.6874 22.0948 11.8352 21.0922 12.1887C20.3102 12.4644 19.2294 12.9538 18.6905 13.2762C18.1516 13.5987 17.1877 14.393 16.5486 15.0414C15.9094 15.6898 15.1264 16.6675 14.8085 17.2142C14.4906 17.7609 14.0139 18.847 13.7491 19.6277C13.4116 20.6228 13.2676 21.6801 13.2676 23.1636C13.2676 24.6471 13.4116 25.7044 13.7491 26.6995C14.0139 27.4802 14.4912 28.5663 14.8098 29.113C15.1285 29.6597 15.8574 30.5869 16.4298 31.1735C17.0022 31.7602 17.8733 32.513 18.3655 32.8466C18.8578 33.1802 19.9385 33.7086 20.7672 34.0209C21.9216 34.4559 22.7843 34.5916 24.4577 34.6013C26.0441 34.6105 27.0245 34.4804 28.041 34.1257ZM16.6326 28.8933C16.3484 28.4267 16.1843 27.9326 16.268 27.7952C16.3517 27.6578 16.7476 27.3737 17.1478 27.1637C17.548 26.9538 17.9003 26.8176 17.9309 26.8609C17.9614 26.9043 18.2237 27.2888 18.5139 27.7154L19.0415 28.4909L18.2333 29.1162C17.7888 29.4601 17.3631 29.7415 17.2873 29.7415C17.2115 29.7415 16.9169 29.3598 16.6326 28.8933ZM27.1971 27.4271C25.937 26.1327 25.8487 26.0871 24.5996 26.0871C23.4492 26.0871 23.2164 25.9957 22.4899 25.2588C21.7685 24.5269 21.6734 24.2813 21.6734 23.1502C21.6734 21.9736 21.7511 21.795 22.634 20.943L23.5947 20.016V16.7173V13.4186H24.5553H25.516V16.7173V20.016L26.4767 20.943C27.365 21.8002 27.4373 21.9687 27.4373 23.1797C27.4373 24.4463 27.4823 24.5356 28.8069 25.8934L30.1764 27.2973L29.4824 28.0322C29.1007 28.4363 28.7239 28.767 28.645 28.767C28.5662 28.767 27.9146 28.164 27.1971 27.4271ZM25.1558 23.1636C25.1558 22.7171 25.0112 22.5337 24.6143 22.4765C24.2895 22.4298 24.015 22.5516 23.9282 22.7811C23.8486 22.9915 23.8486 23.3358 23.9282 23.5461C24.0149 23.7756 24.2895 23.8975 24.6143 23.8507C25.0112 23.7935 25.1558 23.6101 25.1558 23.1636ZM15.1037 25.5527C15.0221 25.2437 14.9539 24.6893 14.9521 24.3208C14.9494 23.6887 15.0099 23.6509 16.0295 23.6509C17.0125 23.6509 17.1103 23.7042 17.1103 24.24C17.1103 24.564 17.1703 24.9877 17.2435 25.1814C17.3345 25.422 17.1633 25.5773 16.7031 25.6715C16.3327 25.7473 15.8546 25.8781 15.6408 25.962C15.3688 26.0688 15.2075 25.9459 15.1037 25.5527ZM15.2305 21.733C14.977 21.57 14.9666 21.3213 15.1797 20.5186C15.3271 19.9635 15.5551 19.5092 15.6863 19.5092C15.8175 19.5092 16.2922 19.6649 16.7412 19.8552C17.5402 20.1938 17.5519 20.2197 17.2936 21.0733C17.0651 21.8287 16.9306 21.945 16.2895 21.9417C15.8824 21.9399 15.4058 21.8458 15.2305 21.733Z" fill="#1B1018"/>
</svg>
