<svg width="238" height="212" viewBox="0 0 238 212" fill="none" xmlns="http://www.w3.org/2000/svg">
<g opacity="0.29">
<path d="M512.128 102.665L382.099 102.665M252.069 4.7937L252.069 102.665L382.099 102.665M252.069 4.7937L52.7308 4.79371M252.069 4.7937L190.35 66.5128M52.7308 128.232L128.631 128.232L190.35 66.5128M382.099 102.665L318.382 166.382L52.7308 166.382M190.35 66.5128L104.263 66.5128" stroke="#980138" stroke-width="5" stroke-linecap="round" stroke-linejoin="round"/>
<circle cx="52.7309" cy="4.79371" r="4.79371" transform="rotate(90 52.7309 4.79371)" fill="#980138"/>
<circle cx="103.065" cy="66.313" r="4.79371" transform="rotate(90 103.065 66.313)" fill="#980138"/>
<circle cx="155.396" cy="44.3418" r="4.39424" transform="rotate(90 155.396 44.3418)" fill="#F28C8F"/>
<circle cx="130.629" cy="207.328" r="4.39424" transform="rotate(90 130.629 207.328)" fill="#F28C8F"/>
<circle cx="53.5298" cy="128.631" r="4.79371" transform="rotate(90 53.5298 128.631)" fill="#980138"/>
<circle cx="4.39425" cy="102.665" r="4.39424" transform="rotate(90 4.39425 102.665)" fill="#F28C8F"/>
<circle cx="52.7309" cy="166.182" r="4.79371" transform="rotate(90 52.7309 166.182)" fill="#980138"/>
<path d="M252.469 102.665L3.59527 102.665M252.469 102.665L310.792 44.3418M252.469 102.665L252.469 207.328L131.428 207.328M310.792 44.3418L155.796 44.3418M310.792 44.3418L392.285 44.3418" stroke="#F28C8F" stroke-width="5" stroke-linecap="round" stroke-linejoin="round"/>
</g>
</svg>
