<svg width="691" height="580" viewBox="0 0 691 580" fill="none" xmlns="http://www.w3.org/2000/svg">
<g filter="url(#filter0_d_198_145)">
<path fill-rule="evenodd" clip-rule="evenodd" d="M-586.789 566.795L-587.666 572.016L-588.463 577.267L-589.178 582.545L-589.811 587.849L-590.36 593.177L-590.824 598.528L-591.203 603.9L-591.496 609.292L-591.701 614.702L-591.819 620.128L-591.849 625.569L-591.791 631.023L-591.644 636.488L-591.408 641.964L-591.082 647.449L-590.668 652.94L-590.163 658.437L-589.57 663.938L-588.887 669.442L-588.115 674.947L-587.254 680.451L-586.304 685.954L-585.266 691.454L-584.14 696.95L-582.925 702.44L-581.624 707.924L-580.235 713.399L-578.761 718.865L-577.2 724.321L-575.554 729.766L-573.823 735.198L-572.008 740.616L-570.109 746.019L-568.127 751.407L-566.063 756.778L-563.917 762.131L-561.69 767.466L-559.383 772.781L-556.995 778.076L-554.529 783.349L-551.984 788.6L-549.361 793.828L-546.661 799.032L-543.884 804.211L-541.03 809.364L-538.102 814.491L-535.098 819.59L-532.02 824.661L-528.868 829.703L-525.642 834.714L-522.344 839.695L-518.973 844.643L-515.53 849.559L-512.016 854.441L-508.43 859.288L-504.774 864.099L-501.047 868.873L-497.251 873.609L-493.385 878.305L-489.449 882.962L-485.446 887.577L-481.374 892.151L-477.235 896.681L-473.029 901.167L-468.756 905.608L-464.417 910.002L-460.013 914.35L-455.544 918.649L-451.011 922.899L-446.414 927.099L-441.755 931.249L-437.033 935.346L-432.249 939.39L-427.404 943.38L-422.498 947.315L-417.533 951.195L-412.509 955.018L-407.427 958.783L-402.287 962.489L-397.09 966.136L-391.836 969.722L-386.528 973.247L-381.165 976.709L-375.747 980.108L-370.277 983.443L-364.755 986.712L-359.181 989.915L-353.556 993.051L-347.882 996.118L-342.159 999.117L-336.387 1002.05L-330.569 1004.9L-324.705 1007.69L-318.795 1010.4L-312.841 1013.04L-306.844 1015.61L-300.805 1018.1L-294.724 1020.52L-288.604 1022.86L-282.444 1025.12L-276.247 1027.3L-270.012 1029.41L-263.742 1031.44L-257.437 1033.39L-251.098 1035.25L-244.727 1037.04L-238.325 1038.75L-231.892 1040.37L-225.43 1041.91L-218.941 1043.37L-212.424 1044.74L-205.883 1046.03L-199.317 1047.23L-192.727 1048.35L-186.116 1049.38L-179.485 1050.33L-172.834 1051.18L-166.165 1051.95L-159.479 1052.64L-152.778 1053.23L-146.063 1053.73L-139.335 1054.14L-132.596 1054.46L-125.847 1054.69L-119.089 1054.83L-112.325 1054.87L-105.554 1054.82L-98.7795 1054.68L-92.0023 1054.44L-85.2238 1054.11L-78.4457 1053.69L-71.6695 1053.17L-64.8968 1052.55L-58.1292 1051.84L-51.3682 1051.03L-44.6154 1050.12L-37.8726 1049.12L-31.1413 1048.02L-24.4231 1046.83L-17.7197 1045.53L-11.0328 1044.14L-4.36392 1042.65L2.28518 1041.07L8.91292 1039.38L15.5177 1037.61L22.0978 1035.73L28.6516 1033.76L35.1777 1031.69L41.6745 1029.53L48.1403 1027.27L54.5737 1024.92L60.9731 1022.47L67.3372 1019.93L73.6643 1017.3L79.9532 1014.58L86.2023 1011.77L92.4102 1008.86L98.5755 1005.87L104.697 1002.79L110.773 999.623L116.802 996.368L122.783 993.027L128.715 989.601L134.596 986.092L140.426 982.499L146.202 978.824L151.923 975.069L157.59 971.233L163.199 967.318L168.75 963.325L174.243 959.256L179.675 955.111L185.047 950.891L190.355 946.598L195.601 942.232L200.783 937.796L205.899 933.289L210.949 928.715L215.932 924.072L220.848 919.364L225.694 914.591L230.471 909.754L235.178 904.855L239.813 899.895L244.377 894.876L248.868 889.797L253.286 884.662L257.629 879.471L261.898 874.224L266.09 868.924L270.206 863.572L274.245 858.168L278.205 852.714L282.086 847.21L285.887 841.659L289.607 836.061L293.245 830.416L296.801 824.728L300.273 818.996L303.661 813.221L306.964 807.406L310.181 801.55L313.311 795.656L316.353 789.723L319.306 783.755L322.17 777.752L324.944 771.714L327.627 765.644L330.217 759.543L332.716 753.411L335.12 747.251L337.431 741.064L339.647 734.851L341.767 728.614L343.791 722.353L345.719 716.071L347.549 709.769L349.281 703.449L350.915 697.111L352.45 690.758L353.886 684.392L355.223 678.013L356.459 671.624L357.596 665.225L358.632 658.82L359.567 652.409L360.403 645.994L361.137 639.577L361.771 633.16L362.305 626.744L362.739 620.332L363.073 613.924L363.307 607.523L363.442 601.13L363.479 594.748L363.418 588.378L363.259 582.021L363.004 575.679L362.653 569.355L362.207 563.05L361.667 556.765L361.034 550.503L360.31 544.264L359.496 538.051L358.593 531.865L357.602 525.708L356.525 519.581L355.364 513.485L354.119 507.422L352.794 501.393L351.388 495.4L349.904 489.443L348.343 483.524L346.707 477.645L344.998 471.805L343.217 466.007L341.366 460.25L339.447 454.537L337.46 448.867L335.409 443.242L333.295 437.662L331.119 432.129L328.882 426.642L326.588 421.203L324.237 415.811L321.831 410.468L319.372 405.173L316.861 399.928L314.3 394.732L311.691 389.586L309.035 384.49L306.333 379.444L303.588 374.449L300.801 369.505L297.973 364.611L295.106 359.768L292.201 354.975L289.26 350.233L286.284 345.542L283.274 340.901L280.232 336.311L277.16 331.771L274.058 327.28L270.928 322.84L267.77 318.449L264.588 314.107L261.381 309.813L258.15 305.568L254.898 301.371L251.625 297.222L248.332 293.12L245.02 289.064L241.691 285.054L238.345 281.09L234.983 277.171L231.606 273.296L228.216 269.465L224.812 265.678L221.396 261.933L217.969 258.23L214.531 254.568L211.083 250.948L207.625 247.367L204.159 243.826L200.684 240.324L197.202 236.861L193.712 233.434L190.215 230.045L186.712 226.692L183.203 223.375L179.689 220.093L176.168 216.846L172.643 213.632L169.113 210.451L165.577 207.304L162.037 204.188L158.493 201.104L154.944 198.051L151.39 195.029L147.832 192.037L144.269 189.075L140.701 186.142L137.129 183.238L133.551 180.362L129.969 177.515L126.381 174.695L122.788 171.903L119.189 169.139L115.585 166.401L111.973 163.691L108.356 161.007L104.731 158.35L101.1 155.719L97.4605 153.115L93.8134 150.537L90.1581 147.987L86.4942 145.462L82.8212 142.965L79.1389 140.494L75.4469 138.05L71.7447 135.633L68.032 133.244L64.3083 130.883L60.5734 128.549L56.8268 126.244L53.0682 123.968L49.2972 121.721L45.5134 119.503L41.7166 117.316L37.9064 115.159L34.0824 113.034L30.2445 110.94L26.3923 108.879L22.5255 106.851L18.644 104.856L14.7475 102.896L10.8359 100.971L6.90893 99.0812L2.96657 97.2285L-0.991376 95.4132L-4.96494 93.6361L-8.95417 91.898L-12.959 90.1997L-16.9796 88.5421L-21.0158 86.926L-25.0675 85.3524L-29.1345 83.822L-33.2168 82.3358L-37.3142 80.8947L-41.4264 79.4995L-45.5531 78.1511L-49.6941 76.8505L-53.849 75.5984L-58.0175 74.3958L-62.1991 73.2436L-66.3934 72.1428L-70.6001 71.0943L-74.8185 70.0991L-79.0482 69.1583L-83.2886 68.2728L-87.5391 67.4437L-91.799 66.6719L-96.0677 65.9584L-100.344 65.3043L-104.628 64.7104L-108.919 64.1779L-113.215 63.7075L-117.516 63.3003L-121.821 62.9571L-126.128 62.6788L-130.437 62.4662L-134.748 62.32L-139.057 62.2409L-143.366 62.2298L-147.672 62.2871L-151.974 62.4136L-156.271 62.6096L-160.562 62.8757L-164.845 63.2122L-169.12 63.6195L-173.384 64.0979L-177.637 64.6476L-181.878 65.2686L-186.105 65.9611L-190.316 66.7251L-194.51 67.5604L-198.687 68.467L-202.844 69.4445L-206.98 70.4927L-211.094 71.6112L-215.185 72.7995L-219.25 74.0572L-223.29 75.3836L-227.303 76.778L-231.287 78.2398L-235.242 79.7682L-239.165 81.3622L-243.056 83.021L-246.915 84.7436L-250.738 86.5288L-254.527 88.3758L-258.279 90.2832L-261.994 92.2499L-265.67 94.2747L-269.308 96.3562L-272.905 98.4932L-276.462 100.684L-279.977 102.928L-283.45 105.223L-286.88 107.568L-290.267 109.962L-293.609 112.403L-296.908 114.889L-300.161 117.419L-303.369 119.991L-306.531 122.605L-309.647 125.258L-312.717 127.949L-315.74 130.676L-318.717 133.438L-321.648 136.233L-324.532 139.059L-327.37 141.914L-330.161 144.796L-332.907 147.705L-335.607 150.638L-338.263 153.593L-340.874 156.569L-343.44 159.564L-345.963 162.575L-348.444 165.602L-350.883 168.643L-353.28 171.696L-355.638 174.759L-357.956 177.831L-360.235 180.91L-362.478 183.995L-364.684 187.084L-366.856 190.175L-368.994 193.268L-371.099 196.361L-373.173 199.452L-375.218 202.54L-377.234 205.625L-379.223 208.705L-381.187 211.779L-383.127 214.846L-385.044 217.905L-386.94 220.956L-388.817 223.997L-390.675 227.028L-392.518 230.048L-394.346 233.057L-396.161 236.053L-397.965 239.038L-399.759 242.009L-401.545 244.967L-403.325 247.912L-405.1 250.844L-406.873 253.762L-408.644 256.666L-410.415 259.558L-412.188 262.435L-413.965 265.3L-415.746 268.152L-417.534 270.992L-419.33 273.82L-421.135 276.637L-422.95 279.443L-424.778 282.239L-426.618 285.027L-428.472 287.806L-430.342 290.578L-432.228 293.344L-434.131 296.104L-436.052 298.861L-437.992 301.614L-439.952 304.366L-441.931 307.118L-443.931 309.87L-445.953 312.625L-447.996 315.383L-450.06 318.147L-452.147 320.917L-454.255 323.695L-456.386 326.483L-458.539 329.282L-460.713 332.093L-462.909 334.919L-465.126 337.76L-467.364 340.619L-469.623 343.496L-471.901 346.394L-474.198 349.314L-476.514 352.257L-478.847 355.225L-481.197 358.22L-483.562 361.242L-485.943 364.294L-488.337 367.377L-490.743 370.491L-493.161 373.639L-495.589 376.822L-498.026 380.04L-500.47 383.296L-502.92 386.59L-505.375 389.924L-507.833 393.298L-510.293 396.713L-512.754 400.171L-515.213 403.673L-517.669 407.219L-520.12 410.811L-522.565 414.448L-525.002 418.132L-527.429 421.864L-529.843 425.644L-532.243 429.472L-534.628 433.349L-536.994 437.276L-539.339 441.253L-541.662 445.281L-543.961 449.358L-546.232 453.487L-548.475 457.666L-550.685 461.895L-552.863 466.175L-555.004 470.506L-557.107 474.887L-559.169 479.317L-561.188 483.798L-563.162 488.327L-565.089 492.904L-566.965 497.53L-568.79 502.203L-570.56 506.922L-572.273 511.687L-573.928 516.496L-575.522 521.349L-577.053 526.245L-578.518 531.182L-579.916 536.159L-581.245 541.175L-582.503 546.229L-583.688 551.32L-584.798 556.445L-585.832 561.604L-586.789 566.795Z" fill="#F28C8F" fill-opacity="0.3" shape-rendering="crispEdges"/>
</g>
<path fill-rule="evenodd" clip-rule="evenodd" d="M81.7022 731.126L85.0943 729.704L88.4276 728.372L91.7065 727.131L94.9359 725.983L98.1204 724.929L101.265 723.97L104.374 723.103L107.453 722.328L110.506 721.642L113.538 721.042L116.553 720.524L119.555 720.085L122.548 719.719L125.536 719.419L128.522 719.178L131.509 718.987L134.499 718.837L137.493 718.717L140.493 718.616L143.499 718.524L146.511 718.429L149.528 718.32L152.55 718.186L155.573 718.016L158.598 717.8L161.619 717.528L164.636 717.192L167.644 716.785L170.64 716.3L173.621 715.733L176.584 715.08L179.525 714.338L182.442 713.505L185.33 712.579L188.188 711.561L191.011 710.449L193.797 709.245L196.544 707.949L199.249 706.564L201.91 705.091L204.526 703.535L207.095 701.899L209.616 700.187L212.089 698.403L214.513 696.554L216.889 694.645L219.219 692.682L221.502 690.671L223.742 688.619L225.941 686.532L228.101 684.419L230.225 682.285L232.318 680.138L234.384 677.985L236.427 675.833L238.453 673.689L240.466 671.558L242.472 669.447L244.478 667.361L246.488 665.307L248.51 663.289L250.55 661.312L252.614 659.378L254.709 657.493L256.841 655.658L259.016 653.877L261.241 652.149L263.521 650.478L265.863 648.862L268.272 647.302L270.753 645.798L273.311 644.347L275.95 642.948L278.675 641.598L281.489 640.294L284.396 639.033L287.397 637.811L290.494 636.624L293.69 635.465L296.985 634.331L300.378 633.215L303.871 632.112L307.461 631.015L311.148 629.919L314.928 628.817L318.799 627.701L322.757 626.566L326.8 625.404L330.921 624.21L335.115 622.976L339.378 621.696L343.703 620.363L348.084 618.972L352.513 617.516L356.984 615.99L361.489 614.389L366.021 612.708L370.573 610.943L375.138 609.09L379.707 607.145L384.273 605.104L388.828 602.966L393.364 600.727L397.873 598.384L402.346 595.937L406.775 593.384L411.152 590.723L415.466 587.953L419.708 585.073L423.869 582.085L427.939 578.986L431.907 575.779L435.764 572.464L439.499 569.042L443.102 565.515L446.565 561.886L449.879 558.158L453.036 554.335L456.028 550.42L458.849 546.417L461.492 542.331L463.952 538.168L466.224 533.933L468.305 529.631L470.19 525.268L471.878 520.85L473.368 516.384L474.658 511.875L475.749 507.33L476.643 502.755L477.341 498.157L477.847 493.54L478.163 488.912L478.296 484.278L478.249 479.643L478.029 475.013L477.643 470.392L477.099 465.785L476.403 461.195L475.565 456.627L474.592 452.083L473.495 447.567L472.283 443.079L470.965 438.623L469.551 434.2L468.051 429.809L466.474 425.451L464.831 421.127L463.13 416.835L461.382 412.574L459.595 408.343L457.778 404.139L455.94 399.961L454.087 395.806L452.228 391.671L450.37 387.553L448.517 383.449L446.677 379.354L444.853 375.266L443.05 371.181L441.272 367.096L439.521 363.006L437.798 358.909L436.105 354.8L434.442 350.678L432.809 346.539L431.203 342.381L429.623 338.202L428.066 334L426.528 329.775L425.005 325.525L423.492 321.25L421.984 316.952L420.475 312.63L418.958 308.286L417.427 303.923L415.875 299.544L414.296 295.15L412.681 290.746L411.024 286.336L409.318 281.924L407.556 277.517L405.731 273.118L403.836 268.735L401.864 264.373L399.811 260.039L397.669 255.739L395.435 251.481L393.103 247.271L390.67 243.117L388.133 239.024L385.488 234.999L382.735 231.049L379.872 227.179L376.899 223.395L373.815 219.704L370.62 216.11L367.315 212.62L363.901 209.238L360.378 205.971L356.748 202.823L353.014 199.799L349.178 196.903L345.243 194.14L341.212 191.512L337.089 189.022L332.879 186.675L328.585 184.47L324.212 182.411L319.767 180.496L315.254 178.727L310.679 177.103L306.048 175.622L301.367 174.283L296.644 173.082L291.883 172.016L287.092 171.081L282.277 170.272L277.445 169.583L272.601 169.009L267.753 168.542L262.905 168.175L258.063 167.901L253.234 167.711L248.421 167.596L243.629 167.548L238.863 167.557L234.126 167.613L229.422 167.707L224.753 167.83L220.121 167.97L215.529 168.119L210.978 168.266L206.467 168.402L201.999 168.518L197.571 168.605L193.182 168.654L188.833 168.658L184.52 168.608L180.241 168.498L175.993 168.321L171.774 168.073L167.578 167.748L163.403 167.343L159.245 166.855L155.097 166.281L150.957 165.622L146.819 164.877L142.678 164.048L138.53 163.136L134.37 162.146L130.193 161.081L125.995 159.947L121.772 158.751L117.519 157.499L113.234 156.199L108.914 154.862L104.555 153.498L100.156 152.118L95.7157 150.738L91.2338 149.371L86.7105 148.033L82.147 146.739L77.5453 145.508L72.9083 144.356L68.2399 143.299L63.5448 142.356L58.8285 141.541L54.0972 140.872L49.3579 140.364L44.6181 140.03L39.886 139.884L35.17 139.936L30.4789 140.197L25.8216 140.675L21.2074 141.377L16.6454 142.31L12.1451 143.477L7.71618 144.883L3.36792 146.531L-0.890317 148.422L-5.0494 150.556L-9.10057 152.933L-13.0353 155.55L-16.8457 158.403L-20.5241 161.488L-24.0638 164.798L-27.4584 168.327L-30.7026 172.066L-33.7917 176.005L-36.722 180.135L-39.4905 184.443L-42.0954 188.917L-44.5358 193.544L-46.8119 198.31L-48.9249 203.199L-50.8771 208.198L-52.6718 213.289L-54.3135 218.458L-55.8076 223.688L-57.1606 228.962L-58.38 234.265L-59.4743 239.581L-60.4529 244.892L-61.3259 250.184L-62.1045 255.442L-62.8003 260.65L-63.4259 265.795L-63.9942 270.864L-64.5187 275.843L-65.0132 280.722L-65.492 285.489L-65.9695 290.135L-66.4601 294.652L-66.9782 299.031L-67.5384 303.267L-68.1547 307.354L-68.8409 311.289L-69.6104 315.069L-70.4759 318.692L-71.4498 322.158L-72.5433 325.468L-73.7671 328.625L-75.1307 331.632L-76.6427 334.493L-78.3105 337.215L-80.1404 339.803L-82.1374 342.266L-84.3052 344.612L-86.646 346.851L-89.1609 348.992L-91.8493 351.046L-94.7093 353.025L-97.7375 354.94L-100.929 356.804L-104.278 358.627L-107.778 360.424L-111.418 362.206L-115.189 363.986L-119.082 365.775L-123.083 367.584L-127.182 369.425L-131.364 371.308L-135.617 373.243L-139.926 375.24L-144.276 377.306L-148.653 379.45L-153.041 381.679L-157.426 383.999L-161.791 386.415L-166.123 388.931L-170.407 391.552L-174.629 394.279L-178.776 397.114L-182.837 400.059L-186.8 403.112L-190.656 406.274L-194.394 409.542L-198.004 412.914L-201.478 416.39L-204.806 419.964L-207.982 423.635L-210.997 427.398L-213.844 431.249L-216.518 435.183L-219.012 439.196L-221.322 443.282L-223.445 447.436L-225.376 451.652L-227.114 455.923L-228.657 460.245L-230.004 464.611L-231.157 469.014L-232.115 473.449L-232.882 477.909L-233.459 482.389L-233.852 486.882L-234.063 491.384L-234.1 495.888L-233.967 500.39L-233.671 504.885L-233.219 509.368L-232.62 513.836L-231.881 518.286L-231.011 522.713L-230.019 527.116L-228.915 531.492L-227.707 535.84L-226.406 540.159L-225.021 544.447L-223.562 548.705L-222.039 552.933L-220.461 557.131L-218.837 561.302L-217.177 565.446L-215.489 569.565L-213.781 573.663L-212.061 577.74L-210.336 581.801L-208.614 585.849L-206.9 589.887L-205.2 593.918L-203.519 597.947L-201.86 601.976L-200.227 606.01L-198.622 610.051L-197.047 614.104L-195.504 618.172L-193.991 622.258L-192.509 626.364L-191.055 630.493L-189.628 634.647L-188.224 638.828L-186.839 643.036L-185.471 647.273L-184.112 651.538L-182.759 655.831L-181.404 660.152L-180.042 664.498L-178.665 668.867L-177.265 673.256L-175.833 677.66L-174.36 682.075L-172.837 686.494L-171.253 690.909L-169.598 695.314L-167.863 699.699L-166.038 704.056L-164.114 708.375L-162.083 712.646L-159.935 716.858L-157.666 721.003L-155.267 725.068L-152.735 729.043L-150.064 732.919L-147.252 736.686L-144.297 740.335L-141.199 743.857L-137.956 747.242L-134.57 750.485L-131.041 753.575L-127.372 756.506L-123.566 759.271L-119.626 761.864L-115.556 764.278L-111.361 766.509L-107.046 768.552L-102.617 770.403L-98.0808 772.059L-93.444 773.518L-88.7141 774.777L-83.899 775.837L-79.0068 776.698L-74.0461 777.359L-69.0255 777.824L-63.9542 778.095L-58.8411 778.176L-53.6954 778.07L-48.5263 777.783L-43.3429 777.321L-38.1542 776.691L-32.9689 775.9L-27.7958 774.955L-22.6429 773.866L-17.5184 772.642L-12.4297 771.291L-7.38412 769.825L-2.38822 768.253L2.55176 766.587L7.43017 764.836L12.2419 763.013L16.9824 761.128L21.6476 759.192L26.2343 757.218L30.7397 755.215L35.1615 753.194L39.4982 751.167L43.7489 749.144L47.9132 747.136L51.9912 745.151L55.9837 743.198L59.8919 741.288L63.7177 739.428L67.4632 737.626L71.1311 735.889L74.7246 734.223L78.247 732.634L81.7022 731.126Z" fill="#FCE1CC" fill-opacity="0.3"/>
<g filter="url(#filter1_d_198_145)">
<path fill-rule="evenodd" clip-rule="evenodd" d="M-105.141 762.153L-101.399 761.585L-97.5119 761.25L-93.4761 761.133L-89.2883 761.218L-84.9462 761.491L-80.4488 761.934L-75.7957 762.531L-70.988 763.263L-66.0274 764.114L-60.9168 765.064L-55.6599 766.097L-50.2611 767.193L-44.726 768.335L-39.0607 769.505L-33.272 770.686L-27.3677 771.86L-21.356 773.011L-15.246 774.123L-9.04767 775.18L-2.77121 776.165L3.57214 777.064L9.97002 777.862L16.4102 778.544L22.8802 779.098L29.3681 779.513L35.8629 779.778L42.3536 779.887L48.8289 779.831L55.2782 779.603L61.6905 779.199L68.0552 778.612L74.3623 777.84L80.6012 776.878L86.7624 775.725L92.8363 774.379L98.8137 772.838L104.686 771.103L110.444 769.173L116.081 767.051L121.589 764.737L126.96 762.235L132.188 759.546L137.267 756.673L142.19 753.622L146.952 750.395L151.548 746.998L155.974 743.434L160.225 739.71L164.298 735.83L168.189 731.801L171.896 727.628L175.416 723.318L178.746 718.876L181.886 714.309L184.834 709.625L187.59 704.828L190.153 699.928L192.524 694.929L194.702 689.839L196.69 684.666L198.488 679.415L200.098 674.095L201.524 668.712L202.767 663.272L203.832 657.783L204.721 652.252L205.44 646.684L205.993 641.088L206.385 635.468L206.622 629.831L206.71 624.184L206.656 618.532L206.466 612.881L206.149 607.236L205.712 601.602L205.163 595.984L204.511 590.386L203.765 584.813L202.933 579.268L202.026 573.755L201.052 568.276L200.022 562.834L198.944 557.432L197.83 552.07L196.687 546.751L195.527 541.475L194.357 536.243L193.188 531.053L192.028 525.907L190.885 520.803L189.766 515.739L188.68 510.714L187.633 505.727L186.63 500.774L185.676 495.853L184.777 490.961L183.934 486.096L183.152 481.253L182.43 476.43L181.771 471.624L181.173 466.83L180.635 462.046L180.154 457.269L179.729 452.495L179.354 447.721L179.024 442.946L178.736 438.166L178.482 433.38L178.256 428.586L178.053 423.782L177.865 418.967L177.687 414.14L177.514 409.301L177.34 404.448L177.161 399.581L176.972 394.701L176.768 389.806L176.541 384.899L176.284 379.979L175.984 375.05L175.632 370.114L175.214 365.174L174.718 360.237L174.13 355.306L173.437 350.387L172.628 345.487L171.689 340.613L170.609 335.771L169.379 330.97L167.99 326.216L166.433 321.518L164.701 316.883L162.791 312.318L160.696 307.831L158.416 303.43L155.949 299.121L153.295 294.909L150.454 290.802L147.431 286.805L144.229 282.922L140.853 279.157L137.308 275.514L133.602 271.995L129.743 268.604L125.738 265.34L121.599 262.205L117.333 259.198L112.953 256.319L108.468 253.565L103.89 250.935L99.2296 248.425L94.4992 246.032L89.7102 243.751L84.8741 241.577L80.0025 239.503L75.1066 237.525L70.1975 235.636L65.2863 233.827L60.3831 232.092L55.4982 230.422L50.6412 228.808L45.8212 227.243L41.0467 225.718L36.3257 224.222L31.6656 222.748L27.073 221.285L22.5539 219.824L18.1139 218.356L13.7574 216.872L9.48852 215.362L5.31026 213.818L1.22518 212.232L-2.76492 210.594L-6.6592 208.896L-10.4573 207.132L-14.1596 205.294L-17.7674 203.375L-21.2826 201.37L-24.7076 199.273L-28.0455 197.079L-31.3001 194.784L-34.4758 192.384L-37.5775 189.879L-40.6108 187.264L-43.5813 184.54L-46.4957 181.707L-49.3604 178.765L-52.1826 175.716L-54.9698 172.562L-57.7295 169.308L-60.4694 165.958L-63.1975 162.517L-65.9216 158.991L-68.6499 155.387L-71.39 151.714L-74.1499 147.979L-76.937 144.193L-79.7587 140.365L-82.6219 136.506L-85.5332 132.627L-88.4989 128.739L-91.5244 124.854L-94.6151 120.984L-97.7754 117.141L-101.009 113.337L-104.32 109.584L-107.71 105.891L-111.18 102.268L-114.73 98.7213L-118.361 95.2561L-122.069 91.8747L-125.853 88.5781L-129.711 85.3656L-133.639 82.2356L-137.635 79.1853L-141.695 76.2109L-145.817 73.3085L-149.998 70.4732L-154.236 67.7003L-158.527 64.9844L-162.87 62.3206L-167.264 59.7038L-171.707 57.129L-176.197 54.5917L-180.734 52.0876L-185.318 49.6127L-189.947 47.1636L-194.622 44.7372L-199.343 42.3313L-204.11 39.9438L-208.923 37.5733L-213.784 35.2192L-218.692 32.8812L-223.649 30.5598L-228.655 28.2558L-233.71 25.9711L-238.816 23.7076L-243.973 21.4682L-249.182 19.2561L-254.442 17.0751L-259.754 14.9296L-265.118 12.8245L-270.534 10.7652L-276 8.75748L-281.517 6.80762L-287.083 4.92238L-292.697 3.10882L-298.356 1.37447L-304.059 -0.272822L-309.804 -1.82484L-315.587 -3.27317L-321.404 -4.60905L-327.253 -5.82356L-333.128 -6.90746L-339.025 -7.85157L-344.939 -8.64637L-350.864 -9.28246L-356.795 -9.75027L-362.723 -10.0404L-368.644 -10.1435L-374.548 -10.0502L-380.427 -9.75168L-386.275 -9.23897L-392.081 -8.5037L-397.837 -7.53782L-403.533 -6.33369L-409.159 -4.88423L-414.706 -3.18297L-420.162 -1.22407L-425.519 0.997551L-430.765 3.48625L-435.889 6.24539L-440.882 9.27749L-445.733 12.5841L-450.431 16.1657L-454.968 20.0215L-459.333 24.1499L-463.517 28.5478L-467.512 33.2111L-471.31 38.1343L-474.903 43.3108L-478.286 48.7326L-481.452 54.3905L-484.398 60.274L-487.119 66.3715L-489.613 72.6702L-491.88 79.1563L-493.918 85.8148L-495.729 92.6298L-497.316 99.5846L-498.683 106.662L-499.834 113.844L-500.775 121.111L-501.515 128.446L-502.062 135.83L-502.425 143.244L-502.615 150.669L-502.642 158.089L-502.519 165.485L-502.256 172.843L-501.865 180.149L-501.357 187.391L-500.741 194.557L-500.027 201.638L-499.226 208.625L-498.347 215.511L-497.4 222.288L-496.394 228.95L-495.338 235.491L-494.242 241.907L-493.116 248.193L-491.968 254.345L-490.808 260.36L-489.644 266.235L-488.487 271.967L-487.346 277.556L-486.228 282.998L-485.144 288.294L-484.101 293.443L-483.109 298.445L-482.176 303.3L-481.31 308.009L-480.519 312.575L-479.81 316.998L-479.191 321.282L-478.668 325.429L-478.247 329.442L-477.935 333.326L-477.736 337.084L-477.655 340.721L-477.696 344.242L-477.863 347.653L-478.158 350.959L-478.584 354.166L-479.143 357.281L-479.835 360.309L-480.66 363.258L-481.619 366.134L-482.711 368.945L-483.934 371.696L-485.286 374.396L-486.765 377.05L-488.367 379.667L-490.089 382.252L-491.927 384.813L-493.878 387.356L-495.936 389.887L-498.097 392.413L-500.356 394.939L-502.708 397.471L-505.147 400.015L-507.669 402.575L-510.268 405.157L-512.939 407.764L-515.677 410.402L-518.478 413.074L-521.336 415.784L-524.247 418.535L-527.207 421.331L-530.212 424.174L-533.258 427.067L-536.341 430.013L-539.459 433.013L-542.608 436.071L-545.785 439.189L-548.988 442.367L-552.215 445.608L-555.463 448.914L-558.729 452.286L-562.013 455.726L-565.311 459.235L-568.621 462.814L-571.942 466.466L-575.269 470.191L-578.601 473.99L-581.934 477.865L-585.265 481.816L-588.59 485.844L-591.903 489.951L-595.202 494.136L-598.479 498.4L-601.73 502.743L-604.947 507.165L-608.124 511.664L-611.253 516.241L-614.327 520.894L-617.338 525.622L-620.278 530.422L-623.138 535.292L-625.91 540.23L-628.585 545.233L-631.153 550.297L-633.601 555.417L-635.913 560.588L-638.075 565.802L-640.07 571.053L-641.885 576.333L-643.505 581.633L-644.915 586.943L-646.103 592.256L-647.056 597.559L-647.763 602.844L-648.213 608.099L-648.396 613.312L-648.305 618.474L-647.932 623.573L-647.272 628.597L-646.319 633.535L-645.07 638.376L-643.525 643.109L-641.682 647.724L-639.542 652.21L-637.108 656.559L-634.384 660.761L-631.375 664.807L-628.088 668.69L-624.529 672.403L-620.709 675.941L-616.638 679.297L-612.327 682.468L-607.789 685.451L-603.037 688.243L-598.086 690.844L-592.95 693.253L-587.646 695.471L-582.19 697.502L-576.6 699.349L-570.893 701.015L-565.086 702.507L-559.199 703.832L-553.249 704.997L-547.254 706.013L-541.233 706.887L-535.204 707.633L-529.184 708.261L-523.19 708.785L-517.241 709.218L-511.351 709.574L-505.537 709.869L-499.813 710.119L-494.194 710.34L-488.693 710.547L-483.322 710.759L-478.093 710.993L-473.015 711.265L-468.097 711.594L-463.348 711.997L-458.775 712.491L-454.381 713.092L-450.173 713.818L-446.152 714.685L-442.32 715.708L-438.677 716.901L-435.222 718.279L-431.954 719.854L-428.867 721.639L-425.958 723.644L-423.219 725.879L-420.645 728.352L-418.226 731.069L-415.953 734.037L-413.816 737.259L-411.803 740.737L-409.902 744.471L-408.1 748.46L-406.383 752.701L-404.737 757.189L-403.148 761.917L-401.6 766.878L-400.079 772.061L-398.569 777.453L-397.054 783.043L-395.521 788.815L-393.953 794.752L-392.337 800.837L-390.659 807.052L-388.906 813.378L-387.066 819.794L-385.126 826.28L-383.078 832.817L-380.912 839.383L-378.619 845.961L-376.194 852.53L-373.63 859.072L-370.922 865.564L-368.063 871.984L-365.05 878.307L-361.878 884.508L-358.544 890.559L-355.046 896.434L-351.383 902.103L-347.554 907.539L-343.563 912.714L-339.411 917.601L-335.103 922.175L-330.643 926.411L-326.04 930.286L-321.302 933.779L-316.436 936.871L-311.455 939.546L-306.37 941.789L-301.192 943.588L-295.934 944.933L-290.612 945.818L-285.237 946.239L-279.826 946.195L-274.393 945.686L-268.952 944.717L-263.518 943.294L-258.106 941.426L-252.73 939.125L-247.403 936.406L-242.138 933.284L-236.947 929.779L-231.843 925.909L-226.834 921.699L-221.931 917.171L-217.143 912.352L-212.475 907.268L-207.935 901.947L-203.526 896.417L-199.252 890.709L-195.115 884.853L-191.115 878.878L-187.252 872.816L-183.524 866.697L-179.927 860.551L-176.458 854.407L-173.109 848.295L-169.875 842.243L-166.746 836.278L-163.715 830.426L-160.772 824.711L-157.905 819.156L-155.103 813.785L-152.354 808.615L-149.646 803.666L-146.965 798.953L-144.299 794.491L-141.634 790.293L-138.957 786.368L-136.254 782.724L-133.512 779.369L-130.719 776.305L-127.861 773.535L-124.927 771.06L-121.906 768.877L-118.787 766.982L-115.56 765.37L-112.215 764.034L-108.744 762.965L-105.141 762.153Z" fill="#980138" fill-opacity="0.3" shape-rendering="crispEdges"/>
</g>
<defs>
<filter id="filter0_d_198_145" x="-598.512" y="62.2297" width="968.653" height="1005.97" filterUnits="userSpaceOnUse" color-interpolation-filters="sRGB">
<feFlood flood-opacity="0" result="BackgroundImageFix"/>
<feColorMatrix in="SourceAlpha" type="matrix" values="0 0 0 0 0 0 0 0 0 0 0 0 0 0 0 0 0 0 127 0" result="hardAlpha"/>
<feOffset dy="6.66244"/>
<feGaussianBlur stdDeviation="3.33122"/>
<feComposite in2="hardAlpha" operator="out"/>
<feColorMatrix type="matrix" values="0 0 0 0 0 0 0 0 0 0 0 0 0 0 0 0 0 0 0.25 0"/>
<feBlend mode="normal" in2="BackgroundImageFix" result="effect1_dropShadow_198_145"/>
<feBlend mode="normal" in="SourceGraphic" in2="effect1_dropShadow_198_145" result="shape"/>
</filter>
<filter id="filter1_d_198_145" x="-655.059" y="-10.1436" width="868.431" height="969.708" filterUnits="userSpaceOnUse" color-interpolation-filters="sRGB">
<feFlood flood-opacity="0" result="BackgroundImageFix"/>
<feColorMatrix in="SourceAlpha" type="matrix" values="0 0 0 0 0 0 0 0 0 0 0 0 0 0 0 0 0 0 127 0" result="hardAlpha"/>
<feOffset dy="6.66244"/>
<feGaussianBlur stdDeviation="3.33122"/>
<feComposite in2="hardAlpha" operator="out"/>
<feColorMatrix type="matrix" values="0 0 0 0 0 0 0 0 0 0 0 0 0 0 0 0 0 0 0.25 0"/>
<feBlend mode="normal" in2="BackgroundImageFix" result="effect1_dropShadow_198_145"/>
<feBlend mode="normal" in="SourceGraphic" in2="effect1_dropShadow_198_145" result="shape"/>
</filter>
</defs>
</svg>
