<svg width="287" height="314" viewBox="0 0 287 314" fill="none" xmlns="http://www.w3.org/2000/svg">
<g filter="url(#filter0_d_195_84)">
<path fill-rule="evenodd" clip-rule="evenodd" d="M290.329 203.198V203.198L291.858 203.706L293.365 204.175L294.851 204.602L296.318 204.989L297.769 205.333L299.205 205.636L300.629 205.898L302.041 206.118L303.445 206.299L304.841 206.44L306.233 206.545L307.621 206.613L309.008 206.648L310.394 206.652L311.782 206.626L313.172 206.575L314.566 206.499L315.965 206.403L317.37 206.289L318.782 206.161L320.201 206.022L321.627 205.875L323.061 205.724L324.504 205.572L325.954 205.423L327.413 205.279L328.879 205.145L330.352 205.023L331.831 204.917L333.316 204.83L334.806 204.765L336.299 204.724L337.795 204.711L339.293 204.728L340.791 204.777L342.287 204.86L343.782 204.979L345.272 205.136L346.757 205.332L348.235 205.568L349.705 205.846L351.166 206.164L352.616 206.525L354.054 206.927L355.479 207.372L356.89 207.859L358.284 208.387L359.662 208.957L361.023 209.568L362.364 210.219L363.685 210.91L364.986 211.64L366.265 212.408L367.522 213.213L368.756 214.054L369.966 214.93L371.152 215.839L372.313 216.781L373.449 217.754L374.56 218.756L375.646 219.786L376.706 220.843L377.74 221.924L378.749 223.03L379.732 224.157L380.69 225.305L381.624 226.472L382.532 227.655L383.417 228.855L384.278 230.069L385.116 231.296L385.932 232.534L386.725 233.782L387.499 235.038L388.251 236.302L388.985 237.571L389.701 238.845L390.399 240.122L391.08 241.402L391.746 242.683L392.398 243.964L393.036 245.244L393.663 246.523L394.278 247.799L394.882 249.073L395.478 250.342L396.066 251.607L396.648 252.867L397.223 254.122L397.794 255.371L398.361 256.614L398.926 257.85L399.49 259.08L400.054 260.303L400.62 261.518L401.188 262.726L401.761 263.927L402.34 265.119L402.928 266.303L403.524 267.479L404.133 268.646L404.754 269.806L405.391 270.957L406.044 272.1L406.716 273.235L407.409 274.363L408.123 275.484L408.862 276.599L409.626 277.708L410.417 278.812L411.237 279.912L412.087 281.008L412.969 282.102L413.883 283.196L414.832 284.289L415.815 285.383L416.835 286.481L417.891 287.582L418.985 288.689L420.116 289.803L421.286 290.925L422.494 292.058L423.74 293.203L425.025 294.362L426.348 295.536L427.709 296.727L429.106 297.938L430.54 299.169L432.008 300.423L433.511 301.701L435.046 303.005L436.612 304.337L438.207 305.698L439.829 307.089L441.477 308.514L443.148 309.972L444.839 311.465L446.549 312.995L448.275 314.562L450.013 316.169L451.762 317.814L453.517 319.501L455.277 321.229L457.037 322.998L458.795 324.81L460.547 326.665L462.29 328.563L464.021 330.504L465.735 332.487L467.43 334.514L469.102 336.583L470.747 338.693L472.362 340.845L473.944 343.038L475.489 345.27L476.994 347.54L478.455 349.848L479.869 352.191L481.233 354.569L482.544 356.98L483.798 359.422L484.994 361.894L486.128 364.392L487.198 366.917L488.201 369.465L489.135 372.033L489.997 374.621L490.786 377.226L491.5 379.844L492.137 382.475L492.696 385.115L493.175 387.761L493.573 390.412L493.889 393.065L494.123 395.718L494.273 398.367L494.34 401.01L494.323 403.646L494.223 406.271L494.039 408.883L493.772 411.48L493.423 414.061L492.993 416.622L492.484 419.163L491.897 421.682L491.235 424.177L490.498 426.648L489.689 429.092L488.811 431.51L487.866 433.9L486.857 436.262L485.785 438.596L484.655 440.901L483.468 443.177L482.228 445.424L480.936 447.643L479.597 449.834L478.212 451.998L476.785 454.135L475.318 456.245L473.813 458.33L472.273 460.391L470.7 462.428L469.097 464.442L467.465 466.435L465.807 468.408L464.124 470.361L462.418 472.296L460.69 474.214L458.942 476.115L457.174 478.001L455.388 479.872L453.584 481.729L451.763 483.573L449.925 485.403L448.071 487.22L446.2 489.025L444.313 490.816L442.409 492.595L440.488 494.36L438.55 496.111L436.594 497.849L434.621 499.571L432.629 501.279L430.619 502.971L428.59 504.646L426.542 506.303L424.475 507.942L422.387 509.562L420.278 511.161L418.149 512.738L415.998 514.292L413.826 515.821L411.632 517.326L409.416 518.803L407.177 520.251L404.917 521.67L402.633 523.057L400.327 524.411L397.999 525.731L395.649 527.015L393.276 528.261L390.881 529.469L388.465 530.636L386.028 531.761L383.569 532.844L381.091 533.881L378.593 534.873L376.076 535.817L373.541 536.713L370.988 537.56L368.419 538.356L365.835 539.101L363.236 539.794L360.623 540.433L357.997 541.019L355.36 541.55L352.713 542.026L350.057 542.446L347.393 542.811L344.722 543.12L342.046 543.373L339.365 543.569L336.682 543.709L333.997 543.794L331.312 543.822L328.628 543.795L325.945 543.714L323.267 543.577L320.592 543.387L317.924 543.143L315.262 542.847L312.609 542.499L309.965 542.101L307.331 541.652L304.708 541.154L302.098 540.608L299.501 540.016L296.918 539.377L294.35 538.694L291.797 537.967L289.261 537.198L286.743 536.387L284.242 535.537L281.76 534.647L279.296 533.72L276.853 532.757L274.429 531.759L272.026 530.726L269.643 529.662L267.282 528.565L264.942 527.439L262.624 526.284L260.328 525.102L258.053 523.893L255.801 522.659L253.57 521.402L251.361 520.123L249.174 518.822L247.009 517.502L244.865 516.163L242.742 514.808L240.64 513.437L238.558 512.052L236.496 510.654L234.453 509.245L232.429 507.826L230.422 506.398L228.433 504.962L226.461 503.519L224.505 502.07L222.564 500.617L220.637 499.16L218.724 497.7L216.824 496.237L214.936 494.772L213.06 493.306L211.194 491.839L209.338 490.372L207.491 488.904L205.653 487.437L203.822 485.97L201.998 484.504L200.18 483.038L198.367 481.572L196.56 480.107L194.757 478.642L192.958 477.177L191.162 475.712L189.369 474.245L187.578 472.778L185.789 471.309L184.002 469.838L182.216 468.365L180.432 466.888L178.649 465.407L176.866 463.921L175.085 462.43L173.305 460.933L171.526 459.429L169.748 457.917L167.973 456.397L166.199 454.867L164.427 453.326L162.658 451.774L160.893 450.21L159.132 448.633L157.375 447.042L155.624 445.436L153.88 443.814L152.142 442.176L150.413 440.519L148.693 438.845L146.984 437.151L145.286 435.437L143.601 433.702L141.929 431.947L140.272 430.169L138.631 428.37L137.007 426.547L135.401 424.702L133.815 422.834L132.249 420.941L130.704 419.025L129.182 417.086L127.684 415.122L126.211 413.134L124.764 411.121L123.344 409.085L121.953 407.025L120.592 404.94L119.261 402.832L117.963 400.701L116.698 398.546L115.468 396.367L114.274 394.167L113.117 391.944L111.998 389.699L110.919 387.433L109.88 385.146L108.883 382.839L107.928 380.512L107.018 378.167L106.152 375.803L105.333 373.422L104.56 371.025L103.835 368.612L103.158 366.185L102.53 363.743L101.953 361.29L101.426 358.824L100.95 356.348L100.525 353.862L100.152 351.369L99.8302 348.867L99.561 346.36L99.3437 343.848L99.1785 341.333L99.0652 338.814L99.0034 336.294L98.9929 333.774L99.0331 331.255L99.1236 328.738L99.2637 326.224L99.4526 323.714L99.6896 321.21L99.9737 318.711L100.304 316.22L100.679 313.737L101.099 311.262L101.561 308.798L102.064 306.343L102.608 303.9L103.19 301.469L103.81 299.05L104.466 296.644L105.156 294.251L105.88 291.871L106.635 289.506L107.42 287.154L108.233 284.817L109.074 282.495L109.941 280.187L110.831 277.894L111.745 275.615L112.681 273.35L113.636 271.1L114.611 268.864L115.605 266.641L116.615 264.433L117.641 262.237L118.683 260.055L119.739 257.885L120.808 255.728L121.891 253.583L122.987 251.45L124.095 249.329L125.215 247.219L126.347 245.121L127.491 243.033L128.646 240.956L129.814 238.891L130.995 236.836L132.19 234.793L133.398 232.761L134.623 230.742L135.864 228.736L137.123 226.743L138.401 224.765L139.701 222.804L141.024 220.859L142.372 218.934L143.745 217.029L145.147 215.146L146.578 213.287L148.041 211.454L149.537 209.649L151.068 207.875L152.635 206.134L154.24 204.428L155.883 202.759L157.567 201.132L159.292 199.547L161.059 198.007L162.868 196.516L164.72 195.075L166.616 193.688L168.555 192.356L170.537 191.083L172.562 189.87L174.629 188.719L176.738 187.633L178.886 186.614L181.074 185.663L183.3 184.781L185.561 183.97L187.856 183.231L190.183 182.564L192.539 181.971L194.922 181.45L197.328 181.002L199.757 180.628L202.204 180.325L204.668 180.095L207.144 179.935L209.632 179.846L212.126 179.825L214.626 179.872L217.127 179.985L219.628 180.161L222.125 180.399L224.615 180.698L227.096 181.053L229.566 181.464L232.021 181.927L234.459 182.439L236.879 182.997L239.277 183.599L241.651 184.241L244 184.92L246.322 185.632L248.615 186.375L250.877 187.143L253.107 187.934L255.305 188.745L257.467 189.571L259.595 190.408L261.687 191.254L263.742 192.105L265.761 192.956L267.742 193.805L269.687 194.648L271.594 195.482L273.465 196.303L275.299 197.108L277.098 197.895L278.862 198.66L280.592 199.4L282.29 200.113L283.955 200.797L285.591 201.45L287.197 202.069L288.776 202.652L290.329 203.198" fill="#980138" fill-opacity="0.5" shape-rendering="crispEdges"/>
</g>
<g filter="url(#filter1_d_195_84)">
<path fill-rule="evenodd" clip-rule="evenodd" d="M306.415 175.439V175.439L307.583 173.959L308.716 172.387L309.82 170.721L310.898 168.962L311.954 167.111L312.993 165.171L314.019 163.142L315.036 161.027L316.049 158.83L317.062 156.553L318.081 154.201L319.109 151.778L320.151 149.288L321.211 146.739L322.294 144.134L323.404 141.481L324.545 138.786L325.721 136.056L326.934 133.297L328.189 130.518L329.488 127.724L330.834 124.924L332.229 122.125L333.675 119.334L335.174 116.557L336.727 113.801L338.335 111.073L340 108.379L341.72 105.727L343.498 103.123L345.331 100.574L347.222 98.0847L349.167 95.6622L351.168 93.3118L353.222 91.0388L355.329 88.8483L357.486 86.7451L359.691 84.7338L361.944 82.8186L364.241 81.0035L366.581 79.292L368.96 77.6874L371.377 76.1926L373.827 74.8104L376.31 73.5428L378.821 72.3919L381.357 71.3591L383.916 70.4458L386.494 69.6527L389.088 68.9803L391.695 68.4287L394.312 67.9977L396.935 67.6868L399.562 67.495L402.189 67.4211L404.814 67.4636L407.433 67.6205L410.044 67.8898L412.644 68.2688L415.231 68.755L417.801 69.3454L420.353 70.0366L422.885 70.8253L425.393 71.7078L427.878 72.6802L430.336 73.7386L432.767 74.8787L435.168 76.0963L437.54 77.3869L439.881 78.7462L442.189 80.1693L444.465 81.6518L446.709 83.1891L448.919 84.7763L451.096 86.4089L453.24 88.0822L455.352 89.7917L457.431 91.5328L459.478 93.3011L461.495 95.0922L463.482 96.9019L465.439 98.7262L467.369 100.561L469.273 102.403L471.151 104.248L473.006 106.093L474.839 107.934L476.651 109.769L478.444 111.596L480.22 113.41L481.98 115.211L483.727 116.996L485.461 118.764L487.184 120.512L488.898 122.24L490.605 123.947L492.305 125.633L494 127.296L495.692 128.937L497.381 130.557L499.068 132.154L500.754 133.731L502.44 135.289L504.125 136.828L505.811 138.35L507.497 139.857L509.182 141.351L510.867 142.834L512.55 144.308L514.231 145.776L515.908 147.241L517.58 148.705L519.246 150.172L520.903 151.643L522.55 153.123L524.183 154.614L525.801 156.119L527.402 157.64L528.982 159.181L530.54 160.743L532.071 162.329L533.575 163.942L535.047 165.581L536.487 167.25L537.893 168.947L539.262 170.675L540.594 172.431L541.888 174.216L543.144 176.029L544.36 177.868L545.536 179.735L546.67 181.628L547.76 183.548L548.806 185.495L549.803 187.469L550.751 189.471L551.648 191.5L552.49 193.557L553.277 195.641L554.006 197.752L554.675 199.889L555.283 202.053L555.828 204.241L556.309 206.454L556.726 208.689L557.077 210.946L557.362 213.221L557.581 215.515L557.734 217.824L557.823 220.147L557.847 222.481L557.808 224.823L557.707 227.172L557.547 229.525L557.329 231.879L557.057 234.232L556.731 236.581L556.356 238.923L555.935 241.257L555.47 243.579L554.967 245.887L554.427 248.179L553.856 250.453L553.256 252.707L552.634 254.938L551.992 257.146L551.335 259.327L550.667 261.482L549.994 263.609L549.319 265.706L548.646 267.774L547.981 269.81L547.327 271.815L546.689 273.789L546.072 275.73L545.478 277.64L544.914 279.519L544.381 281.366L543.886 283.184L543.43 284.971L543.017 286.73L542.652 288.462L542.338 290.167L542.077 291.847L541.872 293.504L541.727 295.14L541.645 296.756L541.626 298.354L541.675 299.937L541.792 301.506L541.981 303.063L542.242 304.612L542.577 306.155L542.988 307.693L543.475 309.23L544.04 310.769L544.683 312.311L545.405 313.86L546.206 315.418L547.086 316.989L548.045 318.574L549.082 320.177L550.197 321.8L551.389 323.446L552.656 325.118L553.997 326.819L555.411 328.55L556.894 330.315L558.446 332.116L560.063 333.956L561.742 335.836L563.48 337.758L565.273 339.726L567.118 341.739L569.011 343.801L570.946 345.912L572.92 348.073L574.926 350.287L576.961 352.553L579.018 354.872L581.091 357.245L583.174 359.671L585.261 362.15L587.346 364.682L589.422 367.266L591.482 369.901L593.52 372.586L595.529 375.319L597.502 378.098L599.433 380.921L601.315 383.786L603.142 386.691L604.907 389.631L606.604 392.605L608.229 395.61L609.776 398.642L611.242 401.698L612.623 404.775L613.915 407.871L615.116 410.982L616.222 414.104L617.233 417.235L618.144 420.372L618.955 423.511L619.665 426.649L620.271 429.783L620.773 432.91L621.171 436.027L621.462 439.13L621.648 442.216L621.728 445.284L621.702 448.328L621.569 451.348L621.332 454.339L620.989 457.299L620.543 460.226L619.993 463.117L619.342 465.969L618.589 468.78L617.738 471.548L616.788 474.27L615.743 476.944L614.604 479.569L613.373 482.143L612.052 484.663L610.644 487.129L609.15 489.539L607.574 491.892L605.918 494.186L604.184 496.421L602.376 498.596L600.495 500.709L598.546 502.761L596.531 504.751L594.453 506.679L592.314 508.545L590.118 510.348L587.869 512.088L585.568 513.767L583.218 515.384L580.824 516.939L578.387 518.434L575.911 519.868L573.399 521.243L570.852 522.56L568.274 523.818L565.668 525.02L563.036 526.166L560.381 527.257L557.704 528.294L555.009 529.278L552.297 530.211L549.57 531.093L546.831 531.925L544.081 532.709L541.322 533.445L538.555 534.134L535.783 534.778L533.006 535.376L530.225 535.93L527.442 536.44L524.658 536.906L521.874 537.33L519.09 537.711L516.308 538.049L513.527 538.345L510.749 538.598L507.974 538.807L505.203 538.973L502.435 539.095L499.671 539.172L496.912 539.203L494.157 539.188L491.407 539.124L488.662 539.011L485.923 538.847L483.19 538.632L480.462 538.363L477.742 538.039L475.028 537.659L472.322 537.222L469.624 536.725L466.935 536.168L464.256 535.551L461.588 534.871L458.933 534.13L456.29 533.328L453.663 532.464L451.052 531.541L448.46 530.559L445.888 529.524L443.338 528.436L440.812 527.302L438.312 526.127L435.841 524.915L433.399 523.673L430.988 522.407L428.61 521.123L426.265 519.827L423.955 518.527L421.68 517.229L419.441 515.941L417.237 514.67L415.069 513.422L412.936 512.207L410.837 511.029L408.771 509.898L406.738 508.82L404.735 507.802L402.76 506.85L400.812 505.971L398.888 505.172L396.985 504.457L395.1 503.832L393.231 503.302L391.374 502.872L389.525 502.544L387.681 502.323L385.838 502.211L383.993 502.209L382.141 502.32L380.279 502.544L378.403 502.881L376.508 503.33L374.592 503.89L372.649 504.558L370.678 505.333L368.675 506.209L366.636 507.184L364.558 508.252L362.44 509.407L360.278 510.644L358.07 511.956L355.816 513.336L353.513 514.776L351.161 516.268L348.759 517.803L346.308 519.373L343.806 520.968L341.256 522.578L338.659 524.194L336.015 525.807L333.328 527.405L330.599 528.98L327.832 530.522L325.029 532.019L322.194 533.464L319.332 534.846L316.447 536.156L313.543 537.385L310.625 538.524L307.699 539.566L304.769 540.503L301.842 541.328L298.923 542.033L296.019 542.614L293.134 543.063L290.275 543.377L287.449 543.551L284.66 543.581L281.915 543.465L279.219 543.201L276.579 542.786L273.999 542.22L271.485 541.503L269.041 540.635L266.673 539.617L264.384 538.451L262.179 537.139L260.061 535.685L258.033 534.091L256.1 532.362L254.262 530.501L252.522 528.515L250.882 526.407L249.342 524.185L247.905 521.853L246.57 519.418L245.337 516.887L244.207 514.265L243.177 511.561L242.248 508.78L241.417 505.93L240.683 503.018L240.043 500.05L239.495 497.034L239.037 493.977L238.665 490.885L238.376 487.765L238.165 484.624L238.03 481.468L237.967 478.304L237.969 475.138L238.034 471.975L238.156 468.821L238.332 465.68L238.559 462.557L238.833 459.454L239.153 456.373L239.514 453.318L239.915 450.29L240.354 447.292L240.829 444.324L241.336 441.389L241.875 438.488L242.441 435.622L243.034 432.793L243.65 430.002L244.286 427.251L244.939 424.54L245.607 421.872L246.285 419.248L246.97 416.669L247.659 414.136L248.347 411.651L249.031 409.214L249.706 406.827L250.367 404.49L251.012 402.205L251.634 399.972L252.23 397.791L252.795 395.663L253.325 393.588L253.814 391.565L254.26 389.596L254.658 387.678L255.003 385.812L255.292 383.996L255.521 382.229L255.687 380.51L255.786 378.837L255.817 377.208L255.776 375.622L255.66 374.076L255.47 372.568L255.202 371.094L254.856 369.654L254.43 368.242L253.926 366.858L253.342 365.497L252.68 364.157L251.94 362.833L251.123 361.524L250.232 360.226L249.267 358.936L248.232 357.65L247.128 356.365L245.96 355.078L244.73 353.787L243.442 352.487L242.099 351.178L240.706 349.855L239.267 348.516L237.786 347.16L236.267 345.783L234.715 344.383L233.135 342.96L231.531 341.511L229.908 340.034L228.271 338.529L226.624 336.994L224.972 335.429L223.318 333.832L221.668 332.204L220.025 330.542L218.394 328.849L216.778 327.123L215.18 325.364L213.603 323.573L212.052 321.75L210.528 319.895L209.034 318.009L207.573 316.093L206.145 314.147L204.754 312.171L203.4 310.168L202.085 308.136L200.81 306.078L199.576 303.994L198.382 301.885L197.231 299.752L196.121 297.595L195.053 295.415L194.027 293.214L193.043 290.991L192.102 288.748L191.202 286.486L190.345 284.204L189.529 281.904L188.756 279.588L188.025 277.254L187.338 274.905L186.695 272.541L186.097 270.164L185.547 267.774L185.044 265.374L184.594 262.964L184.199 260.547L183.863 258.126L183.591 255.703L183.386 253.28L183.254 250.862L183.197 248.451L183.22 246.05L183.327 243.664L183.52 241.295L183.804 238.947L184.181 236.625L184.654 234.331L185.224 232.07L185.894 229.845L186.665 227.66L187.537 225.519L188.512 223.425L189.59 221.382L190.769 219.392L192.05 217.46L193.431 215.587L194.911 213.776L196.487 212.03L198.157 210.351L199.918 208.74L201.767 207.2L203.7 205.732L205.714 204.336L207.805 203.013L209.967 201.764L212.197 200.589L214.49 199.486L216.84 198.457L219.243 197.499L221.692 196.611L224.183 195.792L226.71 195.04L229.268 194.352L231.85 193.726L234.452 193.16L237.068 192.648L239.692 192.19L242.319 191.78L244.943 191.415L247.56 191.09L250.164 190.801L252.751 190.545L255.315 190.315L257.853 190.106L260.361 189.915L262.833 189.736L265.266 189.563L267.658 189.39L270.004 189.214L272.302 189.027L274.55 188.825L276.744 188.603L278.882 188.354L280.964 188.073L282.988 187.755L284.952 187.395L286.857 186.988L288.701 186.529L290.484 186.012L292.208 185.434L293.872 184.79L295.477 184.075L297.024 183.287L298.516 182.421L299.954 181.475L301.34 180.444L302.676 179.327L303.965 178.122L305.21 176.827L306.415 175.439" fill="#F28C8F" fill-opacity="0.5" shape-rendering="crispEdges"/>
</g>
<g filter="url(#filter2_d_195_84)">
<path fill-rule="evenodd" clip-rule="evenodd" d="M185.884 286.196V286.196L187.687 285.933L189.484 285.63L191.28 285.292L193.077 284.925L194.878 284.536L196.684 284.131L198.497 283.716L200.318 283.298L202.149 282.883L203.99 282.477L205.842 282.085L207.703 281.713L209.575 281.366L211.457 281.048L213.348 280.764L215.246 280.517L217.152 280.311L219.063 280.149L220.978 280.035L222.896 279.972L224.815 279.962L226.733 280.009L228.648 280.113L230.558 280.28L232.46 280.511L234.351 280.811L236.229 281.182L238.091 281.628L239.933 282.151L241.753 282.752L243.548 283.432L245.314 284.193L247.048 285.034L248.748 285.955L250.412 286.953L252.038 288.026L253.622 289.172L255.165 290.388L256.664 291.668L258.12 293.01L259.531 294.408L260.897 295.856L262.219 297.351L263.497 298.885L264.734 300.454L265.929 302.051L267.085 303.671L268.204 305.308L269.289 306.956L270.342 308.611L271.366 310.266L272.364 311.916L273.34 313.557L274.297 315.185L275.24 316.794L276.171 318.382L277.095 319.944L278.015 321.478L278.937 322.98L279.863 324.448L280.798 325.88L281.747 327.275L282.712 328.63L283.699 329.944L284.711 331.217L285.751 332.449L286.825 333.639L287.935 334.787L289.086 335.894L290.28 336.96L291.521 337.988L292.812 338.977L294.156 339.93L295.557 340.848L297.015 341.734L298.535 342.589L300.117 343.417L301.764 344.22L303.477 345.002L305.257 345.765L307.106 346.513L309.022 347.25L311.007 347.979L313.059 348.706L315.179 349.433L317.363 350.166L319.61 350.909L321.918 351.666L324.282 352.443L326.7 353.243L329.166 354.072L331.676 354.935L334.224 355.835L336.803 356.778L339.407 357.768L342.027 358.81L344.655 359.907L347.282 361.063L349.899 362.282L352.493 363.568L355.055 364.922L357.572 366.349L360.034 367.848L362.429 369.423L364.747 371.071L366.975 372.795L369.105 374.593L371.127 376.462L373.032 378.402L374.811 380.409L376.457 382.48L377.965 384.611L379.328 386.797L380.543 389.035L381.606 391.319L382.515 393.643L383.27 396.003L383.869 398.393L384.314 400.806L384.608 403.238L384.752 405.683L384.751 408.135L384.61 410.59L384.334 413.041L383.93 415.485L383.403 417.917L382.763 420.332L382.016 422.729L381.17 425.103L380.235 427.451L379.218 429.772L378.128 432.063L376.974 434.324L375.763 436.553L374.505 438.749L373.206 440.913L371.875 443.044L370.517 445.144L369.14 447.212L367.748 449.25L366.347 451.259L364.941 453.239L363.534 455.193L362.129 457.121L360.727 459.025L359.329 460.905L357.937 462.764L356.551 464.6L355.168 466.416L353.789 468.211L352.412 469.985L351.033 471.739L349.651 473.47L348.261 475.18L346.862 476.866L345.449 478.527L344.02 480.161L342.57 481.767L341.097 483.343L339.597 484.886L338.069 486.393L336.509 487.864L334.917 489.295L333.29 490.684L331.628 492.029L329.93 493.33L328.198 494.583L326.432 495.788L324.632 496.944L322.801 498.05L320.941 499.106L319.054 500.111L317.141 501.066L315.206 501.97L313.252 502.824L311.281 503.63L309.296 504.388L307.299 505.098L305.294 505.762L303.28 506.38L301.262 506.953L299.241 507.482L297.218 507.968L295.196 508.411L293.176 508.814L291.161 509.177L289.152 509.502L287.152 509.79L285.161 510.043L283.182 510.263L281.216 510.452L279.266 510.613L277.332 510.746L275.417 510.855L273.523 510.943L271.649 511.012L269.799 511.065L267.973 511.104L266.172 511.133L264.397 511.154L262.649 511.171L260.928 511.188L259.236 511.206L257.573 511.229L255.938 511.261L254.333 511.305L252.757 511.364L251.209 511.441L249.69 511.54L248.199 511.664L246.735 511.817L245.298 512.002L243.886 512.222L242.499 512.481L241.135 512.782L239.793 513.129L238.471 513.524L237.167 513.973L235.881 514.477L234.609 515.04L233.349 515.665L232.1 516.356L230.858 517.116L229.621 517.947L228.385 518.852L227.149 519.833L225.908 520.894L224.659 522.035L223.399 523.258L222.124 524.565L220.83 525.955L219.513 527.43L218.17 528.988L216.797 530.628L215.389 532.348L213.942 534.147L212.454 536.02L210.919 537.964L209.335 539.973L207.698 542.043L206.006 544.166L204.254 546.335L202.442 548.542L200.567 550.778L198.628 553.035L196.623 555.302L194.553 557.57L192.417 559.828L190.215 562.067L187.95 564.276L185.622 566.445L183.233 568.566L180.785 570.63L178.282 572.63L175.724 574.562L173.116 576.42L170.458 578.201L167.756 579.9L165.01 581.515L162.224 583.041L159.402 584.477L156.547 585.818L153.662 587.061L150.751 588.204L147.818 589.241L144.868 590.17L141.905 590.988L138.935 591.69L135.961 592.274L132.989 592.735L130.025 593.07L127.074 593.277L124.143 593.353L121.236 593.295L118.36 593.101L115.521 592.769L112.725 592.299L109.978 591.69L107.285 590.942L104.652 590.055L102.084 589.031L99.5859 587.871L97.1631 586.578L94.8196 585.154L92.5595 583.603L90.3861 581.929L88.3027 580.136L86.3118 578.23L84.4155 576.216L82.6155 574.099L80.9127 571.887L79.3078 569.585L77.8008 567.199L76.3914 564.737L75.0787 562.206L73.8614 559.612L72.7378 556.963L71.7058 554.265L70.7631 551.524L69.9071 548.748L69.1349 545.942L68.4434 543.113L67.8295 540.266L67.2899 537.407L66.8216 534.539L66.4212 531.669L66.0857 528.799L65.8122 525.934L65.5978 523.077L65.44 520.231L65.3364 517.399L65.2851 514.582L65.2841 511.782L65.332 509.001L65.4273 506.241L65.5689 503.501L65.756 500.784L65.9875 498.09L66.2628 495.42L66.5807 492.775L66.9402 490.155L67.3397 487.562L67.7772 484.996L68.2499 482.459L68.7541 479.954L69.2853 477.481L69.839 475.042L70.4109 472.639L70.9972 470.272L71.5951 467.941L72.203 465.647L72.8199 463.389L73.4456 461.165L74.0803 458.975L74.7247 456.818L75.3797 454.693L76.0465 452.599L76.7261 450.535L77.4198 448.5L78.1286 446.494L78.8536 444.517L79.5955 442.566L80.3549 440.644L81.1323 438.748L81.9278 436.879L82.7413 435.037L83.5725 433.223L84.4207 431.435L85.2849 429.674L86.1642 427.94L87.057 426.233L87.9617 424.553L88.8765 422.9L89.7993 421.273L90.7277 419.673L91.6592 418.099L92.5911 416.55L93.5206 415.026L94.4445 413.527L95.3597 412.05L96.2629 410.595L97.1504 409.161L98.0188 407.747L98.8642 406.349L99.683 404.968L100.471 403.6L101.225 402.244L101.94 400.896L102.612 399.554L103.239 398.214L103.814 396.875L104.336 395.532L104.8 394.181L105.202 392.819L105.54 391.441L105.81 390.044L106.01 388.622L106.137 387.173L106.189 385.69L106.165 384.169L106.063 382.606L105.884 380.997L105.627 379.336L105.294 377.62L104.885 375.844L104.404 374.006L103.854 372.1L103.237 370.126L102.56 368.08L101.828 365.96L101.046 363.766L100.222 361.496L99.3646 359.152L98.4811 356.733L97.5809 354.243L96.6735 351.683L95.769 349.057L94.8774 346.369L94.0091 343.624L93.1742 340.827L92.3828 337.986L91.6441 335.106L90.9677 332.194L90.3627 329.258L89.8389 326.307L89.4058 323.352L89.0731 320.402L88.8503 317.469L88.7463 314.565L88.7693 311.702L88.9266 308.894L89.2243 306.152L89.6674 303.489L90.2594 300.916L91.0028 298.445L91.8983 296.086L92.9457 293.849L94.1431 291.742L95.4876 289.773L96.9748 287.948L98.5993 286.273L100.355 284.751L102.234 283.385L104.228 282.176L106.329 281.124L108.527 280.227L110.812 279.483L113.174 278.888L115.603 278.437L118.087 278.123L120.617 277.939L123.182 277.877L125.772 277.929L128.379 278.083L130.991 278.331L133.602 278.66L136.202 279.061L138.785 279.521L141.344 280.029L143.874 280.574L146.368 281.144L148.824 281.729L151.237 282.317L153.605 282.899L155.927 283.465L158.201 284.006L160.427 284.514L162.606 284.983L164.738 285.405L166.825 285.775L168.87 286.09L170.875 286.345L172.843 286.539L174.778 286.671L176.682 286.739L178.56 286.746L180.416 286.691L182.252 286.579L184.074 286.413L185.884 286.196" fill="#FCE1CC" fill-opacity="0.5" shape-rendering="crispEdges"/>
</g>
<defs>
<filter id="filter0_d_195_84" x="88.9929" y="173.825" width="415.347" height="383.997" filterUnits="userSpaceOnUse" color-interpolation-filters="sRGB">
<feFlood flood-opacity="0" result="BackgroundImageFix"/>
<feColorMatrix in="SourceAlpha" type="matrix" values="0 0 0 0 0 0 0 0 0 0 0 0 0 0 0 0 0 0 127 0" result="hardAlpha"/>
<feOffset dy="4"/>
<feGaussianBlur stdDeviation="5"/>
<feComposite in2="hardAlpha" operator="out"/>
<feColorMatrix type="matrix" values="0 0 0 0 0.158333 0 0 0 0 0.158333 0 0 0 0 0.158333 0 0 0 0.25 0"/>
<feBlend mode="normal" in2="BackgroundImageFix" result="effect1_dropShadow_195_84"/>
<feBlend mode="normal" in="SourceGraphic" in2="effect1_dropShadow_195_84" result="shape"/>
</filter>
<filter id="filter1_d_195_84" x="173.197" y="61.4211" width="458.531" height="496.16" filterUnits="userSpaceOnUse" color-interpolation-filters="sRGB">
<feFlood flood-opacity="0" result="BackgroundImageFix"/>
<feColorMatrix in="SourceAlpha" type="matrix" values="0 0 0 0 0 0 0 0 0 0 0 0 0 0 0 0 0 0 127 0" result="hardAlpha"/>
<feOffset dy="4"/>
<feGaussianBlur stdDeviation="5"/>
<feComposite in2="hardAlpha" operator="out"/>
<feColorMatrix type="matrix" values="0 0 0 0 0.158333 0 0 0 0 0.158333 0 0 0 0 0.158333 0 0 0 0.25 0"/>
<feBlend mode="normal" in2="BackgroundImageFix" result="effect1_dropShadow_195_84"/>
<feBlend mode="normal" in="SourceGraphic" in2="effect1_dropShadow_195_84" result="shape"/>
</filter>
<filter id="filter2_d_195_84" x="55.2841" y="271.877" width="339.468" height="335.476" filterUnits="userSpaceOnUse" color-interpolation-filters="sRGB">
<feFlood flood-opacity="0" result="BackgroundImageFix"/>
<feColorMatrix in="SourceAlpha" type="matrix" values="0 0 0 0 0 0 0 0 0 0 0 0 0 0 0 0 0 0 127 0" result="hardAlpha"/>
<feOffset dy="4"/>
<feGaussianBlur stdDeviation="5"/>
<feComposite in2="hardAlpha" operator="out"/>
<feColorMatrix type="matrix" values="0 0 0 0 0.158333 0 0 0 0 0.158333 0 0 0 0 0.158333 0 0 0 0.25 0"/>
<feBlend mode="normal" in2="BackgroundImageFix" result="effect1_dropShadow_195_84"/>
<feBlend mode="normal" in="SourceGraphic" in2="effect1_dropShadow_195_84" result="shape"/>
</filter>
</defs>
</svg>
