<svg width="49" height="49" viewBox="0 0 49 49" fill="none" xmlns="http://www.w3.org/2000/svg">
<g clip-path="url(#clip0_187_54)">
<path d="M24.8116 43.86L20.3788 39.4699L19.1552 39.731C18.4823 39.8746 17.1555 39.9938 16.2069 39.996C15.2583 39.9981 13.8606 39.8804 13.1009 39.7344C12.3411 39.5884 11.0849 39.2336 10.3093 38.9459C9.53366 38.6582 8.16792 37.9357 7.27433 37.3404C6.38074 36.745 5.19068 35.7642 4.62974 35.1607C4.06881 34.5572 3.2886 33.5813 2.89594 32.9921C2.50328 32.4029 1.9331 31.374 1.62889 30.7057C1.32469 30.0375 0.908736 28.7966 0.704556 27.9483C0.446353 26.8756 0.333313 25.7494 0.333313 24.2497C0.333313 22.7499 0.446353 21.6237 0.704556 20.551C0.908736 19.7027 1.32469 18.4618 1.62889 17.7936C1.9331 17.1253 2.50328 16.0965 2.89594 15.5072C3.2886 14.918 4.06881 13.9421 4.62974 13.3386C5.19068 12.7352 6.38074 11.7543 7.27433 11.1589C8.16792 10.5636 9.53366 9.84107 10.3093 9.55338C11.0849 9.26569 12.3411 8.91086 13.1009 8.76486C13.8606 8.61887 15.2583 8.5031 16.2069 8.50759C17.1555 8.51184 18.2917 8.58513 18.7317 8.66992L19.5317 8.82408V5.56193C19.5317 3.14702 19.6021 2.13198 19.8028 1.65366C19.9518 1.29829 20.3542 0.837228 20.6969 0.629105C21.2985 0.26382 21.6256 0.25068 30.1299 0.250006C37.6373 0.249404 39.0214 0.291322 39.4919 0.53373C39.7956 0.69017 40.1726 1.06567 40.3297 1.36818C40.5769 1.84445 40.6152 3.67789 40.6152 15.0406V28.163L43.9254 28.222L47.2356 28.281L47.7844 28.8933C48.1351 29.2845 48.3333 29.7111 48.3333 30.0745C48.3333 30.3874 48.2117 30.8712 48.0632 31.1497C47.9146 31.4282 44.1238 35.2965 39.6392 39.7459C35.1546 44.1954 31.3003 47.929 31.0741 48.0429C30.848 48.1568 30.3438 48.25 29.9537 48.25C29.2799 48.25 29.0226 48.0304 24.8116 43.8599V43.86ZM38.5228 38.4277C43.3476 33.621 46.6351 30.2074 46.5584 30.0839C46.4712 29.9434 45.3853 29.8747 43.2501 29.8747C40.1616 29.8747 40.0565 29.8619 39.5433 29.4223L39.0151 28.9699L38.921 15.5002L38.8269 2.03058L30.2833 1.98174C24.1319 1.94659 21.6679 1.99237 21.4829 2.14533C21.2829 2.31065 21.2259 3.1201 21.2259 5.79788V9.23806L22.6137 9.87668C23.3769 10.2279 24.5044 10.8555 25.1191 11.2714C25.7338 11.6872 26.8671 12.6984 27.6375 13.5185C28.4078 14.3387 29.3223 15.4831 29.6696 16.0617C30.0169 16.6403 30.503 17.6115 30.7497 18.22C30.9964 18.8284 31.3455 19.8644 31.5255 20.5223C31.7673 21.4065 31.8494 22.4027 31.8403 24.3434C31.8295 26.6299 31.7631 27.1814 31.3249 28.6199C31.0482 29.5281 30.5997 30.7094 30.3282 31.2449C30.0567 31.7804 29.5759 32.5982 29.2597 33.0623C28.9435 33.5263 28.1289 34.4852 27.4496 35.1932C26.7703 35.9011 25.7485 36.7962 25.1791 37.1824C24.6097 37.5686 23.7625 38.0756 23.2966 38.309C22.8307 38.5424 22.4111 38.7684 22.3641 38.8111C22.3172 38.8538 24.0106 40.6153 26.1273 42.7256C28.244 44.8359 30.0618 46.5625 30.1667 46.5625C30.2716 46.5625 34.0319 42.9018 38.5228 38.4277V38.4277ZM20.5221 37.613C21.4292 37.2995 22.6537 36.7591 23.2432 36.4121C23.8327 36.065 24.9965 35.1352 25.8295 34.3458C26.7293 33.4931 27.6541 32.3897 28.1082 31.627C28.5286 30.9211 29.0539 29.8794 29.2757 29.3122C29.4975 28.745 29.784 27.9013 29.9125 27.4372C30.0409 26.9731 30.1508 25.5809 30.1566 24.3434C30.163 22.9986 30.0618 21.6839 29.9053 21.0756C29.7612 20.5157 29.4393 19.5577 29.19 18.9465C28.9407 18.3354 28.4009 17.3057 27.9905 16.6584C27.5801 16.0111 26.5845 14.8598 25.7782 14.0999C24.9719 13.34 23.8305 12.4343 23.2418 12.0872C22.6531 11.7402 21.4292 11.2011 20.5221 10.8892C19.202 10.4354 18.4557 10.3037 16.7827 10.2296C15.2266 10.1607 14.3128 10.219 13.206 10.4578C12.3885 10.6341 10.9571 11.1454 10.0253 11.5939C9.0935 12.0423 7.82573 12.8177 7.20804 13.3168C6.59035 13.816 5.64387 14.7689 5.10477 15.4343C4.56567 16.0998 3.81648 17.2649 3.43991 18.0235C3.06335 18.7821 2.59091 20.0427 2.39006 20.8249C2.14058 21.7966 2.02489 22.8815 2.02489 24.2497C2.02489 25.6178 2.14058 26.7028 2.39006 27.6744C2.59091 28.4566 3.06335 29.7172 3.43991 30.4758C3.81648 31.2344 4.56567 32.3995 5.10477 33.065C5.64387 33.7305 6.59035 34.6822 7.20804 35.1799C7.82573 35.6777 9.0088 36.418 9.83708 36.8252C10.6654 37.2324 11.9784 37.7343 12.7549 37.9406C13.9007 38.2449 14.6101 38.3031 16.5198 38.2493C18.5488 38.1921 19.1 38.1044 20.5221 37.613V37.613ZM13.2278 35.7597C12.6079 35.6104 11.4643 35.1771 10.6865 34.7969C9.64277 34.2866 8.8743 33.711 7.75279 32.5994C6.61451 31.4711 6.06022 30.7404 5.54373 29.6871C5.1645 28.9137 4.72589 27.7781 4.56903 27.1634C4.41217 26.5488 4.28384 25.2376 4.28384 24.2497C4.28384 23.2617 4.41217 21.9505 4.56903 21.3359C4.72589 20.7212 5.1645 19.5856 5.54373 18.8122C6.06022 17.7589 6.61451 17.0282 7.75279 15.8999C8.8749 14.7877 9.64161 14.2135 10.6842 13.7045C11.4607 13.3255 12.6466 12.8864 13.3196 12.7289C13.9926 12.5714 15.2285 12.4413 16.0661 12.4398C16.9647 12.4383 18.1728 12.5857 19.0129 12.7997C19.7961 12.9992 20.8897 13.3907 21.4432 13.6696C21.9967 13.9485 22.9295 14.5441 23.516 14.9931C24.1026 15.4421 25.0128 16.3796 25.5388 17.0764C26.0648 17.7732 26.7541 18.9598 27.0706 19.7132C27.4021 20.5026 27.7361 21.7539 27.8586 22.6664C28.0167 23.8432 28.0167 24.6561 27.8586 25.8329C27.7361 26.7454 27.4021 27.9967 27.0706 28.7861C26.7541 29.5396 26.0566 30.7369 25.5207 31.447C24.9847 32.1571 24.0321 33.1153 23.4038 33.5764C22.7754 34.0376 21.8508 34.6223 21.3491 34.8759C20.8474 35.1294 19.7961 35.5001 19.0129 35.6996C18.1054 35.9308 17.0027 36.0567 15.972 36.0467C15.0826 36.0381 13.8478 35.909 13.2278 35.7597V35.7597ZM19.5593 33.7728C20.2474 33.5185 21.3709 32.9121 22.0559 32.4252C22.7409 31.9383 23.6298 31.102 24.0312 30.5667C24.4327 30.0314 24.9828 29.1521 25.2538 28.6127C25.5248 28.0733 25.8717 27.1029 26.0248 26.4564C26.1778 25.8099 26.303 24.8169 26.303 24.2497C26.303 23.6825 26.1778 22.6894 26.0248 22.0429C25.8717 21.3964 25.5248 20.4261 25.2538 19.8866C24.9828 19.3472 24.4327 18.4679 24.0312 17.9326C23.6298 17.3973 22.7409 16.561 22.0559 16.0741C21.3709 15.5872 20.2474 14.9824 19.5593 14.73C18.7601 14.4369 17.7301 14.2363 16.708 14.1746C15.7877 14.1191 14.6471 14.1732 14.0232 14.3026C13.4265 14.4261 12.3253 14.831 11.576 15.2025C10.6756 15.6489 9.79127 16.2968 8.96824 17.1129C8.24342 17.8317 7.48512 18.8171 7.15401 19.4706C6.84112 20.0881 6.44852 21.0516 6.28158 21.6118C6.10471 22.2052 5.97804 23.306 5.97804 24.2497C5.97804 25.1933 6.10471 26.2941 6.28158 26.8875C6.44852 27.4477 6.84112 28.4112 7.15401 29.0287C7.48911 29.6901 8.23468 30.6553 8.96824 31.3775C9.65318 32.0518 10.7313 32.8743 11.3642 33.2052C11.997 33.5361 12.9712 33.9342 13.529 34.09C14.2273 34.2851 15.1296 34.3518 16.4257 34.3043C17.8351 34.2526 18.6226 34.119 19.5593 33.7728V33.7728ZM15.4979 31.6426C15.3352 31.4806 15.2021 31.1564 15.2021 30.9223C15.2021 30.5891 15.0407 30.4484 14.459 30.2748C14.0503 30.1529 13.4603 29.7985 13.148 29.4874C12.8356 29.1763 12.4928 28.6088 12.3861 28.2264C12.2795 27.8439 12.1918 27.3964 12.1912 27.2319C12.1906 27.0674 12.3599 26.7798 12.5674 26.5927C12.8791 26.3118 13.0263 26.2897 13.4145 26.4659C13.697 26.5941 13.8844 26.8352 13.8844 27.0705C13.8844 27.2857 13.9829 27.6462 14.1034 27.8714C14.2238 28.0967 14.4568 28.3838 14.621 28.5094C14.7853 28.635 15.453 28.7405 16.1048 28.7438C17.1165 28.7487 17.3575 28.6824 17.7519 28.2895C18.1161 27.9268 18.214 27.6356 18.214 26.9159C18.214 26.1822 18.1207 25.9152 17.7398 25.5588C17.3443 25.1887 17.0027 25.0976 15.6827 25.0103C14.5013 24.9322 13.9651 24.8078 13.5686 24.5198C13.2763 24.3076 12.8467 23.7624 12.6137 23.3083C12.3802 22.8531 12.1906 22.143 12.1912 21.7255C12.1918 21.3091 12.2795 20.6554 12.3861 20.273C12.4928 19.8905 12.8356 19.323 13.148 19.0119C13.4603 18.7008 14.0503 18.3464 14.459 18.2245C15.0407 18.0509 15.2021 17.9103 15.2021 17.577C15.2021 17.3429 15.3352 17.0188 15.4979 16.8567C15.6606 16.6946 15.9401 16.5621 16.1191 16.5621C16.2981 16.5621 16.5462 16.6633 16.6704 16.787C16.7946 16.9108 16.8963 17.2389 16.8963 17.5162C16.8963 17.9445 16.996 18.039 17.5592 18.1442C17.9238 18.2123 18.5157 18.5249 18.8746 18.8387C19.2335 19.1526 19.6204 19.7195 19.7344 20.0985C19.8484 20.4775 19.913 21.0392 19.8779 21.3468C19.8207 21.8485 19.7466 21.9059 19.1561 21.9059C18.5539 21.9059 18.4776 21.8422 18.2574 21.1559C18.1251 20.7434 17.8401 20.2582 17.624 20.0777C17.3411 19.8415 16.9075 19.7513 16.0754 19.7556C15.4398 19.7591 14.7853 19.8643 14.621 19.9899C14.4568 20.1156 14.2238 20.4026 14.1034 20.6279C13.9829 20.8532 13.8844 21.3336 13.8844 21.6956C13.8844 22.1106 14.0431 22.5376 14.3142 22.8515C14.6968 23.2945 14.9236 23.3631 16.377 23.4757C17.5911 23.5697 18.1447 23.7016 18.5355 23.99C18.8246 24.2033 19.2517 24.6568 19.4847 24.9978C19.8147 25.4807 19.9082 25.882 19.9082 26.8147C19.9082 27.4731 19.7927 28.2872 19.6514 28.6239C19.5102 28.9605 19.1265 29.4607 18.7988 29.7354C18.4711 30.0101 17.9089 30.2898 17.5496 30.3569C16.9964 30.4603 16.8963 30.5562 16.8963 30.9831C16.8963 31.2604 16.7946 31.5885 16.6704 31.7123C16.5462 31.836 16.2981 31.9373 16.1191 31.9373C15.9401 31.9373 15.6606 31.8047 15.4979 31.6426V31.6426Z" fill="#1B1018"/>
</g>
<defs>
<clipPath id="clip0_187_54">
<rect width="48" height="48" fill="white" transform="translate(0.333313 0.25)"/>
</clipPath>
</defs>
</svg>
