<svg width="126" height="148" viewBox="0 0 126 148" fill="none" xmlns="http://www.w3.org/2000/svg">
<g opacity="0.29">
<path d="M-289.709 88.9093L-184.341 88.8524M-78.9292 168.105L-78.9721 88.7954L-184.341 88.8524M-78.9292 168.105L82.6035 168.018M-78.9292 168.105L-28.9426 118.064M82.5495 67.9905L21.044 68.0237L-28.9426 118.064M-184.341 88.8524L-132.736 37.1922L82.5327 37.0759M-28.9426 118.064L40.8175 118.027" stroke="#980138" stroke-width="5" stroke-linecap="round" stroke-linejoin="round"/>
<circle cx="41.7888" cy="118.188" r="3.88456" transform="rotate(-90.031 41.7888 118.188)" fill="#980138"/>
<circle cx="-0.60803" cy="136.015" r="3.56084" transform="rotate(-90.031 -0.60803 136.015)" fill="#F28C8F"/>
<circle cx="19.3908" cy="3.92941" r="3.56084" transform="rotate(-90.031 19.3908 3.92941)" fill="#F28C8F"/>
<circle cx="81.9019" cy="67.6671" r="3.88456" transform="rotate(-90.031 81.9019 67.6671)" fill="#980138"/>
<circle cx="121.73" cy="88.6869" r="3.56084" transform="rotate(-90.031 121.73 88.6869)" fill="#F28C8F"/>
<circle cx="82.5328" cy="37.2377" r="3.88456" transform="rotate(-90.031 82.5328 37.2377)" fill="#980138"/>
<path d="M-79.2958 88.7956L122.377 88.6866M-79.2958 88.7956L-126.532 136.083M-79.2958 88.7956L-79.3417 3.98281L18.7434 3.92979M-126.532 136.083L-0.931735 136.015M-126.532 136.083L-192.57 136.119" stroke="#F28C8F" stroke-width="5" stroke-linecap="round" stroke-linejoin="round"/>
</g>
</svg>
