<svg width="173" height="127" viewBox="0 0 173 127" fill="none" xmlns="http://www.w3.org/2000/svg">
<g opacity="0.29">
<path d="M83.9103 -288.716L83.9103 -183.348M4.60061 -77.9791L83.9103 -77.9791L83.9103 -183.348M4.60061 -77.9791L4.60061 83.5537M4.60061 -77.9791L54.6143 -27.9654M104.628 83.5537L104.628 22.0482L54.6143 -27.9654M83.9103 -183.348L135.542 -131.715L135.542 83.5537M54.6143 -27.9654L54.6143 41.7947" stroke="#980138" stroke-width="5" stroke-linecap="round" stroke-linejoin="round"/>
<circle cx="4.60062" cy="83.5537" r="3.88456" fill="#980138"/>
<circle cx="54.4524" cy="42.7659" r="3.88456" fill="#980138"/>
<circle cx="36.6482" cy="0.359487" r="3.56084" fill="#F28C8F"/>
<circle cx="168.723" cy="20.4297" r="3.56084" fill="#F28C8F"/>
<circle cx="104.952" cy="82.9063" r="3.88456" fill="#980138"/>
<circle cx="83.9103" cy="122.723" r="3.56084" fill="#F28C8F"/>
<circle cx="135.381" cy="83.5537" r="3.88456" fill="#980138"/>
<path d="M83.9103 -78.3028L83.9103 123.37M83.9103 -78.3028L36.6482 -125.565M83.9103 -78.3028L168.723 -78.3028L168.723 19.7822M36.6482 -125.565L36.6482 0.0357251M36.6482 -125.565L36.6482 -191.602" stroke="#F28C8F" stroke-width="5" stroke-linecap="round" stroke-linejoin="round"/>
</g>
</svg>
