<svg width="49" height="49" viewBox="0 0 49 49" fill="none" xmlns="http://www.w3.org/2000/svg">
<path d="M0.79187 48.125C0.722988 48.0562 0.666626 46.5569 0.666626 44.7933V41.5867L3.6725 38.5899C5.97745 36.2919 6.67837 35.4821 6.67837 35.1169C6.67837 34.778 7.04531 34.2772 7.95118 33.3796C8.84835 32.4907 9.36421 32.1185 9.69907 32.1185C9.99536 32.1185 10.414 31.8715 10.8114 31.462C11.2185 31.0427 11.6255 30.8055 11.9379 30.8055C12.207 30.8055 12.5304 30.9087 12.6566 31.0347C12.8374 31.2152 13.2653 30.8853 14.6721 29.4807L16.458 27.6976L15.5399 25.8971C15.0349 24.9068 14.4199 23.3904 14.1732 22.5272C13.7796 21.1506 13.7245 20.5662 13.724 17.7691C13.7234 15.0144 13.7811 14.3814 14.1475 13.1194C14.3807 12.3159 14.8218 11.1074 15.1277 10.4339C15.4335 9.76044 16.0762 8.62009 16.5557 7.89982C17.0353 7.17954 17.6242 6.46169 17.8643 6.30459C18.2018 6.08383 18.3891 6.06609 18.6893 6.22647C18.9028 6.34059 19.0776 6.60344 19.0776 6.81057C19.0776 7.0177 18.7449 7.62718 18.3382 8.16496C17.9316 8.70273 17.2536 9.83132 16.8317 10.6729C16.4098 11.5146 15.8926 12.8646 15.6824 13.6731C15.4721 14.4816 15.2535 16.0293 15.1965 17.1126C15.1143 18.6779 15.1728 19.4657 15.4817 20.9511C15.771 22.3427 16.143 23.3675 16.9382 24.9634C17.5255 26.1422 17.9993 27.3428 17.9911 27.6313C17.9829 27.9199 17.8916 28.309 17.7882 28.496C17.6848 28.683 16.7915 29.636 15.8032 30.6138L14.0062 32.3915L15.2661 33.6592L16.5261 34.9269L18.5252 32.96C19.8722 31.6348 20.6714 30.9859 20.9751 30.9709C21.2231 30.9586 21.5527 30.9652 21.7077 30.9851C21.8627 31.0052 22.9195 31.478 24.0561 32.0358C25.1927 32.5937 26.6721 33.1781 27.3437 33.3346C28.0154 33.4911 29.2911 33.673 30.1787 33.7389C31.1245 33.8091 32.4251 33.7663 33.3208 33.6356C34.1613 33.5128 35.4406 33.2115 36.1637 32.966C36.8867 32.7204 38.0621 32.2133 38.7755 31.8389C39.489 31.4646 40.6316 30.6981 41.3146 30.1356C41.9976 29.5731 43.0291 28.5441 43.6069 27.849C44.1929 27.1439 45.0588 25.7558 45.5653 24.7094C46.0647 23.6777 46.6126 22.2849 46.7828 21.6144C46.9531 20.9438 47.1397 19.551 47.1974 18.5194C47.2733 17.1651 47.2141 16.1743 46.9845 14.9555C46.8096 14.027 46.4137 12.6356 46.1048 11.8635C45.7958 11.0914 45.0918 9.78308 44.5404 8.95608C43.989 8.12908 42.9968 6.93415 42.3356 6.30069C41.6745 5.66722 40.5459 4.7696 39.8277 4.30597C39.1094 3.84235 38.0146 3.2502 37.3946 2.9901C36.7747 2.73 35.7602 2.3802 35.1402 2.21277C34.5203 2.04534 33.1253 1.85823 32.0404 1.79696C30.5794 1.71445 29.6305 1.7681 28.3816 2.00381C27.4542 2.17885 26.0593 2.56735 25.2818 2.86716C24.5043 3.16696 23.1534 3.87693 22.2797 4.44485C20.8448 5.37755 20.654 5.45284 20.307 5.22328C20.0958 5.0835 19.8959 4.83296 19.8629 4.66651C19.8298 4.50007 20.0411 4.14291 20.3325 3.87284C20.6239 3.60277 21.4301 3.04475 22.124 2.63279C22.818 2.22085 24.0016 1.64519 24.7542 1.35357C25.5068 1.06196 26.8329 0.679799 27.7011 0.504314C28.9256 0.256807 29.8734 0.206986 31.9281 0.282141C33.8397 0.352043 34.9596 0.490163 35.953 0.778476C36.71 0.998178 37.8781 1.42633 38.5487 1.72993C39.2193 2.03353 40.3474 2.66653 41.0556 3.1366C41.7638 3.60668 42.9397 4.58683 43.6687 5.31474C44.3978 6.04263 45.3794 7.21671 45.8502 7.9238C46.321 8.63089 46.9565 9.76044 47.2623 10.4339C47.5682 11.1074 48.0093 12.3159 48.2425 13.1194C48.6087 14.3809 48.6666 15.0155 48.6666 17.7691C48.6666 20.5338 48.6093 21.1574 48.2354 22.4584C47.9982 23.2838 47.4328 24.7187 46.9788 25.6472C46.5249 26.5757 45.6231 27.9979 44.9749 28.8077C44.3267 29.6175 43.1168 30.8262 42.2863 31.4938C41.4557 32.1613 40.0154 33.0775 39.0854 33.5299C38.1555 33.9823 36.7183 34.5462 35.8917 34.783C34.5881 35.1564 33.9652 35.2135 31.195 35.213C28.3935 35.2124 27.8082 35.1574 26.4294 34.7645C25.5649 34.5181 24.0461 33.904 23.0543 33.3999L21.251 32.4832L19.4651 34.2663C18.0584 35.6709 17.7279 36.0981 17.9087 36.2786C18.035 36.4047 18.1383 36.7276 18.1383 36.9962C18.1383 37.3082 17.9007 37.7146 17.4807 38.121C17.0637 38.5245 16.8232 38.9344 16.8232 39.2413C16.8232 39.59 16.4671 40.0782 15.5504 40.9865C14.6646 41.8641 14.1355 42.2476 13.8104 42.2476C13.4573 42.2476 12.6105 42.9803 10.3418 45.2488L7.34031 48.25H4.12871C2.36233 48.25 0.860754 48.1937 0.79187 48.125ZM9.46356 43.8748C11.9682 41.3701 12.3003 40.9689 12.0445 40.7568C11.8829 40.623 11.7508 40.3719 11.7508 40.1988C11.7508 40.0258 11.8522 39.7829 11.9762 39.6591C12.1002 39.5353 12.3814 39.434 12.601 39.434C12.8206 39.434 13.1997 39.6459 13.4434 39.9049L13.8865 40.3758L14.4204 39.8652L14.9542 39.3545L12.2785 36.6783L9.60284 34.002L9.07633 34.5056L8.54981 35.0093L9.77456 36.2416C10.4727 36.9441 10.9993 37.6372 10.9993 37.8537C10.9993 38.0626 10.8979 38.3348 10.7739 38.4586C10.6499 38.5824 10.4145 38.6837 10.2508 38.6837C10.0871 38.6837 9.49307 38.2185 8.93068 37.6499L7.90815 36.6161L5.03886 39.4765L2.16956 42.3368V44.5431V46.7494H4.37927H6.58898L9.46356 43.8748ZM14.1518 34.7992C11.9663 32.6171 11.9545 32.6088 11.5639 32.9618L11.1714 33.3164L13.3827 35.53L15.5939 37.7435L15.9706 37.3674L16.3473 36.9913L14.1518 34.7992ZM29.1352 31.3588C28.5189 31.2627 27.589 31.0462 27.0686 30.8777C26.5483 30.7092 25.4463 30.2262 24.6197 29.8043C23.4969 29.2314 22.7088 28.6321 21.5041 27.4356C20.1609 26.1014 19.7452 25.5363 19.0151 24.0523C18.5331 23.0725 17.9967 21.7222 17.8232 21.0516C17.621 20.27 17.5078 19.0918 17.5078 17.7691C17.5078 16.4463 17.621 15.2681 17.8232 14.4865C17.9967 13.8159 18.53 12.4717 19.0084 11.4993C19.7134 10.0661 20.1669 9.44128 21.4035 8.19891C22.2424 7.35603 23.4516 6.36389 24.0904 5.99414C24.7293 5.62439 25.8506 5.10625 26.5824 4.84272C27.3141 4.57917 28.6636 4.26374 29.5812 4.14176C30.876 3.96964 31.6148 3.97097 32.8798 4.14744C33.7764 4.27267 35.1013 4.58809 35.824 4.84839C36.5467 5.10868 37.6607 5.62529 38.2996 5.99641C38.9385 6.36753 40.1021 7.31114 40.8855 8.09334C41.669 8.87555 42.6141 10.0374 42.9858 10.6753C43.3575 11.3131 43.8749 12.4254 44.1356 13.147C44.3963 13.8686 44.7122 15.1914 44.8376 16.0866C45.0146 17.3497 45.0159 18.0874 44.8433 19.3801C44.7211 20.2963 44.4052 21.6437 44.1412 22.3743C43.8773 23.1049 43.3583 24.2245 42.988 24.8624C42.6177 25.5003 41.624 26.7075 40.7798 27.5452C39.5346 28.7808 38.9108 29.2319 37.4743 29.9356C36.5004 30.4127 35.2089 30.9278 34.6043 31.0803C33.9996 31.2327 32.7738 31.397 31.8802 31.4453C30.9866 31.4937 29.7512 31.4546 29.1349 31.3586L29.1352 31.3588ZM34.1803 29.4978C34.977 29.2943 36.2372 28.809 36.9808 28.4192C37.8705 27.9529 38.8148 27.2293 39.7424 26.3032C40.67 25.377 41.3947 24.4342 41.8617 23.5459C42.2521 22.8035 42.7382 21.5452 42.9419 20.7497C43.1698 19.8601 43.3124 18.6818 43.3124 17.6884C43.3124 16.6319 43.178 15.5892 42.9239 14.6734C42.7102 13.9034 42.2258 12.6812 41.8475 11.9573C41.3978 11.0969 40.6705 10.1528 39.7468 9.23057C38.8231 8.30831 37.8776 7.58216 37.0158 7.13315C36.2908 6.75542 35.0667 6.2718 34.2955 6.05843C33.3783 5.80464 32.334 5.67047 31.2758 5.67047C30.2808 5.67047 29.1007 5.81285 28.2097 6.04037C27.413 6.24382 26.1528 6.72917 25.4092 7.11893C24.5082 7.5912 23.587 8.30031 22.6476 9.24472C21.7515 10.1457 20.9805 11.1463 20.5309 11.992C20.1419 12.7236 19.6558 13.9774 19.4506 14.7784C19.2278 15.6484 19.0776 16.8524 19.0776 17.7691C19.0776 18.6722 19.2271 19.8872 19.441 20.7223C19.6409 21.5026 20.0123 22.5501 20.2664 23.0501C20.5204 23.55 21.1152 24.4833 21.588 25.1242C22.0609 25.765 22.935 26.6711 23.5304 27.1377C24.1259 27.6043 25.0966 28.2434 25.6875 28.5579C26.2785 28.8724 27.379 29.2911 28.1331 29.4883C28.9426 29.7001 30.1652 29.8512 31.118 29.8573C32.141 29.8637 33.2621 29.7322 34.1803 29.4978ZM23.5173 22.7183C23.3642 22.5001 23.2869 22.1968 23.3455 22.0444C23.4041 21.8919 25.0706 18.9684 27.0488 15.5477C30.4873 9.60162 30.6698 9.32819 31.1986 9.32819C31.7203 9.32819 31.8775 9.54545 33.9733 13.1648C35.5806 15.9404 36.1665 17.1148 36.0919 17.4114C36.0352 17.6369 35.8552 17.8727 35.6918 17.9353C35.5285 17.9979 35.2389 17.9658 35.0483 17.8639C34.8577 17.7621 33.9202 16.3242 32.965 14.6686C32.0098 13.013 31.171 11.725 31.101 11.8064C31.031 11.8877 29.7766 14.0389 28.3134 16.5868C26.8501 19.1347 25.6529 21.266 25.6529 21.323C25.6529 21.3801 28.1469 21.4268 31.195 21.4268C34.2431 21.4268 36.7371 21.3874 36.7371 21.3394C36.7371 21.2913 36.5965 20.9577 36.4248 20.5981C36.1634 20.0507 36.1531 19.8954 36.3617 19.6443C36.5025 19.475 36.821 19.369 37.0934 19.4009C37.4546 19.443 37.7494 19.7401 38.2663 20.5827C38.646 21.2017 38.9975 21.8504 39.0473 22.0243C39.0971 22.1981 39.0156 22.5147 38.8661 22.7277C38.5994 23.1079 38.4588 23.115 31.195 23.115C23.8746 23.115 23.7926 23.1107 23.5173 22.7183ZM30.6448 20.1941C30.4824 20.032 30.3496 19.7848 30.3496 19.6448C30.3496 19.5048 30.4824 19.2576 30.6448 19.0955C30.8072 18.9334 31.0548 18.8007 31.195 18.8007C31.3352 18.8007 31.5828 18.9334 31.7452 19.0955C31.9076 19.2576 32.0404 19.5048 32.0404 19.6448C32.0404 19.7848 31.9076 20.032 31.7452 20.1941C31.5828 20.3563 31.3352 20.4889 31.195 20.4889C31.0548 20.4889 30.8072 20.3563 30.6448 20.1941ZM30.5352 17.4835C30.4234 17.2749 30.357 16.5884 30.3877 15.9579C30.432 15.0489 30.5231 14.7591 30.828 14.5578C31.1553 14.3416 31.274 14.3469 31.6264 14.5934C31.9836 14.8431 32.0404 15.0566 32.0404 16.1478C32.0404 16.8815 31.9457 17.5072 31.815 17.6377C31.691 17.7615 31.3981 17.8628 31.164 17.8628C30.9293 17.8628 30.6474 17.6928 30.5352 17.4835V17.4835ZM4.33003 21.2091C4.12338 21.0956 3.80823 20.8238 3.62971 20.6051C3.43598 20.3678 3.30343 19.8812 3.30094 19.398C3.29867 18.9528 3.38381 18.4261 3.4902 18.2276C3.59659 18.0291 3.94687 17.7308 4.26861 17.5647C4.68607 17.3492 5.59539 17.2333 7.44387 17.1603L10.0341 17.0579L10.6107 17.6335C10.9277 17.9501 11.1965 18.4056 11.208 18.6456C11.2194 18.8857 11.213 19.2931 11.1938 19.551C11.1745 19.8089 10.9175 20.2656 10.6227 20.5658C10.1303 21.0671 9.9363 21.1237 8.2416 21.2601C7.22683 21.3417 6.01614 21.4101 5.55117 21.412C5.0862 21.4141 4.53669 21.3225 4.33003 21.2091H4.33003ZM9.0267 19.5718C9.41117 19.4774 9.59031 19.318 9.59031 19.0702C9.59031 18.7284 9.46281 18.7106 7.42983 18.769C5.92695 18.8121 5.18851 18.9092 5.0037 19.0878C4.80995 19.2751 4.79291 19.4106 4.94076 19.5885C5.08675 19.7641 5.60793 19.8153 6.80329 19.7713C7.71618 19.7377 8.71672 19.6479 9.0267 19.5718H9.0267ZM7.14804 13.7297C5.43748 13.2867 4.9925 13.0952 4.56487 12.6183C4.20759 12.2198 4.04823 11.8376 4.04823 11.3792C4.04823 11.0147 4.1687 10.4838 4.31594 10.1995C4.46318 9.91519 4.80532 9.58175 5.07625 9.4585C5.34718 9.33525 5.79735 9.23625 6.07664 9.23851C6.35593 9.24064 7.55665 9.48972 8.7449 9.79175C10.5541 10.2516 10.9894 10.4344 11.422 10.916C11.8072 11.3449 11.9386 11.6861 11.9386 12.2573C11.9386 12.8785 11.8178 13.1441 11.2999 13.6612C10.7838 14.1764 10.5222 14.2957 9.93786 14.2819C9.54005 14.2726 8.28463 14.024 7.14804 13.7297ZM10.2128 12.2765C10.2625 11.9398 10.1166 11.8342 9.27346 11.5971C8.72444 11.4426 7.7684 11.1881 7.14894 11.0314C6.16081 10.7815 5.98895 10.7802 5.74799 11.0208C5.53746 11.231 5.52492 11.3465 5.6943 11.5157C5.81583 11.637 6.78442 11.9684 7.84672 12.2521C8.90902 12.5358 9.86271 12.7471 9.96604 12.7215C10.0694 12.696 10.1804 12.4957 10.2128 12.2765L10.2128 12.2765ZM10.1437 6.87412C9.21936 6.29812 8.18835 5.53969 7.85254 5.1887C7.44615 4.76395 7.24197 4.36551 7.24197 3.99727C7.24197 3.69297 7.3244 3.22752 7.42515 2.96294C7.5259 2.69835 7.8852 2.30859 8.22359 2.09679C8.64206 1.83486 9.04914 1.73718 9.49637 1.79139C9.88365 1.83832 10.9807 2.3937 12.1656 3.14264C13.6753 4.09694 14.2539 4.5755 14.4844 5.06059C14.6846 5.48188 14.7506 5.92526 14.6738 6.33392C14.6045 6.70272 14.3206 7.15864 13.9844 7.44114C13.5683 7.79068 13.1966 7.92138 12.6185 7.92138C11.9803 7.92138 11.4942 7.71567 10.1437 6.87412ZM13.0299 5.99943C13.0746 5.76793 12.5952 5.3565 11.3413 4.55008C10.3783 3.93073 9.44236 3.423 9.26154 3.42179C9.06338 3.42037 8.93277 3.5607 8.93277 3.7748C8.93277 4.01563 9.49241 4.49711 10.6705 5.26991C11.6263 5.89684 12.5341 6.3902 12.688 6.36624C12.8418 6.34228 12.9957 6.17722 13.0299 5.99943Z" fill="#1B1018"/>
</svg>
