<svg width="48" height="49" viewBox="0 0 48 49" fill="none" xmlns="http://www.w3.org/2000/svg">
<path d="M19.822 44.5362C17.7886 42.4936 16.125 40.6856 16.125 40.5183C16.125 40.3511 16.2576 40.0817 16.4196 39.9197C16.6516 39.6877 17.1506 39.625 18.7634 39.625H20.8125V38.875V38.125H21.6563H22.5V39.4938C22.5 40.3083 22.4089 40.9536 22.275 41.0875C22.1373 41.2252 21.4648 41.3125 20.5415 41.3125H19.033L21.5165 43.796L24 46.2795L26.4835 43.796L28.967 41.3125H27.4585C26.5352 41.3125 25.8627 41.2252 25.725 41.0875C25.5911 40.9536 25.5 40.3083 25.5 39.4938V38.125H26.3438H27.1875V38.875V39.625H29.2366C30.8494 39.625 31.3485 39.6877 31.5804 39.9197C31.7424 40.0817 31.875 40.3511 31.875 40.5183C31.875 40.6856 30.2114 42.4936 28.1781 44.5362C25.29 47.4375 24.3758 48.25 24 48.25C23.6242 48.25 22.71 47.4375 19.822 44.5362ZM21.2292 36.5206C20.9178 36.3025 20.8125 36.041 20.8125 35.4857C20.8125 34.7698 20.7766 34.7268 19.8281 34.3061L18.8438 33.8694L18.1401 34.4972C17.7531 34.8425 17.2452 35.125 17.0114 35.125C16.7247 35.125 16.0229 34.5592 14.8557 33.3871C13.7108 32.2375 13.125 31.5078 13.125 31.2314C13.125 31.0016 13.4075 30.4969 13.7528 30.1099L14.3806 29.4063L13.9439 28.4219C13.5232 27.4734 13.4802 27.4375 12.7643 27.4375C12.209 27.4375 11.9475 27.3322 11.7294 27.0208C11.5028 26.6973 11.4375 26.0772 11.4375 24.25C11.4375 22.4229 11.5028 21.8027 11.7294 21.4792C11.9457 21.1704 12.2096 21.0625 12.7482 21.0625C13.4428 21.0625 13.4954 21.0186 13.9274 20.0781L14.3797 19.0937L13.7523 18.3901C13.4073 18.0031 13.125 17.4952 13.125 17.2614C13.125 16.9747 13.6908 16.2729 14.8629 15.1057C16.0125 13.9608 16.7422 13.375 17.0186 13.375C17.2484 13.375 17.7531 13.6573 18.1401 14.0023L18.8438 14.6297L19.8281 14.1774C20.7686 13.7454 20.8125 13.6928 20.8125 12.9982C20.8125 12.4596 20.9204 12.1957 21.2292 11.9794C21.5527 11.7528 22.1729 11.6875 24 11.6875C25.8272 11.6875 26.4473 11.7528 26.7708 11.9794C27.0822 12.1975 27.1875 12.459 27.1875 13.0143C27.1875 13.7302 27.2234 13.7732 28.1719 14.1939L29.1563 14.6306L29.8599 14.0028C30.2469 13.6575 30.7549 13.375 30.9886 13.375C31.2753 13.375 31.9771 13.9408 33.1443 15.1129C34.2892 16.2625 34.875 16.9922 34.875 17.2686C34.875 17.4984 34.5925 18.0031 34.2472 18.3901L33.6194 19.0937L34.0561 20.0781C34.4768 21.0266 34.5198 21.0625 35.2357 21.0625C35.791 21.0625 36.0525 21.1678 36.2706 21.4792C36.4972 21.8027 36.5625 22.4229 36.5625 24.25C36.5625 26.0772 36.4972 26.6973 36.2706 27.0208C36.0543 27.3296 35.7904 27.4375 35.2518 27.4375C34.5572 27.4375 34.5046 27.4814 34.0726 28.4219L33.6203 29.4063L34.2477 30.1099C34.5927 30.4969 34.875 31.0048 34.875 31.2386C34.875 31.5253 34.3092 32.2271 33.1371 33.3943C31.9875 34.5392 31.2578 35.125 30.9814 35.125C30.7516 35.125 30.2469 34.8427 29.8599 34.4977L29.1563 33.8703L28.1719 34.3226C27.2314 34.7547 27.1875 34.8072 27.1875 35.5018C27.1875 36.0405 27.0796 36.3043 26.7708 36.5206C26.4473 36.7472 25.8272 36.8125 24 36.8125C22.1729 36.8125 21.5527 36.7472 21.2292 36.5206ZM25.5356 34.2403C25.5794 33.715 25.7094 33.4863 26.0625 33.313C26.3203 33.1864 27.1103 32.8252 27.8179 32.5102C28.5256 32.1952 29.2609 31.9375 29.452 31.9375C29.6431 31.9375 30.0835 32.1869 30.4306 32.4917L31.0618 33.0458L31.9261 32.1635L32.7904 31.2812L32.2389 30.6689C31.9356 30.3321 31.6875 29.8864 31.6875 29.6783C31.6875 29.4703 31.8869 28.9021 32.1307 28.4156C32.3744 27.9292 32.6819 27.1938 32.8141 26.7813C32.9462 26.3688 33.1476 25.9693 33.2616 25.8935C33.3755 25.8177 33.743 25.7544 34.0781 25.7529L34.6875 25.75V24.2501V22.7501L34.0781 22.7472C33.743 22.7458 33.3755 22.6824 33.2616 22.6066C33.1476 22.5308 32.9462 22.1313 32.8141 21.7188C32.6819 21.3063 32.3744 20.5709 32.1307 20.0844C31.8869 19.598 31.6875 19.0021 31.6875 18.7601C31.6875 18.5156 31.9386 18.0797 32.2527 17.7787L32.8179 17.2372L31.9326 16.3383L31.0472 15.4394L30.4678 16.001C30.1491 16.3099 29.6998 16.5626 29.4692 16.5626C29.2387 16.5626 28.6521 16.3631 28.1656 16.1194C27.6792 15.8757 26.9438 15.5682 26.5313 15.436C26.1187 15.3039 25.7193 15.1025 25.6435 14.9885C25.5677 14.8746 25.5045 14.5071 25.5029 14.172L25.5 13.5626H24H22.5L22.4972 14.172C22.4958 14.5071 22.4324 14.8746 22.3566 14.9885C22.2808 15.1025 21.8813 15.3039 21.4688 15.436C21.0563 15.5682 20.3209 15.8757 19.8344 16.1194C19.348 16.3631 18.7521 16.5626 18.5101 16.5626C18.2656 16.5626 17.8297 16.3115 17.5287 15.9973L16.9872 15.4321L16.0957 16.3102L15.2042 17.1883L15.7584 17.8195C16.0632 18.1666 16.3126 18.6192 16.3126 18.8253C16.3126 19.0314 16.1132 19.598 15.8694 20.0844C15.6257 20.5709 15.3181 21.3063 15.186 21.7188C15.0539 22.1313 14.8525 22.5308 14.7385 22.6066C14.6246 22.6824 14.2571 22.7456 13.9219 22.7472L13.3126 22.7501V24.2501V25.75L13.9219 25.7529C14.2571 25.7543 14.6246 25.8177 14.7385 25.8935C14.8525 25.9693 15.0539 26.3688 15.186 26.7813C15.3181 27.1938 15.6257 27.9292 15.8694 28.4156C16.1131 28.9021 16.3126 29.4887 16.3126 29.7192C16.3126 29.9498 16.0599 30.3991 15.751 30.7178L15.1894 31.2972L16.0883 32.1826L16.9872 33.0679L17.5287 32.5027C17.8266 32.1918 18.2559 31.9375 18.4829 31.9375C18.7098 31.9375 19.4745 32.1952 20.1821 32.5102C20.8898 32.8252 21.6798 33.1864 21.9376 33.313C22.2907 33.4863 22.4207 33.715 22.4645 34.2403L22.5227 34.9375H24.0001H25.4774L25.5356 34.2403ZM22.2188 31.8648C21.7031 31.7393 20.8632 31.43 20.3523 31.1777C19.8413 30.9253 18.9975 30.2939 18.4772 29.7746C17.9569 29.2553 17.3041 28.3637 17.0266 27.7931C16.749 27.2226 16.418 26.192 16.291 25.5029C16.1089 24.5144 16.1085 23.988 16.2889 23.0083C16.4148 22.3254 16.7715 21.2638 17.0818 20.6492C17.3921 20.0345 18.0139 19.1636 18.4638 18.7138C18.9136 18.264 19.7845 17.6421 20.3991 17.3319C21.0137 17.0216 22.0753 16.6648 22.7583 16.539C23.7354 16.3589 24.2644 16.3589 25.2416 16.539C25.9246 16.6648 26.9862 17.0216 27.6008 17.3319C28.2154 17.6421 29.0863 18.264 29.5361 18.7138C29.986 19.1636 30.6078 20.0345 30.9181 20.6492C31.2283 21.2638 31.5851 22.3254 31.711 23.0083C31.8915 23.988 31.891 24.5144 31.7089 25.5029C31.5819 26.192 31.251 27.2226 30.9734 27.7931C30.6958 28.3637 30.0438 29.2553 29.5246 29.7746C29.0053 30.2939 28.1194 30.941 27.5558 31.2126C26.9923 31.4843 26.0841 31.8007 25.5376 31.9158C24.9911 32.0308 24.2317 32.1178 23.8501 32.1091C23.4685 32.1003 22.7343 31.9904 22.2187 31.8648H22.2188ZM26.1563 29.9078C26.8255 29.6861 27.4162 29.2749 28.2205 28.4705C29.0221 27.669 29.4469 27.0597 29.6924 26.3596C29.8822 25.8183 30.0375 24.869 30.0375 24.25C30.0375 23.6301 29.8817 22.6881 29.6906 22.1529C29.4913 21.5945 28.9682 20.7696 28.4609 20.2134C27.8752 19.5715 27.1922 19.0725 26.4318 18.7313C25.5398 18.331 24.9989 18.2169 23.9927 18.2169C22.9943 18.2169 22.4527 18.3296 21.6155 18.7117C21.0192 18.9839 20.1792 19.5509 19.7488 19.9719C19.3185 20.3928 18.7415 21.2383 18.4667 21.8508C18.0822 22.7075 17.9669 23.2609 17.9669 24.25C17.9669 25.2453 18.082 25.7921 18.4765 26.6711C18.7909 27.3717 19.3285 28.1269 19.8799 28.6427C20.3715 29.1025 21.0989 29.6176 21.4963 29.7872C21.8936 29.9568 22.5984 30.1581 23.0625 30.2346C23.5266 30.311 24.2016 30.3385 24.5625 30.2958C24.9234 30.2532 25.6406 30.0785 26.1563 29.9078ZM23.0625 28.8437V28H24H24.9375V28.8437V29.6875H24H23.0625V28.8437ZM23.0625 25.8314C23.0625 25.3606 23.1479 24.8158 23.2523 24.6208C23.3567 24.4257 23.7308 24.212 24.0838 24.1457C24.4367 24.0796 24.8476 23.8861 24.9968 23.7158C25.146 23.5456 25.325 23.2196 25.3945 22.9914C25.4639 22.7633 25.4179 22.3836 25.2923 22.1477C25.1666 21.9118 24.9299 21.616 24.7662 21.4903C24.6026 21.3647 24.2526 21.2592 23.9885 21.256C23.7243 21.2524 23.3301 21.4159 23.1125 21.6187C22.8949 21.8214 22.6623 22.1589 22.5958 22.3686C22.498 22.6765 22.3147 22.75 21.6436 22.75C20.9755 22.75 20.8133 22.6856 20.8166 22.4219C20.8187 22.2414 20.9778 21.7479 21.1698 21.3252C21.3617 20.9025 21.7973 20.3583 22.1378 20.1159C22.5612 19.8144 23.0864 19.6538 23.8002 19.6074C24.5715 19.5573 25.015 19.6332 25.5 19.8982C25.8609 20.0955 26.344 20.5319 26.5736 20.8681C26.8031 21.2043 27.0445 21.7653 27.1101 22.1147C27.1756 22.4641 27.1735 23.0471 27.1051 23.4103C27.037 23.7734 26.7164 24.3721 26.3927 24.7408C26.069 25.1095 25.6091 25.4853 25.3707 25.5759C25.0757 25.6881 24.9372 25.8919 24.9372 26.2141C24.9372 26.6572 24.8772 26.6875 23.9997 26.6875H23.0622L23.0625 25.8314ZM3.71381 28.4281C0.812552 25.54 0 24.6258 0 24.25C0 23.8742 0.812552 22.96 3.71381 20.072C5.75641 18.0386 7.56445 16.375 7.73167 16.375C7.89889 16.375 8.1683 16.5076 8.33036 16.6696C8.56227 16.9015 8.625 17.4006 8.625 19.0134V21.0625H9.375H10.125V21.9062V22.75H8.75625C7.94167 22.75 7.2964 22.6589 7.1625 22.525C7.02479 22.3873 6.9375 21.7148 6.9375 20.7915V19.283L4.45401 21.7665L1.97052 24.25L4.45401 26.7335L6.9375 29.217V27.7085C6.9375 26.7852 7.02479 26.1127 7.1625 25.975C7.2964 25.8411 7.94167 25.75 8.75625 25.75H10.125V26.5938V27.4375H9.375H8.625V29.4866C8.625 31.0994 8.56228 31.5985 8.33036 31.8304C8.1683 31.9924 7.89889 32.125 7.73167 32.125C7.56445 32.125 5.75641 30.4614 3.71381 28.4281ZM39.6696 31.8304C39.4377 31.5985 39.375 31.0994 39.375 29.4866V27.4375H38.625H37.875V26.5938V25.75H39.2438C40.0583 25.75 40.7036 25.8411 40.8375 25.975C40.9752 26.1127 41.0625 26.7852 41.0625 27.7085V29.217L43.546 26.7335L46.0295 24.25L43.546 21.7665L41.0625 19.283V20.7915C41.0625 21.7148 40.9752 22.3873 40.8375 22.525C40.7036 22.6589 40.0583 22.75 39.2438 22.75H37.875V21.9062V21.0625H38.625H39.375V19.0134C39.375 17.4006 39.4377 16.9015 39.6696 16.6696C39.8317 16.5076 40.1011 16.375 40.2683 16.375C40.4356 16.375 42.2436 18.0386 44.2862 20.072C47.1875 22.96 48 23.8742 48 24.25C48 24.6258 47.1875 25.54 44.2862 28.4281C42.2436 30.4614 40.4356 32.125 40.2683 32.125C40.1011 32.125 39.8317 31.9924 39.6696 31.8304ZM20.8125 9.625V8.87498H18.7634C17.1506 8.87498 16.6516 8.81227 16.4196 8.58034C16.2576 8.41829 16.125 8.14888 16.125 7.98165C16.125 7.81443 17.7886 6.00641 19.822 3.96381C22.71 1.06255 23.6242 0.25 24 0.25C24.3758 0.25 25.29 1.06255 28.1781 3.96381C30.2114 6.00641 31.875 7.81443 31.875 7.98165C31.875 8.14888 31.7424 8.41829 31.5804 8.58034C31.3485 8.81225 30.8494 8.87498 29.2366 8.87498H27.1875V9.625V10.375H26.3438H25.5V9.00624C25.5 8.19165 25.5911 7.54639 25.725 7.41248C25.8627 7.27478 26.5352 7.1875 27.4585 7.1875H28.967L26.4835 4.70401L24 2.22051L21.5165 4.70401L19.033 7.1875H20.5415C21.4648 7.1875 22.1373 7.27478 22.275 7.41248C22.4089 7.54639 22.5 8.19165 22.5 9.00624V10.375H21.6563H20.8125V9.625Z" fill="#1B1018"/>
</svg>
