<svg width="64" height="65" viewBox="0 0 64 65" fill="none" xmlns="http://www.w3.org/2000/svg">
<path d="M30.8615 64.2494C30.636 64.133 30.3025 63.8399 30.1205 63.5984C29.7981 63.1705 29.7886 63.1076 29.7499 61.1486C29.7228 59.7818 29.6635 59.108 29.5646 59.0443C29.4846 58.9927 29.2441 58.9496 29.0301 58.9487C28.8161 58.9477 28.0103 58.8372 27.2395 58.7033C19.2309 57.3121 12.2161 52.1403 8.39007 44.8061C7.05954 42.2556 5.97677 38.8414 5.65173 36.1716C5.411 34.1943 5.68354 34.4197 3.53328 34.4197C1.42434 34.4197 1.04671 34.314 0.484481 33.5671C0.0494991 32.9892 0.0105384 31.8768 0.406461 31.3394C1.0041 30.5282 1.15817 30.4814 3.37093 30.4381C5.34278 30.3994 5.40118 30.3907 5.45334 30.1252C5.48285 29.975 5.57294 29.3171 5.65355 28.6633C6.5468 21.417 10.9042 14.4104 17.1258 10.2161C20.3613 8.03489 24.4389 6.46024 27.999 6.01718C28.6443 5.93687 29.2935 5.84671 29.4417 5.81679C29.7037 5.76394 29.7124 5.70478 29.7505 3.70661C29.7932 1.46432 29.8394 1.30819 30.6399 0.702581C31.1702 0.301375 32.268 0.340863 32.8383 0.78165C33.5754 1.35138 33.6796 1.73405 33.6796 3.87113C33.6796 6.04984 33.4565 5.77258 35.4085 6.01967C42.5593 6.92484 49.4737 11.3404 53.6128 17.645C55.7653 20.9237 57.3192 25.0557 57.7564 28.6633C57.996 30.6404 57.7238 30.4152 59.8742 30.4152C61.9831 30.4152 62.3608 30.5209 62.923 31.2678C63.1936 31.6272 63.2556 31.8417 63.2556 32.4174C63.2556 32.9931 63.1936 33.2076 62.923 33.5671C62.3608 34.314 61.9831 34.4197 59.8742 34.4197C57.7238 34.4197 57.996 34.1945 57.7564 36.1716C57.3192 39.7792 55.7653 43.9112 53.6128 47.1898C49.4737 53.4945 42.5593 57.91 35.4085 58.8152C33.4565 59.0623 33.6796 58.7851 33.6796 60.9638C33.6796 63.0917 33.5743 63.4844 32.8543 64.0408C32.3166 64.4564 31.4397 64.5482 30.8615 64.2495L30.8615 64.2494ZM29.7306 53.9099C29.734 52.4942 29.9697 51.867 30.6616 51.4337C31.6506 50.8143 32.9217 51.1823 33.4238 52.2334C33.6252 52.6549 33.6796 53.0115 33.6796 53.9102L33.6796 55.0517L34.1427 54.9878C39.527 54.2456 43.9027 52.1038 47.5169 48.4414C51.1164 44.7939 53.2476 40.3228 53.977 34.8888L54.04 34.4195L52.9136 34.4195C52.0267 34.4195 51.6749 34.3643 51.2589 34.1603C50.2216 33.6515 49.8584 32.3635 50.4697 31.3612C50.8965 30.6614 51.5168 30.4212 52.9055 30.4178L54.04 30.414L53.977 29.9447C52.9014 21.9315 48.5104 15.5797 41.6447 12.1053C39.4189 10.9789 36.6727 10.1475 34.2044 9.85269L33.6796 9.78991L33.6796 10.9273C33.6796 11.822 33.625 12.179 33.4238 12.6C32.7229 14.0674 30.6846 14.0674 29.9836 12.6C29.7823 12.1785 29.7279 11.822 29.7279 10.9233L29.7279 9.78183L29.2648 9.84574C23.9023 10.5849 19.4901 12.7445 15.8906 16.3921C12.2874 20.0434 10.1606 24.5051 9.43043 29.9447L9.36743 30.414L10.4938 30.414C11.3807 30.414 11.7326 30.4692 12.1486 30.6732C13.1859 31.182 13.5491 32.47 12.9378 33.4723C12.511 34.1721 11.8907 34.4123 10.502 34.4157L9.36743 34.4195L9.43043 34.8888C10.1604 40.3268 12.2805 44.7757 15.8906 48.445C19.4027 52.0147 24.0976 54.3254 29.1722 54.9819C29.3759 55.0083 29.5843 55.0382 29.6353 55.0486C29.6862 55.0581 29.7291 54.5465 29.7306 53.9099ZM30.3003 45.67C27.4797 45.3684 24.7842 44.1011 22.6751 42.085C21.4778 40.9404 20.6887 39.8423 19.9096 38.2363C18.483 35.2953 18.1759 32.1732 18.9958 28.9441C19.3092 27.7099 20.3964 25.4632 21.1963 24.3968C25.9502 18.0592 35.0252 17.294 40.7324 22.7497C41.9297 23.8943 42.7188 24.9924 43.4978 26.5984C45.3251 30.3651 45.3251 34.4696 43.4978 38.2363C42.7188 39.8423 41.9297 40.9404 40.7324 42.085C38.5649 44.1569 35.956 45.36 32.9386 45.6788C31.6395 45.8161 31.6678 45.8163 30.3003 45.6693L30.3003 45.67ZM33.8932 41.4872C37.1457 40.7251 39.8697 37.9492 40.6779 34.5735C40.9425 33.4684 40.9425 31.3663 40.6779 30.2612C39.8825 26.9388 37.3095 24.262 34.0691 23.3857C32.8568 23.0578 30.7666 23.0284 29.576 23.3225C26.216 24.1524 23.5437 26.8607 22.7296 30.2612C22.465 31.3663 22.465 33.4684 22.7296 34.5735C23.4183 37.4503 25.4865 39.9091 28.1633 41.0334C28.9371 41.3584 29.3486 41.4654 30.8393 41.7293C31.3409 41.8181 33.0641 41.6815 33.8932 41.4872V41.4872Z" fill="#980138"/>
</svg>
